<?xml version="1.0" standalone="no"?>
<!DOCTYPE svg PUBLIC "-//W3C//DTD SVG 1.1//EN" "http://www.w3.org/Graphics/SVG/1.1/DTD/svg11.dtd" >
<svg xmlns="http://www.w3.org/2000/svg" xmlns:xlink="http://www.w3.org/1999/xlink" version="1.1">
<metadata>
Created by FontForge 20170731 at Tue May 16 21:45:36 2023
 By Aleksey,,,
Agloist  (c) Penatic Studio 2021. All Rights Reserved
</metadata>
<defs>
<font id="AgloistRegular" horiz-adv-x="985" >
  <font-face 
    font-family="Agloist"
    font-weight="400"
    font-stretch="normal"
    units-per-em="2048"
    panose-1="0 0 0 0 0 0 0 0 0 0"
    ascent="1638"
    descent="-410"
    x-height="1002"
    cap-height="1434"
    bbox="-461 -435.316 2602 1888"
    underline-thickness="102"
    underline-position="-307"
    unicode-range="U+000A-FB06"
  />
<missing-glyph horiz-adv-x="1079" 
d="M102 1434h875v-1434h-875v1434zM160 1393l379 -633l381 633h-760zM514 717l-369 614v-1231zM541 674l-379 -631h758zM565 717l371 -621v1239z" />
    <glyph glyph-name="KA.liga" unicode="KA" horiz-adv-x="1847" 
d="M180 1350q0 24 -12.5 39t-38 21t-42.5 7t-47 1h-8q-5 0 -5 8t5 8h416q5 0 5 -8t-5 -8h-8q-30 0 -47 -1t-42.5 -7t-38 -21t-12.5 -39v-829l537 829q9 22 1 35.5t-40 21t-57 9.5t-52 2q-5 0 -5 8t5 8h322q5 0 5 -8t-5 -8q-49 0 -85 -13.5t-63 -54.5l-411 -633
q33 16 65 16.5t60 -11t56 -35.5t51 -53t47.5 -69t43.5 -78t40.5 -85t37.5 -84.5t35.5 -82.5t32.5 -74q44 -94 120.5 -154t161.5 -79t173.5 -4.5t158.5 58.5t115 121t45 172q0 27 -3.5 54t-13 60t-14 49t-20 59t-18.5 51l-274 783l-197 -551h370v-16h-376l-205 -575l-18 42
l193 533h-123v16h128l211 579q-25 34 -59 46.5t-96 12.5q-5 0 -5 8t5 8h260l300 -855q3 -9 20 -56t22 -64t15 -54t12.5 -66.5t1.5 -59.5q-5 -102 -63.5 -183t-146.5 -126.5t-197 -61t-213 1.5t-198 73t-149 143q-41 66 -145 274q-97 196 -151 253q-74 80 -131 -1l-117 -164
v-405q0 -16 5.5 -28.5t18.5 -19.5t23.5 -11t30.5 -6t29.5 -2h30.5h5.5h4.5q5 0 5 -8t-5 -8h-416q-5 0 -5 8t5 8h10q30 0 46.5 1t41.5 6.5t37.5 20.5t12.5 39v1267z" />
    <glyph glyph-name="OO.liga" unicode="OO" horiz-adv-x="1564" 
d="M770 189q78 131 111.5 329t11 398t-98.5 329q-78 -131 -111.5 -329t-11 -398t98.5 -329zM1054 1404q-126 16 -223 -106q91 -99 143.5 -251.5t52.5 -329.5q0 -183 -56 -340t-153 -255q71 -79 165 -92q131 -16 230 113.5t132.5 328t24.5 402.5t-94 357.5t-222 172.5z
M510 30q126 -16 223 105q-91 99 -143.5 252t-52.5 330q0 183 56 339.5t153 254.5q-72 80 -165 93q-131 16 -230 -113.5t-132.5 -328t-24.5 -402.5t94 -357.5t222 -172.5zM783 1344q109 90 237 90q134 0 245 -96t173.5 -260.5t62.5 -360.5t-63 -360.5t-174.5 -260.5
t-245.5 -96q-129 0 -237 89q-108 -89 -237 -89q-134 0 -245 96t-173.5 260.5t-62.5 360.5t63 360.5t174.5 260.5t245.5 96q128 0 237 -90z" />
    <glyph glyph-name="SS.liga" unicode="SS" horiz-adv-x="1488" 
d="M353 15q104 -53 216.5 -79.5t212.5 -25.5t191.5 24t158.5 64.5t108.5 101t45.5 129.5q5 90 -23.5 166.5t-79 132t-113 105t-128 96t-121.5 93.5t-96.5 108t-49.5 130q-10 76 -29 135t-50.5 109t-81.5 77t-117 27q-56 0 -105.5 -24t-83 -63t-48.5 -91t-8 -106t45.5 -110.5
t105.5 -101.5q45 -30 117 -70.5t126 -70.5t116 -75t102.5 -89.5t67.5 -108.5t27 -138q0 -81 -29 -149t-78.5 -112t-115 -72t-137.5 -29t-146 17zM717 1266q63 89 158 131.5t191.5 35.5t189.5 -61t153 -148l-110 -124q-1 62 -30 127t-81.5 114.5t-113.5 59.5
q-79 13 -151.5 -23.5t-112 -101t-34.5 -133.5q3 -44 31 -89t70.5 -83.5t97 -81.5t111.5 -84t113.5 -89.5t103 -99t80 -112.5t44.5 -129t-3 -149q-19 -98 -74 -171t-133.5 -113t-177 -58.5t-203 -13t-212.5 29.5t-206 64.5t-183.5 95.5t-144.5 118l121 148q16 -174 135 -252
q94 -60 205 -35q105 23 156 109t22 203q-16 66 -53.5 120.5t-92 96.5t-104.5 73t-118.5 70t-108.5 66q-114 78 -165.5 180t-35.5 201q17 113 118.5 192.5t228.5 80.5q100 0 184.5 -39t134.5 -126z" />
    <glyph glyph-name="LL.liga" unicode="LL" horiz-adv-x="1181" 
d="M300 83q0 -21 10 -35.5t29.5 -20.5t36.5 -8.5t42 -2.5h485q63 0 94 60l62 117l15 -4l-49 -189h-993q-5 0 -5 8t5 8h10q30 0 46.5 1t41.5 6.5t37.5 20.5t12.5 39v1267q0 24 -12.5 39t-38 21t-42.5 7t-47 1h-8q-5 0 -5 7.5t5 7.5h416q5 0 5 -7.5t-5 -7.5h-8q-30 0 -47 -1
t-42.5 -7t-38 -21t-12.5 -39v-1267zM735 1350v-879q0 -21 10.5 -35.5t29.5 -20.5t36.5 -8.5t42.5 -2.5h141q64 0 95 60l61 117l15 -3l-49 -190h-649q-5 0 -5 8t5 8h10q30 0 46.5 1t41.5 6.5t37.5 20.5t12.5 39v879q0 24 -12.5 39t-38 21t-42.5 7t-47 1h-8q-5 0 -5 7.5t5 7.5
h415q5 0 5 -7.5t-5 -7.5h-8q-30 0 -47 -1t-42.5 -7t-38 -21t-12.5 -39z" />
    <glyph glyph-name="LA.liga" unicode="LA" horiz-adv-x="1898" 
d="M297 85q0 -67 126 -69h180q63 0 94 60l26 49l232 641h-123v16h129l210 579q-25 34 -59 46.5t-96 12.5q-5 0 -5 8t5 8h261l468 -1334q28 -50 63.5 -67t107.5 -17q5 0 5 -8t-5 -8h-371q-5 0 -5 8t5 8h75q12 0 17.5 10t0.5 21l-449 1284l-197 -551h369v-16h-375l-227 -633
l-34 -133l-695 2q-5 0 -5 8t5 8h10q30 0 46.5 1t41.5 6.5t37.5 20.5t12.5 39v1268q0 16 -5.5 28.5t-18.5 19.5t-23.5 11t-30.5 6t-29.5 2h-30.5h-10q-5 0 -5 8t5 8h416q5 0 5 -8t-5 -8h-10q-30 0 -46.5 -1t-41.5 -6.5t-37.5 -20.5t-12.5 -39q0 -211 -0.5 -634t-0.5 -634z
" />
    <glyph glyph-name="EF.liga" unicode="EF" horiz-adv-x="1855" 
d="M180 1350q0 24 -12.5 39t-38 21t-42.5 7t-47 1h-8q-5 0 -5 8t5 8h811l49 -190l-15 -4l-62 117q-31 61 -94 61h-303q-24 0 -41.5 -2.5t-37 -9t-29.5 -21t-10 -35.5v-1267q0 -21 10 -35.5t29.5 -20.5t36.5 -8.5t42 -2.5h303q63 0 94 60l62 117l15 -4l-49 -189h-811
q-5 0 -5 7.5t5 7.5h8q30 0 47 1t42.5 7t38 21t12.5 39v1267zM1092 801v549q0 24 -12.5 39t-38 21t-42.5 7t-47 1h-8q-5 0 -5 8t5 8h862l50 -190l-15 -4l-62 117q-31 61 -94 61h-355q-24 0 -41.5 -2.5t-37 -9t-29.5 -21t-10 -35.5v-549h294q43 0 74 28.5t35 71.5l4 44h10
v-303h-10l-4 44q-4 43 -35 71.5t-74 28.5h-294v-703q0 -16 5.5 -28.5t18.5 -19.5t23.5 -11t30.5 -6t29.5 -2h30.5h10q5 0 5 -8t-5 -8h-416q-5 0 -5 8t5 8h10q30 0 46.5 1t41.5 6.5t37.5 20.5t12.5 39v703h-512q-43 0 -74 -28.5t-35 -71.5l-4 -44h-11v303h11l4 -44
q4 -43 35 -71.5t74 -28.5h512z" />
    <glyph glyph-name="TE.liga" unicode="TE" horiz-adv-x="1710" 
d="M842 1418h-178q-34 -1 -56.5 -4.5t-42.5 -19.5t-20 -44v-1267q0 -16 5.5 -28.5t18.5 -19.5t23.5 -11t30.5 -6t29.5 -2h30.5h10q5 0 5 -8t-5 -8h-415q-5 0 -5 8t5 8h10q30 0 46.5 1t41.5 6.5t37.5 20.5t12.5 39v1267q0 28 -20 44t-42.5 19.5t-56.5 4.5h-146q-64 0 -95 -61
l-61 -117l-15 4l49 190h1584l49 -190l-15 -4l-62 117q-31 61 -94 61h-303q-24 0 -41.5 -2.5t-37 -9t-29.5 -21t-10 -35.5v-549h294q43 0 74 28.5t35 71.5l4 44h10v-303h-10l-4 44q-4 43 -35 71.5t-74 28.5h-294v-703q0 -21 10 -35.5t29.5 -20.5t36.5 -8.5t42 -2.5h303
q63 0 94 60l62 117l15 -4l-49 -189h-811q-5 0 -5 8t5 8h10q30 0 46.5 1t41.5 6.5t37.5 20.5t12.5 39v1267q0 21 -10 35.5t-29.5 21t-37 9t-41.5 2.5z" />
    <glyph glyph-name="EE.liga" unicode="EE" horiz-adv-x="976" 
d="M188 1350q0 24 -12.5 39t-38 21t-42.5 7t-47 1h-8q-5 0 -5 8t5 8h811l49 -190l-15 -4l-62 117q-31 61 -94 61h-303q-24 0 -41.5 -2.5t-37 -9t-29.5 -21t-10 -35.5v-207h294q43 0 74 28.5t35 71.5l4 44h10v-303h-10l-4 44q-4 43 -35 71.5t-74 28.5h-294v-291
q0 -21 10 -35.5t29.5 -20.5t36.5 -8.5t42 -2.5h303q63 0 94 60l62 117l15 -4l-49 -189h-811q-5 0 -5 7.5t5 7.5h8q30 0 47 1t42.5 7t38 21t12.5 39v513zM188 83v513q0 24 -12.5 39t-38 21t-42.5 7t-47 1h-8q-5 0 -5 8t5 8h811l49 -190l-15 -4l-62 117q-31 61 -94 61h-303
q-24 0 -41.5 -2.5t-37 -9t-29.5 -21t-10 -35.5v-207h294q43 0 74 28.5t35 71.5l4 44h10v-303h-10l-4 44q-4 43 -35 71.5t-74 28.5h-294v-291q0 -21 10 -35.5t29.5 -20.5t36.5 -8.5t42 -2.5h303q63 0 94 60l62 117l15 -4l-49 -189h-811q-5 0 -5 8t5 8h10q30 0 46.5 1
t41.5 6.5t37.5 20.5t12.5 39z" />
    <glyph glyph-name="LE.liga" unicode="LE" horiz-adv-x="1351" 
d="M300 83q0 -21 10 -35.5t29.5 -20.5t36.5 -8.5t42 -2.5h594q64 0 95 60l61 117l15 -4l-49 -189h-1102q-5 0 -5 8t5 8h10q30 0 46.5 1t41.5 6.5t37.5 20.5t12.5 39v1267q0 24 -12.5 39t-38 21t-42.5 7t-47 1h-8q-5 0 -5 7.5t5 7.5h1217l50 -189l-16 -4l-61 117
q-31 61 -95 61h-302q-34 -1 -56.5 -4.5t-42.5 -19.5t-20 -44v-362h295q43 0 73.5 28t34.5 71l4 44h11v-303h-11l-4 44q-4 43 -34.5 71.5t-73.5 28.5h-295v-395q0 -21 10.5 -35.5t29.5 -20.5t36.5 -8.5t42.5 -2.5h302q64 0 95 60l61 118l16 -4l-50 -190h-810q-5 0 -5 8t5 8
h10q30 0 46.5 1t41.5 6.5t37.5 20.5t12.5 39v773q0 34 -45 53.5t-98.5 19.5t-98.5 -19.5t-45 -53.5v-1267z" />
    <glyph glyph-name="RS.liga" unicode="RS" horiz-adv-x="1927" 
d="M418 1418q-24 0 -41.5 -2.5t-37 -9t-29.5 -21t-10 -35.5v-653h206q73 0 132.5 31t96 81.5t56 115.5t19.5 132.5t-19.5 132.5t-56 115.5t-96 81.5t-132.5 31h-88zM1243 793q-82 51 -132 122t-64 143t6.5 143.5t70 125.5t136.5 86t197 27q111 -4 206 -66t145 -150
q-56 -33 -111 -93t-90 -121v31q33 51 77 99q-4 80 -70.5 164.5t-164.5 102.5q-61 11 -121 -4.5t-104.5 -49.5t-69 -84.5t-23.5 -105t40.5 -114t116.5 -108.5q40 -26 104 -62t111.5 -64t105.5 -65.5t100 -75.5t80.5 -84.5t61.5 -103t30 -120.5q11 -105 -49.5 -196.5
t-174.5 -138.5q-135 -55 -358.5 -36.5t-343.5 92.5q-147 90 -229 299q-5 13 -16 42t-17.5 45t-18.5 43.5t-22 43.5t-24.5 37.5t-29.5 34.5t-33.5 25.5t-40 18t-46.5 5.5h-178v-598q0 -12 3 -22t10.5 -16.5t13.5 -11.5t19 -8t19 -5t22.5 -3t21 -1h21.5h18q5 0 5 -8t-5 -8
h-416q-5 0 -5 8t5 8h10q30 0 46.5 1t41.5 6.5t37.5 20.5t12.5 39v1267q0 24 -12.5 39t-38 21t-42.5 7t-47 1h-8q-5 0 -5 8t5 8h577q65 0 121 -24.5t94 -66t66 -96t36 -115t4.5 -121.5t-28.5 -117t-62 -101t-97 -74.5t-134 -35.5q53 -25 97.5 -72.5t78 -105.5t66.5 -118
t79 -124.5t100 -109.5q72 -61 182.5 -99.5t230 -37.5t198.5 51q70 44 96 120t0 170q-16 56 -47.5 105.5t-67 84.5t-88.5 72t-94 60.5t-101.5 57.5t-95.5 56z" />
    <glyph glyph-name="KS.liga" unicode="KS" horiz-adv-x="1906" 
d="M1432 1440q111 -4 206 -66t145 -150q-55 -33 -110 -93t-90 -121v31q36 55 76 99q-4 80 -70.5 164.5t-164.5 102.5q-61 11 -121 -4.5t-104 -49.5t-69 -84.5t-23.5 -105t41 -114t116.5 -108.5q43 -28 121.5 -73t131 -76t119 -81t108.5 -97t74.5 -113.5t40.5 -140.5
q9 -87 -18.5 -157t-83 -112.5t-129 -68.5t-159.5 -27t-171.5 14.5t-168 54t-145.5 92.5q-61 52 -119.5 122.5t-100 132t-81.5 123.5t-72 102.5t-64 63t-64 11t-66 -58.5l-117 -164v-405q0 -16 5.5 -28.5t18.5 -19.5t23.5 -11t30.5 -6t29.5 -2h30.5h5.5h4.5q5 0 5 -8t-5 -8
h-416q-5 0 -5 8t5 8h10q30 0 46.5 1t41.5 6.5t37.5 20.5t12.5 39v1267q0 24 -12.5 39t-38 21t-42.5 7t-47 1h-8q-5 0 -5 8t5 8h416q5 0 5 -8t-5 -8h-8q-30 0 -47 -1t-42.5 -7t-38 -21t-12.5 -39v-829l537 829q9 22 1 35.5t-40 21t-57 9.5t-52 2q-5 0 -5 8t5 8h322q5 0 5 -8
t-5 -8q-49 0 -85 -13.5t-63 -54.5l-411 -633q42 20 85.5 21t81.5 -11.5t81 -43.5t77 -63.5t77.5 -82.5t75.5 -90.5t77 -97.5t76 -94q149 -178 324 -221q141 -35 235 31q93 65 88 197q-2 42 -15 89q-16 56 -48 106t-67.5 85.5t-89 74t-94 62t-102 58.5t-95.5 56
q-82 51 -132 122t-64 143t6 143.5t69.5 125.5t136.5 86t197 27z" />
    <glyph glyph-name="an.liga" unicode="an" horiz-adv-x="2019" 
d="M1263 558v-475q0 -24 12.5 -39t38 -21t42.5 -7t47 -1h8q5 0 5 -8t-5 -8h-415q-5 0 -5 8t5 8h8q30 0 47 1t42.5 7t38 21t12.5 39v458q9 7 27.5 20.5t27.5 20.5q23 18 41 10q23 -10 23 -34zM1622 960q-26 7 -56 -1.5t-50.5 -20.5t-52 -41t-42 -40.5t-37.5 -41.5l-84 -96
q-79 -91 -134.5 -152.5t-148 -153.5t-178.5 -165v-147q0 -86 128 -86q5 0 5 -8t-5 -8h-180q-28 0 -47.5 20t-19.5 48v13q0 14 -1.5 24t-5 17.5t-10.5 7t-17 -9.5q-131 -119 -293 -119q-90 0 -162 28t-113.5 73.5t-62.5 101t-15.5 113t33.5 106.5q27 47 73.5 78.5t99.5 50
t107.5 36t112.5 48t100 73.5q32 32 45 67t7.5 63.5t-24 53.5t-50.5 37t-71.5 13.5t-86.5 -15.5q-28 -29 -43 -67t-14 -66.5t9 -48.5l-179 -74q18 85 58.5 151.5t92.5 104.5t107.5 57t110.5 19q85 0 146.5 -27t97 -77.5t51.5 -114t16 -143.5v-372l-79 -39q-14 -7 -27.5 0
t-13.5 23q0 5 0.5 19t0.5 22v447q0 142 -86.5 204.5t-224.5 1.5q58 13 106 6t78 -34.5t43 -63.5t1 -81t-49 -87q-40 -45 -102.5 -84t-112.5 -62t-97.5 -65.5t-66.5 -98.5q-38 -112 17 -221t171 -124q48 -6 88 -0.5t77.5 26t63 39t67.5 52.5q4 3 6 5t5.5 5t6.5 5l55 44
q175 138 378 359v334q0 17 -8 26.5t-24 4.5q-18 -6 -54.5 -17.5t-54.5 -17.5q-3 -1 -5.5 1.5t-2 6t5.5 5.5q38 15 113.5 45.5t113.5 45.5q15 6 25 -2t10 -23v-99v-176q19 21 55.5 62.5t54.5 62.5q37 42 57.5 63t59 54t76.5 47.5t77 12.5q97 -5 156 -103t59 -237v-581
q0 -16 5.5 -28.5t18.5 -19.5t23.5 -11t30.5 -6t29.5 -2h30.5h10q5 0 5 -8t-5 -8h-415q-5 0 -5 8t5 8h10q30 0 46.5 1t41.5 6.5t37.5 20.5t12.5 39v584q0 101 -28.5 189.5t-88.5 104.5z" />
    <glyph glyph-name="ah.liga" unicode="ah" horiz-adv-x="2019" 
d="M1263 558v-475q0 -24 12.5 -39t38 -21t42.5 -7t47 -1h8q5 0 5 -8t-5 -8h-415q-5 0 -5 8t5 8h8q30 0 47 1t42.5 7t38 21t12.5 39v458q9 7 27.5 20.5t27.5 20.5q23 18 41 10q23 -10 23 -34zM1622 960q-32 8 -65.5 -2.5t-70 -41.5t-53.5 -48t-49 -53l-84 -96
q-79 -91 -134.5 -152.5t-148 -153.5t-178.5 -165v-147q0 -86 128 -86q5 0 5 -8t-5 -8h-180q-28 0 -47.5 20t-19.5 48v13q0 14 -1.5 24t-5 17.5t-10.5 7t-17 -9.5q-131 -119 -293 -119q-90 0 -162 28t-113.5 73.5t-62.5 101t-15.5 113t33.5 106.5q27 47 73.5 78.5t99.5 50
t107.5 36t112.5 48t100 73.5q32 32 45 67t7.5 63.5t-24 53.5t-50.5 37t-71.5 13.5t-86.5 -15.5q-28 -29 -43 -67t-14 -66.5t9 -48.5l-179 -74q18 85 58.5 151.5t92.5 104.5t107.5 57t110.5 19q85 0 146.5 -27t97 -77.5t51.5 -114t16 -143.5v-372l-79 -39q-14 -7 -27.5 0
t-13.5 23q0 5 0.5 19t0.5 22v447q0 142 -86.5 204.5t-224.5 1.5q58 13 106 6t78 -34.5t43 -63.5t1 -81t-49 -87q-40 -45 -102.5 -84t-112.5 -62t-97.5 -65.5t-66.5 -98.5q-38 -112 17 -221t171 -124q48 -6 88 -0.5t77.5 26t63 39t67.5 52.5q4 3 6 5t5.5 5t6.5 5l55 44
q175 138 378 359v764q0 17 -8.5 27t-23.5 5q-18 -6 -54.5 -17.5t-54.5 -17.5q-3 -1 -5.5 1t-2 5.5t5.5 5.5q38 15 113.5 45.5t113.5 45.5q15 6 25 -2t10 -23v-98v-607q18 21 55 63t55 63q36 41 57 62.5t59.5 54t76.5 47t77 12.5q97 -5 156 -102.5t59 -236.5v-581
q0 -24 12.5 -39t38 -21t42.5 -7t47 -1h8q5 0 5 -8t-5 -8h-415q-5 0 -5 8t5 8h8q30 0 47 1t42.5 7t38 21t12.5 39v583q0 101 -28.5 189.5t-88.5 104.5z" />
    <glyph glyph-name="am.liga" unicode="am" horiz-adv-x="2609" 
d="M1263 558v-475q0 -24 12.5 -39t38 -21t42.5 -7t47 -1h8q5 0 5 -8t-5 -8h-415q-5 0 -5 8t5 8h8q30 0 47 1t42.5 7t38 21t12.5 39v458q9 7 27.5 20.5t27.5 20.5q23 18 41 10q23 -10 23 -34zM1622 960q-32 8 -65.5 -2.5t-70 -41.5t-53.5 -48t-49 -53l-84 -96
q-79 -91 -134.5 -152.5t-148 -153.5t-178.5 -165v-147q0 -86 128 -86q5 0 5 -8t-5 -8h-180q-28 0 -47.5 20t-19.5 48v13q0 14 -1.5 24t-5 17.5t-10.5 7t-17 -9.5q-131 -119 -293 -119q-90 0 -162 28t-113.5 73.5t-62.5 101t-15.5 113t33.5 106.5q27 47 73.5 78.5t99.5 50
t107.5 36t112.5 48t100 73.5q32 32 45 67t7.5 63.5t-24 53.5t-50.5 37t-71.5 13.5t-86.5 -15.5q-28 -29 -43 -67t-14 -66.5t9 -48.5l-179 -74q18 85 58.5 151.5t92.5 104.5t107.5 57t110.5 19q85 0 146.5 -27t97 -77.5t51.5 -114t16 -143.5v-372l-79 -39q-14 -7 -27.5 0
t-13.5 23q0 5 0.5 19t0.5 22v447q0 142 -86.5 204.5t-224.5 1.5q58 13 106 6t78 -34.5t43 -63.5t1 -81t-49 -87q-40 -45 -102.5 -84t-112.5 -62t-97.5 -65.5t-66.5 -98.5q-38 -112 17 -221t171 -124q48 -6 88 -0.5t77.5 26t63 39t67.5 52.5q4 3 6 5t5.5 5t6.5 5l55 44
q175 138 378 359v334q0 17 -8 26.5t-24 4.5q-18 -6 -54.5 -17.5t-54.5 -17.5q-3 -1 -5.5 1.5t-2 6t5.5 5.5q38 15 113.5 45.5t113.5 45.5q15 6 25 -2t10 -23v-99v-176q19 21 55.5 62.5t54.5 62.5q37 42 57.5 63t59 54t76.5 47.5t77 12.5q52 -3 91.5 -30t62.5 -66t37.5 -91.5
t19 -97.5t4.5 -93q28 56 52.5 99t64 100t76.5 94t85.5 62.5t96.5 22.5q97 -5 156.5 -103t59.5 -237v-581q0 -16 5.5 -28.5t18.5 -19.5t23.5 -11t30.5 -6t29.5 -2h30.5h10q5 0 5 -8t-5 -8h-416q-5 0 -5 8t5 8h10q30 0 46.5 1t41.5 6.5t37.5 20.5t12.5 39v584q0 101 -28 189.5
t-88 104.5q-41 11 -87.5 -13.5t-84 -65t-76.5 -99t-62.5 -101t-44.5 -85.5v-514q0 -16 5.5 -28.5t18.5 -19.5t23.5 -11t30.5 -6t29.5 -2h30.5h10q5 0 5 -8t-5 -8h-415q-5 0 -5 8t5 8h10q30 0 46.5 1t41.5 6.5t37.5 20.5t12.5 39v584q0 101 -28.5 189.5t-88.5 104.5z" />
    <glyph glyph-name="fh.liga" unicode="fh" horiz-adv-x="1486" 
d="M730 615q30 58 53 100t64 102t78 97.5t86.5 64.5t98.5 24q97 -5 156 -102.5t59 -236.5v-581q0 -24 12.5 -39t38 -21t42.5 -7t47 -1h8q5 0 5 -8t-5 -8h-415q-5 0 -5 8t5 8h8q30 0 47 1t42.5 7t38 21t12.5 39v583q0 101 -28.5 189.5t-88.5 104.5q-42 11 -90 -15
t-86.5 -68.5t-78.5 -104t-62 -103t-42 -83.5v-504q0 -16 5.5 -28.5t18.5 -19.5t23.5 -11t30.5 -6t29.5 -2h30.5h10q5 0 5 -8t-5 -8h-415q-5 0 -5 8t5 8h10q30 0 46.5 1t41.5 6.5t37.5 20.5t12.5 39v1042q53 60 119 93v-602zM289 83q0 -24 12.5 -39t38 -21t42.5 -7t47 -1h8
q5 0 5 -8t-5 -8h-415q-5 0 -5 8t5 8h8q30 0 47 1t42.5 7t38 21t12.5 39v898h-115l11 22h104q0 53 2 92t10 86.5t21.5 81.5t37.5 68t57.5 55t82.5 34t111 13q87 0 150 -56t88 -144q-118 -56 -189 -183v28q25 39 45 63q50 120 1 206q-35 62 -100 69q-75 7 -130 -70
q-64 -91 -67 -266q0 -4 -0.5 -39t-0.5 -38h221l-13 -22h-208v-898z" />
    <glyph glyph-name="fk.liga" unicode="fk" horiz-adv-x="1382" 
d="M730 620q0 -1 7.5 11.5t21 35.5t32.5 52t43.5 62t51 65t58 61t63 51t66.5 34.5t68 10.5q99 -5 163 -115q-67 -18 -127.5 -59t-94.5 -97v28q43 59 119 102q-10 36 -31.5 63t-49.5 35q-39 10 -85 -10.5t-90.5 -63t-82.5 -90t-72 -100.5q-8 -12 -34 -56t-26 -49
q53 29 100 35t83 -5t71 -43.5t60.5 -69.5t55 -93.5t50 -104.5t50.5 -115t52 -112q22 -44 46.5 -56t71.5 -12q5 0 5 -8t-5 -8h-351q-5 0 -5 8t5 8q38 0 63 5q35 7 41.5 29t-11.5 70q-4 12 -15 42q-12 36 -19.5 56t-22.5 61t-27 67t-30.5 64t-35.5 61.5t-38 51.5t-43 42
t-46 24.5t-51 7t-54 -18.5v-494q0 -24 12.5 -39t38 -21t42.5 -7t47 -1h8q5 0 5 -8t-5 -8h-415q-5 0 -5 8t5 8h8q30 0 47 1t42.5 7t38 21t12.5 39v1041q53 60 119 93v-597zM289 83q0 -24 12.5 -39t38 -21t42.5 -7t47 -1h8q5 0 5 -8t-5 -8h-415q-5 0 -5 8t5 8h8q30 0 47 1
t42.5 7t38 21t12.5 39v898h-115l11 22h104q0 53 2 92t10 86.5t21.5 81.5t37.5 68t57.5 55t82.5 34t111 13q87 0 150 -56t88 -144q-118 -56 -189 -183v28q25 39 45 63q50 120 1 206q-35 62 -100 69q-75 7 -130 -70q-64 -91 -67 -266q0 -4 -0.5 -39t-0.5 -38h221l-13 -22h-208
v-898z" />
    <glyph glyph-name="ft.liga" unicode="ft" horiz-adv-x="1038" 
d="M577 981h-75l8 22q52 9 84.5 51t38 98.5t-5 112.5t-46 98.5t-84.5 51.5q-35 6 -69.5 -9.5t-65.5 -53t-50.5 -108.5t-21.5 -164q0 -4 -0.5 -39t-0.5 -38h160l-8 -22h-152v-898q0 -24 12.5 -39t38 -21t42.5 -7t47 -1h8q5 0 5 -8t-5 -8h-415q-5 0 -5 8t5 8h8q30 0 47 1
t42.5 7t38 21t12.5 39v898h-115l11 22h104q0 74 5.5 128.5t25.5 115t54.5 98.5t96.5 63t148 25q63 0 120.5 -32.5t91 -81t28 -112t-60.5 -118.5q-17 -17 -42 -36.5t-37.5 -30.5t-12.5 -19h367l-6 -22h-251v-644q0 -101 28 -189.5t88 -104.5q91 -24 202 113q7 8 10 -1
q3 -7 -2 -14q-116 -148 -231 -141q-97 5 -156 102.5t-59 236.5v642z" />
    <glyph glyph-name="gb.liga" unicode="gb" horiz-adv-x="1865" 
d="M530 919l-293 -564q59 -98 160 -98q91 0 152 82t76.5 191t-8.5 221t-87 168zM514 932q-122 82 -218 -10q-80 -77 -106 -232q-28 -164 25 -292q4 -10 9 -19zM1474 969q-67 10 -153 -26.5t-152 -124.5v-438q142 -281 275 -287q96 -5 163 131q68 138 72 332q4 209 -74 324
q-51 77 -131 89zM1050 1058q0 238 -87 303q-54 41 -114 0q-57 -38 -73 -112q-21 -104 61 -187q27 -27 64 -49l-95 -54q-11 11 -17.5 18t-26.5 23.5t-36.5 24.5t-41 13.5t-46 -1t-46 -27.5t-45.5 -58q91 -42 148 -138t57 -192q0 -84 -26.5 -154.5t-70.5 -117.5t-101.5 -77
t-117.5 -37.5t-121 6.5t-111 50q-14 -27 -23.5 -53t-7.5 -57t26 -42q25 -15 87 -11.5t115.5 14t127.5 21.5t124 11q58 0 105.5 -33.5t68.5 -81t10 -104t-59 -97.5q-53 -48 -136.5 -62t-165 0t-137 30t-86.5 30l127 128q31 -22 65 -42.5t83 -44.5t92 -36t85 -9t67 28
q35 32 33 76t-45 64q-41 20 -101.5 20.5t-113.5 -10t-123 -21.5t-117 -10q-57 1 -96 13.5t-58.5 34.5t-26 50.5t1 63.5t22.5 70t38 74q-125 105 -125 309q0 132 81.5 236.5t201.5 128.5q100 20 183 -18q30 50 54.5 79t56.5 50t70.5 18.5t85.5 -27.5q-75 123 -29 245
q34 89 111 131q86 46 161 -2q111 -69 129 -302l3 -86v-237q69 91 154 133.5t155 39.5q176 -8 260 -186q74 -156 54 -377q-18 -204 -102 -331q-88 -133 -206 -106q-155 37 -315 347v-284q0 -28 -19.5 -48t-47.5 -20h-175q-5 0 -5 8t5 8h8q22 0 33.5 0.5t29.5 4t27.5 10t17 20
t7.5 33.5v975z" />
    <glyph glyph-name="gh.liga" unicode="gh" horiz-adv-x="1925" 
d="M530 919l-293 -564q59 -98 160 -98q91 0 152 82t76.5 191t-8.5 221t-87 168zM514 932q-122 82 -218 -10q-80 -77 -106 -232q-28 -164 25 -292q4 -10 9 -19zM1050 82v976q0 238 -87 303q-54 41 -114 0q-57 -38 -73 -112q-21 -104 61 -187q27 -27 64 -49l-95 -54
q-11 11 -17.5 18t-26.5 23.5t-36.5 24.5t-41 13.5t-46 -1t-46 -27.5t-45.5 -58q91 -42 148 -138t57 -192q0 -84 -26.5 -154.5t-70.5 -117.5t-101.5 -77t-117.5 -37.5t-121 6.5t-111 50q-64 -124 -5 -152q25 -15 87 -11.5t115.5 14t127.5 21.5t124 11q58 0 105.5 -33.5
t68.5 -81t10 -104t-59 -97.5q-53 -48 -136.5 -62t-165 0t-137 30t-86.5 30l127 128q31 -22 65 -42.5t83 -44.5t92 -36t85 -9t67 28q35 32 33 76t-45 64q-41 20 -101.5 20.5t-113.5 -10t-123 -21.5t-117 -10q-57 1 -96 13.5t-58.5 34.5t-26 50.5t1 63.5t22.5 70t38 74
q-125 105 -125 309q0 132 81.5 236.5t201.5 128.5q100 20 183 -18q30 50 54.5 79t56.5 50t70.5 18.5t85.5 -27.5q-75 123 -29 245q34 89 111 131q86 46 161 -2q111 -69 129 -302l3 -86v-453q30 58 53 100t64 102t78 97.5t86.5 64.5t98.5 24q97 -5 156.5 -102.5t59.5 -236.5
v-581q0 -24 12.5 -39t38 -21t42.5 -7t47 -1h8q5 0 5 -8t-5 -8h-416q-5 0 -5 8t5 8h8q30 0 47 1t42.5 7t38 21t12.5 39v583q0 101 -28 189.5t-88 104.5q-42 11 -90 -15t-86.5 -68.5t-78.5 -104t-62.5 -103.5t-42.5 -83v-504q0 -24 12.5 -39t38 -20.5t42 -6.5t46.5 -1h5.5h4.5
q5 0 5 -8t-5 -8h-416q-5 0 -5 8t5 8h10q30 0 46.5 1t41.5 6.5t37.5 20.5t12.5 39z" />
    <glyph glyph-name="gk.liga" unicode="gk" horiz-adv-x="1820" 
d="M530 919l-293 -564q59 -98 160 -98q91 0 152 82t76.5 191t-8.5 221t-87 168zM514 932q-122 82 -218 -10q-80 -77 -106 -232q-28 -164 25 -292q4 -10 9 -19zM1169 1068v-448q0 -1 7.5 11.5t21 35.5t32.5 52t43.5 62t51 65t58 61t63 51t66.5 34.5t68 10.5q99 -5 163 -115
q-67 -18 -127 -59t-94 -97v28q44 60 118 102q-10 36 -31.5 63t-49.5 35q-50 13 -112.5 -25t-117 -104t-95.5 -128.5t-65 -111.5q53 29 100 35t83.5 -5t71.5 -43.5t60 -69.5t54.5 -93.5t50 -104.5t50.5 -115t52 -112q22 -44 46.5 -56t71.5 -12q5 0 5 -8t-5 -8h-350q-5 0 -5 8
t5 8q37 0 62 5q35 7 41.5 29t-11.5 70q-4 12 -15 42q-12 36 -19.5 56t-22.5 61t-27 67t-30.5 64t-35.5 61.5t-38 51.5t-43 42t-46 24.5t-51 7t-54 -18.5v-494q0 -24 12.5 -39t38 -21t42.5 -7t47 -1h8q5 0 5 -8t-5 -8h-415q-5 0 -5 8t5 8h8q30 0 47 1t42.5 7t38 21t12.5 39
v975q0 238 -87 303q-54 41 -114 0q-57 -38 -73 -112q-21 -104 61 -187q27 -27 64 -49l-95 -54q-11 11 -17.5 18t-26.5 23.5t-36.5 24.5t-41 13.5t-46 -1t-46 -27.5t-45.5 -58q91 -42 148 -138t57 -192q0 -84 -26.5 -154.5t-70.5 -117.5t-101.5 -77t-117.5 -37.5t-121 6.5
t-111 50q-64 -124 -5 -152q25 -15 87 -11.5t115.5 14t127.5 21.5t124 11q58 0 105.5 -33.5t68.5 -80.5t10 -103.5t-59 -97.5q-43 -39 -108 -55t-126.5 -13t-125.5 16t-103 26t-62 23l127 128q31 -22 65 -42.5t83 -44.5t92 -36t85 -9t67 28q35 32 33 76t-45 64
q-41 20 -101.5 20.5t-113.5 -10t-123 -21.5t-117 -10q-57 1 -96 13.5t-58.5 34.5t-26 50.5t1 63.5t22.5 70t38 74q-125 105 -125 309q0 132 81.5 236.5t201.5 128.5q100 20 183 -18q30 50 54.5 79t56.5 50t70.5 18.5t85.5 -27.5q-75 123 -29 245q34 89 111 131q86 46 161 -2
q111 -69 129 -302z" />
    <glyph glyph-name="gl.liga" unicode="gl" horiz-adv-x="1333" 
d="M530 919l-293 -564q59 -98 160 -98q91 0 152 82t76.5 191t-8.5 221t-87 168zM514 932q-122 82 -218 -10q-80 -77 -106 -232q-28 -164 25 -292q4 -10 9 -19zM1169 83q0 -24 12.5 -39t38 -21t42.5 -7t47 -1h8q5 0 5 -8t-5 -8h-415q-5 0 -5 8t5 8h8q30 0 47 1t42.5 7t38 21
t12.5 39v975q0 238 -87 303q-54 41 -114 0q-57 -38 -73 -112q-21 -104 61 -187q27 -27 64 -49l-95 -54q-11 11 -17.5 18t-26.5 23.5t-36.5 24.5t-41 13.5t-46 -1t-46 -27.5t-45.5 -58q91 -42 148 -138t57 -192q0 -84 -26.5 -154.5t-70.5 -117.5t-101.5 -77t-117.5 -37.5
t-121 6.5t-111 50q-14 -27 -23.5 -53t-7.5 -57t26 -42q25 -15 87 -11.5t115.5 14t127.5 21.5t124 11q58 0 105.5 -33.5t68.5 -81t10 -104t-59 -97.5q-53 -48 -136.5 -62t-165 0t-137 30t-86.5 30l127 128q31 -22 65 -42.5t83 -44.5t92 -36t85 -9t67 28q35 32 33 76t-45 64
q-41 20 -101.5 20.5t-113.5 -10t-123 -21.5t-117 -10q-57 1 -96 13.5t-58.5 34.5t-26 50.5t1 63.5t22.5 70t38 74q-125 105 -125 309q0 132 81.5 236.5t201.5 128.5q100 20 183 -18q30 50 54.5 79t56.5 50t70.5 18.5t85.5 -27.5q-75 123 -29 245q34 89 111 131q86 46 161 -2
q111 -69 129 -302l3 -86v-985z" />
    <glyph glyph-name="ib.liga" unicode="ib" horiz-adv-x="1454" 
d="M758 818v-438q142 -281 275 -287q95 -5 162 130q68 138 72 332q4 208 -73 324q-53 77 -132 90q-67 10 -152.5 -26.5t-151.5 -124.5zM298 976v-893q0 -24 12.5 -39t38 -21t42.5 -7t47 -1h8q5 0 5 -8t-5 -8h-416q-5 0 -5 8t5 8h8q30 0 47 1t42.5 7t38 21t12.5 39v818
q0 17 -8 27t-23 5l-109 -35q-3 -1 -6 1t-2.5 5.5t5.5 5.5l228 91q15 6 25 -2t10 -23zM758 965v-134q69 91 154 133.5t155 39.5q176 -8 260 -186q74 -156 54 -377q-18 -204 -102 -331q-88 -133 -206 -106q-155 37 -315 347v-284q0 -28 -20 -48t-48 -20h-175q-5 0 -5 8t5 8h10
q22 0 33 0.5t29 3.5t27 10t16.5 20.5t7.5 32.5v884q0 4 0.5 45t0 60t-2.5 62.5t-6.5 69t-13 63t-20.5 60.5t-31 44.5t-43 32.5q-36 12 -59 10t-44.5 -23.5t-35.5 -48.5t-33 -64.5t-36.5 -72t-45 -71.5t-59.5 -62l-88 90q24 36 41 60t47 60.5t54 59.5t58 47.5t65 34.5
t68.5 10.5t74.5 -15.5q65 -27 111.5 -76t71.5 -111.5t35.5 -127.5t10.5 -138z" />
    <glyph glyph-name="ih.liga" unicode="ih" horiz-adv-x="1513" 
d="M298 83q0 -24 12.5 -39t38 -21t42.5 -7t47 -1h8q5 0 5 -8t-5 -8h-416q-5 0 -5 8t5 8h8q30 0 47 1t42.5 7t38 21t12.5 39v818q0 17 -8 27t-23 5l-109 -35q-3 -1 -6 1t-2.5 5.5t5.5 5.5l228 91q15 6 25 -2t10 -23v-893zM758 83q0 -24 12.5 -39t38 -21t42.5 -7t47 -1h8
q5 0 5 -8t-5 -8h-416q-5 0 -5 8t5 8h8q30 0 47 1t42.5 7t38 21t12.5 39v883q0 4 0.5 45t0 60t-2.5 63t-6.5 69.5t-13 63t-20.5 60.5t-31 44.5t-43 32.5q-36 12 -59 10t-44.5 -23.5t-35.5 -48.5t-33 -65t-36.5 -72.5t-45 -71.5t-59.5 -62l-88 90q24 36 41 60t47 60.5t54 59.5
t58 47.5t65 34.5t68.5 10.5t74.5 -15.5q65 -27 111.5 -76t71.5 -111.5t35.5 -127.5t10.5 -138v-350q30 58 53 100t64 102t78 97.5t86.5 64.5t98.5 24q97 -5 156 -102.5t59 -236.5v-581q0 -24 12.5 -39t38 -21t42.5 -7t47 -1h8q5 0 5 -8t-5 -8h-416q-5 0 -5 8t5 8h8
q30 0 47 1t43 7t38.5 21t12.5 39v583q0 101 -28.5 189.5t-88.5 104.5q-42 11 -90 -15t-86.5 -68.5t-78.5 -104t-62 -103t-42 -83.5v-503z" />
    <glyph glyph-name="ik.liga" unicode="ik" horiz-adv-x="1411" 
d="M298 83q0 -24 12.5 -39t38 -21t42.5 -7t47 -1h8q5 0 5 -8t-5 -8h-416q-5 0 -5 8t5 8h8q30 0 47 1t42.5 7t38 21t12.5 39v818q0 17 -8 27t-23 5l-109 -35q-3 -1 -6 1t-2.5 5.5t5.5 5.5l228 91q15 6 25 -2t10 -23v-893zM758 578v-495q0 -24 12.5 -39t38 -21t42.5 -7t47 -1
h8q5 0 5 -8t-5 -8h-416q-5 0 -5 8t5 8h8q30 0 47 1t42.5 7t38 21t12.5 39v883q0 4 0.5 45t0 60t-2.5 63t-6.5 69.5t-13 63t-20.5 60.5t-31 44.5t-43 32.5q-36 12 -59 10t-44.5 -23.5t-35.5 -48.5t-33 -65t-36.5 -72.5t-45 -71.5t-59.5 -62l-88 90q24 36 41 60t47 60.5
t54 59.5t58 47.5t65 34.5t68.5 10.5t74.5 -15.5q65 -27 111.5 -76t71.5 -111.5t35.5 -127.5t10.5 -138v-345q0 -1 7.5 11.5t21 35.5t32.5 52t43.5 62t51 65t58 61t63 51t66.5 34.5t68 10.5q99 -5 163 -115q-67 -18 -127.5 -59t-94.5 -97v28q45 62 118 103q-23 81 -80 97
q-50 13 -112.5 -25t-117 -104t-95.5 -128.5t-65 -111.5q53 29 100 35t83.5 -5t71.5 -43.5t60 -69.5t54.5 -93.5t50 -104.5t50.5 -115t52 -112q22 -44 46 -56t71 -12q5 0 5 -8t-5 -8h-350q-5 0 -5 8t5 8q38 0 63 5q35 7 41.5 29t-11.5 70q-4 12 -15 43q-12 35 -19.5 55.5
l-22.5 61.5t-27.5 66.5t-30.5 64t-35 62t-38 51.5t-43 42t-46 24.5t-51 7t-54 -18.5z" />
    <glyph glyph-name="il.liga" unicode="il" horiz-adv-x="921" 
d="M298 83q0 -24 12.5 -39t38 -21t42.5 -7t47 -1h8q5 0 5 -8t-5 -8h-416q-5 0 -5 8t5 8h8q30 0 47 1t42.5 7t38 21t12.5 39v818q0 17 -8 27t-23 5l-109 -35q-3 -1 -6 1t-2.5 5.5t5.5 5.5l228 91q15 6 25 -2t10 -23v-893zM758 965v-882q0 -24 12.5 -39t38 -21t42.5 -7t47 -1
h8q5 0 5 -8t-5 -8h-416q-5 0 -5 8t5 8h8q30 0 47 1t42.5 7t38 21t12.5 39v883q0 4 0.5 45t0 60t-2.5 63t-6.5 69.5t-13 63t-20.5 60.5t-31 44.5t-43 32.5q-36 12 -59 10t-44.5 -23.5t-35.5 -48.5t-33 -65t-36.5 -72.5t-45 -71.5t-59.5 -62l-88 90q24 36 41 60t47 60.5
t54 59.5t58 47.5t65 34.5t68.5 10.5t74.5 -15.5q65 -27 111.5 -76t71.5 -111.5t35.5 -127.5t10.5 -138z" />
    <glyph glyph-name="jl.liga" unicode="jl" horiz-adv-x="897" 
d="M166 901q0 17 -8.5 27t-23.5 5l-109 -35q-3 -1 -5.5 1t-2 5.5t5.5 5.5l227 91q15 6 25 -2t10 -23v-1067q0 -139 -59 -236.5t-156 -102.5q-115 -7 -231 141q-7 9 -1 17q5 5 10 -1q112 -137 201 -114q60 16 88.5 104.5t28.5 189.5v994zM732 965v-882q0 -24 12.5 -39t38 -21
t42.5 -7t47 -1h8q5 0 5 -8t-5 -8h-415q-5 0 -5 8t5 8h8q30 0 47 1t42.5 7t38 21t12.5 39v883q0 6 0.5 39.5t0 51.5t-1.5 55t-4.5 61t-8.5 58t-14 57.5t-21 48t-29.5 41.5t-38.5 26q-36 12 -59 10t-44.5 -23.5t-35.5 -48.5t-33 -65t-36.5 -72.5t-45 -71.5t-59.5 -62l-87 90
q24 36 41 60t47 60.5t54 59.5t58 47.5t65 34.5t68.5 10.5t74.5 -15.5q230 -97 228 -453z" />
    <glyph glyph-name="ry.liga" unicode="ry" horiz-adv-x="1433" 
d="M610 -255q66 5 118 37.5t116 110.5q-50 17 -128.5 30.5t-140.5 4.5q-82 -13 -101.5 -60t23 -87.5t113.5 -35.5zM1093 345q-38 -105 -60.5 -161.5t-66.5 -138t-95 -144.5q141 -41 262 -90l-8 -78q-154 119 -265 155q-137 -172 -278 -181q-99 -7 -148 45.5t-20.5 113.5
t120.5 76q64 10 153.5 -2.5t166.5 -34.5q79 102 130 208l-262 782q-56 167 -183 71q-18 -13 -35.5 -31t-35 -41t-32 -44t-31 -49.5t-27.5 -48t-25.5 -49.5t-21 -43t-19.5 -40t-14 -30v-504q0 -16 5.5 -28.5t18.5 -19.5t23.5 -11t30.5 -6t29.5 -2h30.5h5.5h4.5q5 0 5 -8
t-5 -8h-416q-5 0 -5 8t5 8h10q30 0 46.5 1t41.5 6.5t37.5 20.5t12.5 39v819q0 17 -8 26.5t-23 4.5l-109 -35q-3 -1 -6 1t-2.5 5.5t5.5 5.5l228 92q15 6 25 -2t10 -23v-361q5 9 28 55t33.5 66.5t34.5 63t41.5 68t42 56.5t48.5 52q51 45 112.5 57.5t116.5 -17.5t78 -101
l213 -658l245 673q7 21 -0.5 34t-29.5 17.5t-36 5.5t-38 1h-7q-5 0 -5 7.5t5 7.5h255q5 0 5 -7.5t-5 -7.5h-15.5h-17t-14.5 -0.5t-15 -1.5t-13 -3t-13.5 -5t-11 -7.5t-11 -10t-8.5 -13t-8 -16.5z" />
    <glyph glyph-name="tt.liga" unicode="tt" horiz-adv-x="993" 
d="M248 981v-645q0 -101 28 -189t88 -104q89 -24 199 110q-33 81 -33 186v642h-282zM128 339v642h-99l6 22q61 0 96.5 32t40.5 74t-7 83t-37 60h172q1 -45 -15 -84t-40 -64t-48.5 -44.5t-41.5 -34t-17 -22.5h266q69 0 117.5 46.5t64 108.5t3 125.5t-53.5 95.5h172
q16 -89 4 -148t-42 -100.5t-61.5 -64.5t-55.5 -39t-23 -24h378l-6 -22h-252v-645q0 -100 28.5 -188.5t88.5 -104.5q90 -23 201 113q7 9 11 -2q3 -8 -2 -14q-116 -148 -231 -141q-56 3 -100.5 39.5t-73.5 97.5q-115 -144 -227 -137q-97 5 -156.5 103t-59.5 237z" />
    <glyph glyph-name="ri.liga" unicode="ri" horiz-adv-x="1028" 
d="M863 82q0 -16 5.5 -28.5t18.5 -19.5t23.5 -11t30.5 -6t29.5 -2h30.5h10q5 0 5 -8t-5 -8h-415q-5 0 -5 8t5 8h10q30 0 46.5 1t41.5 6.5t37.5 20.5t12.5 39v690q0 17 -8 27t-23 5l-100 -32v14l215 86q15 6 25 -2t10 -23v-765zM263 1000q15 6 24.5 -1.5t9.5 -22.5v-361
q24 47 45 85t54.5 92.5t66.5 95t71.5 78.5t80.5 57t83 17q102 -5 160 -122l-245 -98v11l145 69q-10 36 -31.5 62.5t-49.5 34.5q-35 10 -75.5 -8.5t-78.5 -58t-72.5 -84.5t-66 -99.5t-51 -91t-35.5 -69.5v-504q0 -16 5.5 -28.5t18.5 -19.5t23.5 -11t30.5 -6t29.5 -2h30.5h5.5
h4.5q5 0 5 -8t-5 -8h-416q-5 0 -5 8t5 8h10q30 0 46.5 1t41.5 6.5t37.5 20.5t12.5 39v819q0 17 -8 26.5t-23 4.5l-109 -35q-3 -1 -6 1t-2.5 5.5t5.5 5.5z" />
    <glyph glyph-name="sb.liga" unicode="sb" horiz-adv-x="1697" 
d="M1002 818v-439q142 -281 275 -287q95 -5 162 130q68 138 72 332q4 208 -73 324q-53 77 -132 90q-68 10 -153 -26t-151 -124zM883 82v1023q0 219 -105 269q-74 35 -169 -25q-86 -55 -128 -149q-54 -124 13 -223q34 -51 97 -87q-156 -41 -226 -157v28q44 60 118 102
q-48 99 -137 112q-50 7 -96.5 -8.5t-73 -48.5t-33 -74t23 -89t93.5 -89q31 -19 87 -50.5t94.5 -54t86 -57.5t77 -68t50 -79.5t20.5 -98.5q1 -105 -85 -181.5t-227 -77.5q-189 2 -268 124q158 35 233 146l-1 -27q-48 -59 -123 -97q23 -54 63.5 -88.5t94.5 -35.5
q109 1 159 66.5t26 155.5q-12 46 -39.5 84t-68 67.5t-77.5 51t-88 49t-81 46.5q-62 40 -99 91t-47 101.5t5.5 99.5t53 86.5t101.5 60.5t145 23q55 0 109 -19q-72 119 -7 259q52 110 159 179q116 74 217 47q122 -32 159 -207q13 -65 13 -147v-284q69 91 154 133.5t155 39.5
q175 -8 260 -186q73 -156 54 -377q-17 -202 -101 -330q-87 -134 -205 -108q-156 34 -317 347v-283q0 -28 -20 -48t-48 -20h-175q-5 0 -5 8t5 8h10q22 0 33 0.5t29.5 3.5t27.5 10t16.5 20.5t7.5 32.5z" />
    <glyph glyph-name="sh.liga" unicode="sh" horiz-adv-x="1757" 
d="M1002 84q0 -16 5.5 -28.5t18.5 -19.5t23.5 -11t30.5 -6t29.5 -2h30.5h10q5 0 5 -8t-5 -8h-415q-5 0 -5 8t5 8h10q30 0 46.5 1t41.5 6.5t37.5 20.5t12.5 39v1023q0 219 -105 269q-74 35 -169 -25q-86 -55 -128 -149q-54 -124 13 -223q34 -51 97 -87q-156 -41 -226 -157v28
q44 60 118 102q-48 99 -137 112q-50 7 -96.5 -8.5t-73 -48.5t-33 -74t23 -89t93.5 -89q31 -19 87 -50.5t94.5 -54t86 -57.5t77 -68t50 -79.5t20.5 -98.5q1 -105 -85 -181.5t-227 -77.5q-189 2 -268 125q159 35 233 145l-1 -27q-48 -59 -123 -97q23 -54 63.5 -88.5
t94.5 -35.5q109 1 159 66.5t26 155.5q-12 46 -39.5 84t-68 67.5t-77.5 51t-88 49t-81 46.5q-62 40 -99 91t-47 101.5t5.5 99.5t53 86.5t101.5 60.5t145 23q55 0 109 -19q-72 119 -7 259q52 110 159 179q116 74 217 47q122 -32 159 -207q13 -65 13 -147v-500q30 58 53 100
t64 102t78 97.5t86.5 64.5t98.5 24q97 -5 156 -103t59 -237v-581q0 -16 5.5 -28.5t18.5 -19.5t23.5 -11t30.5 -6t29.5 -2h30.5h10q5 0 5 -8t-5 -8h-415q-5 0 -5 8t5 8h10q30 0 46.5 1t41.5 6.5t37.5 20.5t12.5 39v583q0 101 -28.5 189.5t-88.5 104.5q-42 11 -90 -15
t-86.5 -68.5t-78.5 -103.5t-62 -103t-42 -83v-504z" />
    <glyph glyph-name="sk.liga" unicode="sk" horiz-adv-x="1654" 
d="M1002 84q0 -16 5.5 -28.5t18.5 -19.5t23.5 -11t30.5 -6t29.5 -2h30.5h10q5 0 5 -8t-5 -8h-415q-5 0 -5 8t5 8h10q30 0 46.5 1t41.5 6.5t37.5 20.5t12.5 39v1023q0 219 -105 269q-74 35 -169 -25q-86 -55 -128 -149q-54 -124 13 -223q34 -51 97 -87q-156 -41 -226 -157v28
q44 60 118 102q-48 99 -137 112q-50 7 -96.5 -8.5t-73 -48.5t-33 -74t23 -89t93.5 -89q31 -19 87 -50.5t94.5 -54t86 -57.5t77 -68t50 -79.5t20.5 -98.5q1 -105 -85 -181.5t-227 -77.5q-189 2 -268 125q159 35 233 145l-1 -27q-48 -59 -123 -97q23 -54 63.5 -88.5
t94.5 -35.5q109 1 159 66.5t26 155.5q-12 46 -39.5 84t-68 67.5t-77.5 51t-88 49t-81 46.5q-62 40 -99 91t-47 101.5t5.5 99.5t53 86.5t101.5 60.5t145 23q55 0 109 -19q-72 119 -7 259q52 110 159 179q116 74 217 47q122 -32 159 -207q13 -65 13 -147v-495q0 -1 7.5 11.5
t21 35.5t32.5 52t43.5 62t51 65t58 61t63 51t66.5 34.5t68 10.5q99 -5 163 -115q-67 -18 -127.5 -59t-94.5 -97v28q43 59 119 102q-10 36 -31.5 62.5t-49.5 34.5q-51 14 -113.5 -24.5t-117 -105t-95.5 -128.5t-64 -110q53 29 100 35t83 -5t71.5 -44t60.5 -69.5t54.5 -93.5
t50 -104.5t50.5 -115t52 -112.5q22 -44 46.5 -55.5t71.5 -11.5q5 0 5 -8t-5 -8h-351q-5 0 -5 8t5 8q38 0 63 5q35 7 41.5 29t-11.5 70q-4 12 -15 42q-12 36 -19.5 56t-22.5 61t-27 67t-30.5 64t-35.5 61.5t-38 51.5t-43 42t-46 24.5t-51 7t-54 -18.5v-495z" />
    <glyph glyph-name="sl.liga" unicode="sl" horiz-adv-x="1167" 
d="M1002 1117v-1033q0 -16 5.5 -28.5t18.5 -19.5t23.5 -11t30.5 -6t29.5 -2h30.5h10q5 0 5 -8t-5 -8h-415q-5 0 -5 8t5 8h10q30 0 46.5 1t41.5 6.5t37.5 20.5t12.5 39v1023q0 219 -105 269q-74 35 -169 -25q-86 -55 -128 -149q-54 -124 13 -223q34 -51 97 -87
q-156 -41 -226 -157v28q44 60 118 102q-48 99 -137 112q-50 7 -96.5 -8.5t-73 -48.5t-33 -74t23 -89t93.5 -89q31 -19 87 -50.5t94.5 -54t86 -57.5t77 -68t50 -79.5t20.5 -98.5q1 -105 -85 -181.5t-227 -77.5q-189 2 -268 125q159 35 233 145l-1 -27q-48 -59 -123 -97
q23 -54 63.5 -88.5t94.5 -35.5q109 1 159 66.5t26 155.5q-12 46 -39.5 84t-68 67.5t-77.5 51t-88 49t-81 46.5q-62 40 -99 91t-47 101.5t5.5 99.5t53 86.5t101.5 60.5t145 23q55 0 109 -19q-72 119 -7 259q52 110 159 179q116 74 217 47q122 -32 159 -207q13 -65 13 -147z
" />
    <glyph glyph-name="si.liga" unicode="si" horiz-adv-x="1157" 
d="M992 84q0 -24 12.5 -39t38 -20.5t42 -6.5t46.5 -1h5.5h4.5q5 0 5 -8t-5 -8h-416q-5 0 -5 8t5 8h10q30 0 46.5 1t41.5 6.5t37.5 20.5t12.5 39v819q0 17 -8 26.5t-23 4.5l-109 -35q-3 -1 -6 1t-2.5 5.5t5.5 5.5l228 91q15 6 24.5 -1.5t9.5 -22.5v-894zM193 543
q-62 40 -99 91t-47 101.5t5.5 99.5t53 86.5t101.5 60.5t145 23q55 0 109 -19q-34 56 -37 119.5t22.5 119t68.5 102t103 74t124 28.5q72 2 135.5 -27.5t97.5 -79.5q50 -81 35.5 -148.5t-67 -111.5t-113.5 -45q66 29 68 109q3 80 -57 145q-77 85 -195 71q-20 -2 -40 -7
q-52 -13 -91 -55.5t-55 -94t-8.5 -106.5t42.5 -92q10 -10 34.5 -31t40.5 -38q8 -8 22 -26q-156 -41 -226 -157v28q44 60 118 102q-48 99 -137 112q-50 7 -96.5 -8.5t-72.5 -48.5t-33 -74t23 -89t94 -89q31 -19 86.5 -50.5t94.5 -53.5t86.5 -57.5t76.5 -68.5t49.5 -79.5
t20.5 -98.5q1 -105 -85 -181.5t-227 -77.5q-189 2 -268 125q159 35 233 145l-1 -27q-48 -59 -123 -97q23 -54 63.5 -88.5t94.5 -35.5q109 1 159 66.5t26 155.5q-12 46 -39.5 84t-68 67.5t-77.5 51t-88 49t-81 46.5z" />
    <glyph glyph-name="sj.liga" unicode="sj" horiz-adv-x="1097" 
d="M873 897q0 17 -8 26.5t-23 4.5l-109 -35q-3 -1 -6 1t-2.5 5.5t5.5 5.5l228 91q15 6 24.5 -1.5t9.5 -22.5v-1067q0 -139 -59 -237t-156 -103q-114 -7 -230 141q-7 9 -1 17q4 5 9 -1q111 -137 202 -113q60 16 88 104t28 189v995zM193 537q-62 40 -99 91t-47 101.5t5.5 99.5
t53 86.5t101.5 60.5t145 23q55 0 109 -19q-34 56 -37 119.5t22.5 119t68.5 102t103 74t124 28.5q72 2 135.5 -27.5t97.5 -79.5q50 -81 35.5 -148.5t-67 -111.5t-113.5 -45q66 29 68 109q3 80 -57 145q-77 85 -195 71q-20 -2 -40 -7q-52 -13 -91 -55.5t-55 -94t-8.5 -106.5
t42.5 -92q10 -10 34.5 -31t40.5 -38q8 -8 22 -26q-156 -41 -226 -157v28q44 60 118 102q-48 99 -137 112q-50 7 -96.5 -8.5t-72.5 -48.5t-33 -74t23 -89t94 -89q31 -19 86.5 -50.5t94.5 -53.5t86.5 -57.5t76.5 -68.5t49.5 -79.5t20.5 -98.5q1 -105 -85 -181.5t-227 -77.5
q-189 2 -268 124q158 35 233 146l-1 -28q-47 -57 -123 -96q23 -54 63.5 -88.5t94.5 -35.5q109 1 159 66t26 155q-12 46 -39.5 84.5t-68 68t-77.5 51t-88.5 49t-80.5 46.5z" />
    <glyph glyph-name="ss.liga" unicode="ss" horiz-adv-x="1247" 
d="M698 229q3 -38 26.5 -84.5t69 -85t98.5 -38.5q109 1 158.5 66.5t25.5 155.5q-12 46 -39.5 84t-68 67.5t-77.5 51t-88 49t-81 46.5q-46 30 -81 67.5t-53 71.5t-26.5 55.5t-11.5 35.5q-14 78 -62 136t-117 68q-50 7 -96.5 -8.5t-72.5 -48.5t-33 -74t23 -89t94 -89
q28 -18 86 -50.5t98.5 -55.5t90.5 -61.5t79.5 -75t47 -87.5t10.5 -107zM613 895q81 108 268 108q66 0 130.5 -27t109.5 -86q-157 -42 -227 -157v28q44 60 118 102q-48 99 -137 112q-50 7 -96.5 -8.5t-72.5 -48.5t-33 -74t23 -89t94 -89q31 -19 86.5 -50.5t94.5 -53.5
t86.5 -57.5t76.5 -68.5t49.5 -79.5t20.5 -98.5q1 -105 -85 -181.5t-227 -77.5q-69 0 -140 22.5t-125 65.5q-90 -88 -239 -88q-116 0 -208.5 55.5t-132.5 174.5h147q2 -27 17 -61.5t38.5 -68t60.5 -56t77 -22.5q102 1 156.5 63.5t28.5 158.5q-12 46 -39.5 84t-68 67.5
t-77.5 51t-88 49t-81 46.5q-62 40 -99 91t-47 101.5t5.5 99.5t53 86.5t101.5 60.5t145 23q155 0 236 -108z" />
    <glyph glyph-name="sr.liga" unicode="sr" horiz-adv-x="1605" 
d="M822 897q29 24 65 43.5t62.5 30.5t77.5 31q15 5 25 -2t10 -22v-361q30 59 53 100t64 101.5t78 98t86 64.5t98 24q100 -5 164 -116q-67 -18 -127.5 -59t-94.5 -96v28q44 60 118 102q-23 81 -80 97q-42 11 -90 -15t-86.5 -68.5t-78.5 -103.5t-62 -103t-42 -83v-504
q0 -16 5.5 -28.5t18.5 -19.5t23.5 -11t30.5 -6t29.5 -2h30.5h10q5 0 5 -8t-5 -8h-416q-5 0 -5 8t5 8h10q30 0 46.5 1t41.5 6.5t37.5 20.5t12.5 39v749q0 43 -18.5 61.5t-43.5 14t-48 -23.5q-64 -52 -126 -134t-135 -199t-103 -159q-42 -58 -70.5 -95t-76.5 -82.5t-94 -68.5
q23 -54 63.5 -88.5t94.5 -35.5q67 0 115 30.5t66.5 75.5t10.5 98.5t-45 97.5q-1 1 -9.5 10t-10.5 13.5t-7.5 16t-4 23t4.5 29t14 41t28 51.5q72 -55 111 -113t40 -136q1 -105 -85 -181.5t-228 -77.5q-217 1 -342 164q55 -27 114.5 -18.5t114.5 48.5q34 25 69 62.5t55.5 65
t58.5 79.5q-41 31 -126 77t-114 64q-62 40 -99 91t-47 101.5t5.5 99.5t53 86.5t101.5 60.5t145 23q66 0 132.5 -28t107.5 -85q-156 -41 -226 -157v28q44 60 118 102q-48 99 -137 112q-50 7 -96.5 -8.5t-73 -48.5t-33 -74t23 -89t93.5 -89q30 -19 118.5 -68.5t133.5 -80.5
q13 20 61 96t71 109.5t67 85.5t88 87z" />
    <glyph glyph-name="cb.liga" unicode="cb" horiz-adv-x="1775" 
d="M1080 819v-439q142 -281 275 -287q95 -5 162 130q68 138 72 332q4 208 -73 324q-53 77 -132 90q-68 10 -153 -26t-151 -124zM960 1106q0 201 -100 260q-71 42 -158 -2q-78 -41 -114 -124q-51 -117 24 -233l5 -7q15 -23 52.5 -56t54.5 -59q-53 -24 -111.5 -79.5
t-83.5 -107.5v31q39 62 113 122q-25 57 -52.5 90t-68.5 43q-116 28 -208 -114q-86 -133 -111 -342q-26 -220 36 -364q59 -136 179 -144q66 -4 125.5 48t103.5 145h114q-11 -34 -34 -68t-60.5 -68t-96.5 -55.5t-129 -21.5q-107 0 -195 64.5t-138 177t-50 249.5
q0 135 54 252.5t155.5 190t226.5 70.5q47 -2 84 -12q-70 140 -1 283q51 106 151 163q109 62 203 24q118 -49 144 -243q6 -48 6 -103v-284q69 91 154 133.5t155 39.5q175 -8 260 -186q73 -156 54 -377q-17 -202 -101 -330q-87 -134 -205 -108q-156 34 -317 347v-283
q0 -28 -20 -48t-48 -20h-175q-5 0 -5 8t5 8h10q22 0 33 0.5t29 3.5t27 10t16.5 20.5t7.5 32.5v1023z" />
    <glyph glyph-name="ch.liga" unicode="ch" horiz-adv-x="1835" 
d="M1080 616q30 59 53 100t64 101.5t78 98t86 64.5t98 24q97 -5 156.5 -103t59.5 -237v-581q0 -16 5.5 -28.5t18.5 -19.5t23.5 -11t30.5 -6t29.5 -2h30.5h10q5 0 5 -8t-5 -8h-416q-5 0 -5 8t5 8h10q30 0 46.5 1t41.5 6.5t37.5 20.5t12.5 39v584q0 101 -28 189t-88 104
q-42 11 -90 -15t-86.5 -68.5t-78.5 -103.5t-62 -103t-42 -83v-504q0 -16 5.5 -28.5t18.5 -19.5t23.5 -11t30.5 -6t29.5 -2h30.5h10q5 0 5 -8t-5 -8h-416q-5 0 -5 8t5 8h10q30 0 46.5 1t41.5 6.5t37.5 20.5t12.5 39v1023q0 201 -100 260q-71 42 -158 -2q-78 -41 -114 -124
q-51 -117 24 -233l5 -7q15 -23 52.5 -56t54.5 -59q-53 -24 -111.5 -79.5t-83.5 -107.5v31q39 62 113 122q-25 57 -52.5 90t-68.5 43q-116 28 -208 -114q-86 -133 -111 -342q-26 -220 36 -364q59 -136 179 -144q66 -4 125.5 48t103.5 145h114q-11 -34 -34 -68t-60.5 -68
t-96.5 -55.5t-129 -21.5q-107 0 -195 64.5t-138 177t-50 249.5q0 135 54 252.5t155.5 190t226.5 70.5q47 -2 84 -12q-70 140 -1 283q51 106 151 163q109 62 203 24q118 -49 144 -243q6 -48 6 -103v-500z" />
    <glyph glyph-name="ci.liga" unicode="ci" horiz-adv-x="1269" 
d="M1105 83q0 -16 5.5 -28.5t18.5 -19.5t23.5 -11t30.5 -6t29.5 -2h30.5h10q5 0 5 -8t-5 -8h-416q-5 0 -5 8t5 8h10q30 0 46.5 1t41.5 6.5t37.5 20.5t12.5 39v819q0 17 -8 26.5t-23 4.5l-109 -35q-3 -1 -6 1t-2.5 5.5t5.5 5.5l228 92q15 6 25 -2t10 -23v-894zM57 491
q0 80 24 162t69 152.5t108 122t141 70t169 -3.5q-31 55 -32 117.5t25 117t69 99.5t102 72t122 28q72 2 135.5 -27.5t97.5 -79.5q50 -81 35.5 -148.5t-67 -111.5t-113.5 -45q66 29 68 109q3 80 -57 145q-77 85 -195 71q-20 -2 -40 -7q-44 -12 -79.5 -45t-53.5 -74.5t-23 -89
t12 -87.5q13 -33 38.5 -57t58.5 -48t53 -48q-53 -24 -111.5 -79.5t-83.5 -107.5v31q39 62 113 122q-25 57 -52.5 90.5t-68.5 43.5q-116 28 -208 -113q-86 -134 -111 -344q-26 -221 37 -365q58 -135 178 -143q66 -4 125.5 48t103.5 145h114q-11 -34 -34 -68t-60.5 -68
t-96.5 -55.5t-129 -21.5q-107 0 -195 64.5t-138 177t-50 249.5z" />
    <glyph glyph-name="ck.liga" unicode="ck" horiz-adv-x="1734" 
d="M1080 621q0 -1 7.5 11.5t21 35.5t32.5 52t43 62t51 65t58 61t62.5 51t66.5 34.5t68 10.5q100 -5 164 -115q-67 -18 -127.5 -59t-94.5 -97v28q44 60 118 102q-10 36 -31.5 62.5t-49.5 34.5q-50 13 -112.5 -25t-117 -104t-95.5 -128t-65 -111q53 29 100 35t83.5 -5.5
t71.5 -44t60 -69t54.5 -93.5t50 -105t50.5 -115t52 -112q22 -44 46.5 -55.5t71.5 -11.5q5 0 5 -8t-5 -8h-350q-5 0 -5 8t5 8q38 0 63 5q35 7 41 29t-12 70q-4 12 -15 44q-78 224 -143 320q-106 156 -223 94v-495q0 -16 5.5 -28.5t18.5 -19.5t23.5 -11t30.5 -6t29.5 -2h30.5
h10q5 0 5 -8t-5 -8h-416q-5 0 -5 8t5 8h10q30 0 46.5 1t41.5 6.5t37.5 20.5t12.5 39v1023q0 201 -100 260q-71 42 -158 -2q-78 -41 -114 -124q-51 -117 24 -233l5 -7q15 -23 52.5 -56t54.5 -59q-53 -24 -111.5 -79.5t-83.5 -107.5v31q39 62 113 122q-25 57 -52.5 90
t-68.5 43q-116 28 -208 -114q-86 -133 -111 -342q-26 -220 36 -364q59 -136 179 -144q66 -4 125.5 48t103.5 145h114q-11 -34 -34 -68t-60.5 -68t-96.5 -55.5t-129 -21.5q-107 0 -195 64.5t-138 177t-50 249.5q0 135 54 252.5t155.5 190t226.5 70.5q47 -2 84 -12
q-70 140 -1 283q51 106 151 163q109 62 203 24q118 -49 144 -243q6 -48 6 -103v-495z" />
    <glyph glyph-name="cl.liga" unicode="cl" horiz-adv-x="1245" 
d="M960 1106q0 201 -100 260q-71 42 -158 -2q-78 -41 -114 -124q-51 -117 24 -233l5 -7q15 -23 52.5 -56t54.5 -59q-53 -24 -111.5 -79.5t-83.5 -107.5v31q39 62 113 122q-25 57 -52.5 90t-68.5 43q-116 28 -208 -114q-86 -133 -111 -342q-26 -220 36 -364q59 -136 179 -144
q66 -4 125.5 48t103.5 145h114q-11 -34 -34 -68t-60.5 -68t-96.5 -55.5t-129 -21.5q-107 0 -195 64.5t-138 177t-50 249.5q0 135 54 252.5t155.5 190t226.5 70.5q47 -2 84 -12q-70 140 -1 283q51 106 151 163q109 62 203 24q118 -49 144 -243q6 -48 6 -103v-1033
q0 -16 5.5 -28.5t18.5 -19.5t23.5 -11t30.5 -6t29.5 -2h30.5h10q5 0 5 -8t-5 -8h-416q-5 0 -5 8t5 8h10q30 0 46.5 1t41.5 6.5t37.5 20.5t12.5 39v1023z" />
    <glyph glyph-name="ra.liga" unicode="ra" horiz-adv-x="1662" 
d="M1127 970q54 -4 101 -25t70 -57q27 -38 19.5 -93.5t-52.5 -106.5q-40 -45 -102.5 -84t-112.5 -62t-97.5 -65.5t-66.5 -98.5q-38 -112 17.5 -221t171.5 -124q142 -18 260 86q44 38 53 63.5t9 85.5v13v461q0 117 -79.5 177t-190.5 51zM261 1001q15 6 24.5 -1.5t9.5 -22.5
v-361q30 58 53 100t64 102t78 97.5t86.5 64.5t98.5 24q91 -5 150 -93q174 96 367 93q153 -2 238.5 -103t85.5 -259v-541q0 -85 128 -85q5 0 5 -8t-5 -8h-179q-28 0 -48 20t-20 48v18q0 35 -7 45.5t-27 -6.5q-122 -125 -293 -125q-90 0 -162 28t-113.5 73.5t-62 101t-15 113
t33.5 106.5q27 47 73.5 78.5t99.5 50t107.5 36t112.5 48t100 73.5q65 70 55 125t-67 88.5t-133 35.5q-116 3 -236 -85q-117 -84 -209 -202v128q41 38 81 65q-23 81 -80 97q-36 10 -74.5 -5.5t-74.5 -51t-68 -75.5t-61.5 -90t-47.5 -84t-34 -67v-504q0 -24 12.5 -39t38 -20.5
t42 -6.5t46.5 -1h5.5h4.5q5 0 5 -8t-5 -8h-416q-5 0 -5 8t5 8h10q30 0 46.5 1t41.5 6.5t37.5 20.5t12.5 39v819q0 17 -8 26.5t-23 4.5l-109 -35q-3 -1 -6 1t-2.5 5.5t5.5 5.5z" />
    <glyph glyph-name="ur.liga" unicode="ur" horiz-adv-x="1867" 
d="M756 417v485q0 17 -8 26.5t-24 4.5l-109 -35q-3 -1 -5.5 1t-2 5.5t5.5 5.5l227 92q15 6 25 -2t10 -23v-208q0 -43 -41.5 -160.5t-77.5 -191.5zM756 83v305q-30 -58 -53 -100t-64 -102t-78 -97.5t-86.5 -64.5t-98.5 -24q-97 5 -156.5 103t-59.5 237v562q0 17 -8 26.5
t-23 4.5l-109 -35q-3 -1 -5.5 1t-2 5.5t5.5 5.5l227 92q15 6 25 -2t10 -23v-640q0 -101 28 -189t88 -104q41 -11 86.5 12.5t83.5 64t76.5 97.5t62 100t44.5 86q169 359 335 492q42 34 86 55.5t118 49.5q15 5 25 -2t10 -22v-361q30 58 53 100t64 102t78 97.5t86.5 64.5
t98.5 24q99 -5 163 -115q-67 -18 -127 -59t-94 -97v28q44 60 118 102q-10 36 -31.5 62.5t-49.5 34.5q-42 11 -90 -15t-86.5 -68.5t-78.5 -103.5t-62 -103t-42 -83v-504q0 -16 5.5 -28.5t18.5 -19.5t23.5 -11t30.5 -6t29.5 -2h30.5h10q5 0 5 -8t-5 -8h-415q-5 0 -5 8t5 8h10
q30 0 46.5 1t41.5 6.5t37.5 20.5t12.5 39v749q0 43 -19 61.5t-44 14t-48 -23.5q-108 -88 -218 -273v-528q0 -16 5.5 -28.5t18.5 -19.5t23.5 -11t30.5 -6t29.5 -2h30.5h10q5 0 5 -8t-5 -8h-415q-5 0 -5 8t5 8h10q30 0 46.5 1t41.5 6.5t37.5 20.5t12.5 39z" />
    <glyph glyph-name="oo.liga" unicode="oo" horiz-adv-x="1302" 
d="M691 152q31 -60 71 -95t83 -38q64 -4 124.5 58.5t101 171.5t49.5 236q13 192 -51.5 338.5t-162.5 153.5q-52 4 -103.5 -37.5t-92.5 -116.5q91 -146 86.5 -338.5t-105.5 -332.5zM641 298q61 206 20 406q-63 -203 -20 -406zM59 502q0 136 51 252t136 183t183 67
q123 0 222 -104q101 104 223 104q98 0 182.5 -67t135 -183t50.5 -252t-50.5 -252t-135 -183t-182.5 -67q-122 0 -223 104q-99 -104 -222 -104q-98 0 -183 67t-136 183t-51 252zM611 851q-63 120 -150 126q-64 4 -125.5 -56t-103 -168t-50.5 -234t19 -240.5t81.5 -185
t117.5 -74.5q53 -4 103.5 38.5t90.5 120.5q-93 146 -89 339t106 334z" />
    <glyph glyph-name="ll.liga" unicode="ll" horiz-adv-x="858" 
d="M283 82q0 -24 12 -38.5t36.5 -20.5t41.5 -7t46 -1h7h6q85 0 113 15q30 17 30 52v1249q0 17 -8 26.5t-24 4.5l-109 -35q-3 -1 -5.5 1.5t-2 6t5.5 5.5l227 91q15 6 25 -2t10 -23v-1324q0 -16 5.5 -28.5t18.5 -19.5t23.5 -11t30.5 -6t29.5 -2h30.5h10q5 0 5 -8t-5 -8h-826
q-5 0 -5 8t5 8h10q30 0 46.5 1t41.5 6.5t37.5 20.5t12.5 39v1103q0 17 -8 26.5t-24 4.5l-109 -35q-3 -1 -5.5 1.5t-2 6t5.5 5.5l227 91q15 6 25 -2t10 -23v-1178z" />
    <glyph glyph-name="ff.liga" unicode="ff" horiz-adv-x="915" 
d="M575 1003q0 176 34 262q-5 88 -66 130q-60 40 -125 6q-89 -47 -117 -204q-10 -54 -11 -117q0 -4 -0.5 -39t-0.5 -38h286zM289 82q0 -19 9.5 -32.5t21.5 -20t34 -10t35.5 -4t36.5 -0.5h12q23 0 36.5 0.5t35 4t34 10.5t22 20.5t9.5 32.5v898h-286v-899zM695 83
q0 -24 12.5 -39t38 -21t42.5 -7t47 -1h8q5 0 5 -8t-5 -8h-821q-5 0 -5 8t5 8h8q30 0 47 1t42.5 7t38 21t12.5 39v898h-115l11 22h104q0 53 2 92t10 86.5t21.5 81.5t37.5 68t57.5 55t82.5 34t111 13q102 0 173 -79q77 79 232 79q87 0 150 -56t88 -144q-118 -56 -189 -183v28
q25 39 45 63q50 120 1 206q-35 62 -100 69q-75 7 -130 -70q-64 -91 -67 -266v-77h220l-12 -22h-208v-898z" />
    <glyph glyph-name="fi.liga" unicode="fi" horiz-adv-x="894" 
d="M287 982v-899q0 -16 5.5 -28.5t18.5 -19.5t23.5 -11t30.5 -6t29.5 -2h30.5h5.5h4.5q5 0 5 -8t-5 -8h-415q-5 0 -5 8t5 8h10q30 0 46.5 1t41.5 6.5t37.5 20.5t12.5 39v899h-115l11 22h104q0 53 2 92t10 86.5t21.5 81.5t37.5 68t57.5 55t82.5 34t111 13q87 0 150 -56.5
t88 -144.5q-118 -56 -189 -183v29q25 39 45 63q50 119 1 205q-35 63 -100 70q-75 7 -130 -70q-65 -91 -68 -266v-77h406q35 0 35 -27v-894q0 -16 5.5 -28.5t18.5 -19.5t23.5 -11t30.5 -6t29.5 -2h30.5h10q5 0 5 -8t-5 -8h-415q-5 0 -5 8t5 8h10q30 0 46.5 1t41.5 6.5
t37.5 20.5t12.5 39q0 139 -0.5 435.5t-0.5 437.5q0 10 -8 18t-18 8h-295z" />
    <glyph glyph-name="fl.liga" unicode="fl" horiz-adv-x="894" 
d="M730 1217v-1134q0 -24 12.5 -39t38 -21t42.5 -7t47 -1h8q5 0 5 -8t-5 -8h-415q-5 0 -5 8t5 8h8q30 0 47 1t42.5 7t38 21t12.5 39v1041q53 60 119 93zM289 83q0 -24 12.5 -39t38 -21t42.5 -7t47 -1h8q5 0 5 -8t-5 -8h-415q-5 0 -5 8t5 8h8q30 0 47 1t42.5 7t38 21t12.5 39
v898h-115l11 22h104q0 53 2 92t10 86.5t21.5 81.5t37.5 68t57.5 55t82.5 34t111 13q87 0 150 -56t88 -144q-118 -56 -189 -183v28q25 39 45 63q50 120 1 206q-35 62 -100 69q-75 7 -130 -70q-64 -91 -67 -266q0 -4 -0.5 -39t-0.5 -38h221l-13 -22h-208v-898z" />
    <glyph glyph-name="ffi.liga" unicode="ffi" horiz-adv-x="1300" 
d="M575 1003q0 176 34 262q-5 88 -66 130q-60 40 -125 7q-88 -46 -117 -200q-11 -56 -12 -122v-77h286zM289 82q0 -19 9.5 -32.5t21.5 -20t34 -10t35.5 -4t36.5 -0.5h12q23 0 36.5 0.5t35 4t34 10.5t22 20.5t9.5 32.5v898h-286v-899zM1135 976v-893q0 -24 12.5 -39t38 -21
t42.5 -7t47 -1h8q5 0 5 -8t-5 -8h-416q-5 0 -5 8t5 8h8q30 0 47 1t42.5 7t38 21t12.5 39v872q0 11 -7.5 18.5t-18.5 7.5h-294v-899q0 -16 5.5 -28.5t18.5 -19.5t23.5 -11t30.5 -6t29.5 -2h30.5h10q5 0 5 -8t-5 -8h-821q-5 0 -5 8t5 8h10q30 0 46.5 1t41.5 6.5t37.5 20.5
t12.5 39v899h-115l11 22h104q0 53 2 92t10 86.5t21.5 81.5t37.5 68t57.5 55t82.5 34t111 13q102 0 173 -79q77 79 232 79q87 0 150 -56t88 -144q-118 -56 -189 -183v28q25 39 45 63q50 120 1 206q-35 62 -100 69q-75 7 -130 -70q-64 -91 -67 -266v-77h404q36 0 36 -27z" />
    <glyph glyph-name="st.liga" unicode="st" horiz-adv-x="1320" 
d="M352 1005q55 0 109 -19q-34 56 -37 119.5t22.5 119t68.5 102t103 74t124 28.5q69 1 131.5 -27.5t98 -74.5t41.5 -104.5t-39 -117.5q-18 -24 -45 -45t-44 -33t-17 -22h368l-6 -22h-252v-645q0 -66 10 -124.5t37.5 -108t69.5 -60.5q90 -23 201 113q7 9 11 -2q3 -8 -2 -14
q-116 -148 -231 -141q-97 5 -156 101.5t-59 238.5v642h-100l7 22q95 0 124 74q26 67 -16 145q-45 85 -134 111q-63 19 -134 0q-52 -13 -91 -55.5t-55 -94t-8.5 -106.5t42.5 -92q10 -10 34.5 -31t40.5 -38q8 -8 22 -26q-156 -41 -226 -157v28q44 60 118 102q-48 99 -137 112
q-50 7 -96.5 -8.5t-73 -48.5t-33 -74t23 -89t93.5 -89q31 -19 87 -50.5t94.5 -54t86 -57.5t77 -68t50 -79.5t20.5 -98.5q1 -105 -85 -181.5t-227 -77.5q-189 2 -268 125q159 35 233 145l-1 -27q-48 -59 -123 -97q23 -54 63.5 -88.5t94.5 -35.5q109 1 159 66.5t26 155.5
q-12 46 -39.5 84t-68 67.5t-77.5 51t-88 49t-81 46.5q-62 40 -99 91t-47 101.5t5.5 99.5t53 86.5t101.5 60.5t145 23z" />
    <glyph glyph-name=".notdef" horiz-adv-x="1079" 
d="M102 1434h875v-1434h-875v1434zM160 1393l379 -633l381 633h-760zM514 717l-369 614v-1231zM541 674l-379 -631h758zM565 717l371 -621v1239z" />
    <glyph glyph-name=".null" horiz-adv-x="0" 
 />
    <glyph glyph-name=".null" horiz-adv-x="0" 
 />
    <glyph glyph-name="nonmarkingreturn" horiz-adv-x="682" 
 />
    <glyph glyph-name="controlLF" unicode="&#xa;" horiz-adv-x="0" 
 />
    <glyph glyph-name="controlCR" unicode="&#xd;" horiz-adv-x="0" 
 />
    <glyph glyph-name="space" unicode=" " horiz-adv-x="628" 
 />
    <glyph glyph-name="exclam" unicode="!" horiz-adv-x="409" 
d="M111 1410h187l-52 -1152h-83zM163 127h83v-150h-83v150z" />
    <glyph glyph-name="quotedbl" unicode="&#x22;" horiz-adv-x="417" 
d="M281 1136l-49 132v142h118v-142l-43 -132h-26zM140 1136h-26l-48 132v142h117v-142z" />
    <glyph glyph-name="numbersign" unicode="#" horiz-adv-x="1320" 
d="M871 843h-342l-80 -299h342zM1023 1410h87l-130 -484h249v-83h-271l-80 -299h351v-84h-374l-129 -483h-87l130 483h-342l-130 -483h-86l130 483h-249v84h271l80 299h-351v83h373l130 484h86l-129 -484h342z" />
    <glyph glyph-name="dollar" unicode="$" horiz-adv-x="1056" 
d="M551 636v-634q153 7 229 102t36 237q-26 94 -94 163.5t-171 131.5zM509 830v561h-4q-61 11 -121 -4.5t-104 -49.5t-69 -84.5t-23.5 -105t41 -114t116.5 -108.5q34 -22 164 -95zM551 1421q100 -14 184 -73t129 -139q-55 -33 -110 -93t-90 -121v31q34 51 76 98
q-3 69 -56 145.5t-133 108.5v-571q68 -38 116 -68t104 -74.5t92 -88t63 -102.5t34 -124q7 -70 -19 -136t-78 -117t-133.5 -83.5t-178.5 -36.5v-159h-42v159q-107 4 -206 53t-178 128q54 35 105 97.5t84 125.5v-34q-24 -41 -54 -80q1 -93 68.5 -175.5t181.5 -89.5v658
q-18 10 -95.5 52.5t-114.5 65.5q-81 50 -131.5 121t-64.5 143t6 143t69 125t135.5 86t195.5 28v159h41v-162z" />
    <glyph glyph-name="percent" unicode="%" horiz-adv-x="1292" 
d="M360 1415q-67 5 -117.5 -79t-60.5 -216t26 -219t103 -91q67 -5 116.5 75.5t59.5 211.5q10 133 -25.5 223.5t-101.5 94.5zM795 1434h86l-384 -1434h-87q64 239 192.5 717t192.5 717zM807 324q-10 -132 25.5 -219.5t102.5 -91.5q67 -5 116.5 76t59.5 212q10 133 -25 223.5
t-101 94.5q-67 5 -117.5 -79t-60.5 -216zM963 637q104 0 173 -87t69 -227t-73 -231.5t-177 -91.5t-174 86t-70 226t74 232.5t178 92.5zM581 1119q0 -140 -73 -231.5t-177 -91.5t-174.5 86.5t-70.5 226.5t74 232.5t178 92.5t173.5 -87.5t69.5 -227.5z" />
    <glyph glyph-name="ampersand" unicode="&#x26;" horiz-adv-x="1204" 
d="M430 867q-63 17 -115.5 51t-87 76.5t-51.5 92t-15 97.5t28 92t71.5 77t121.5 52t173 17q216 -4 315 -106q74 -76 51 -170t-130 -151q-31 -16 -68 -28q36 63 46.5 139t-5 143t-69.5 112t-137 44q-167 -2 -221 -112q-44 -89 3 -206q45 -111 145 -173q75 -47 160 -47
q-63 -39 -130 -108.5t-126 -163t-81.5 -193t3.5 -198.5q40 -131 158 -173q109 -39 225 11q111 48 160 152q53 115 2 255q-66 32 -123 36t-94 -16.5t-61 -60.5t-24.5 -96t15.5 -122q-40 62 -56 128t-7 122t37 103.5t76 72.5t111 29.5t141 -25.5q149 -56 146 63q-2 91 -86 249
q169 -173 183 -323q10 -105 -58 -153q-67 -46 -169 -11q34 -92 19 -175.5t-61.5 -147.5t-124 -101.5t-167.5 -37.5q-126 0 -223.5 43.5t-152 113.5t-69.5 163t13 189.5t107.5 196t201.5 178.5z" />
    <glyph glyph-name="quotesingle" unicode="'" horiz-adv-x="294" 
d="M185 1039h-78l-33 195v174h146v-174z" />
    <glyph glyph-name="parenleft" unicode="(" horiz-adv-x="530" 
d="M440 -14q-82 46 -146.5 123.5t-105 171t-62.5 203t-22 219t22 219t62.5 203t105 171t146.5 123.5q-214 -315 -214 -716.5t214 -716.5z" />
    <glyph glyph-name="parenright" unicode=")" horiz-adv-x="530" 
d="M90 -14q214 315 214 716.5t-214 716.5q82 -46 146.5 -123.5t105 -171t62.5 -203t22 -219t-22 -219t-62.5 -203t-105 -171t-146.5 -123.5z" />
    <glyph glyph-name="asterisk" unicode="*" horiz-adv-x="684" 
d="M257 1258l54 -59l-28 77v142h117v-142l-25 -76l53 63l123 71l59 -101l-123 -71l-104 -23l98 -45l101 -101l-83 -83l-101 101l-53 105l-51 -109l-101 -101l-83 83l101 101l95 48l-107 19l-123 71l58 102z" />
    <glyph glyph-name="plus" unicode="+" horiz-adv-x="778" 
d="M436 352h-95v270h-269v94h269v270h95v-270h269v-94h-269v-270z" />
    <glyph glyph-name="comma" unicode="," horiz-adv-x="253" 
d="M127 0h-73v146h146v-146q0 -70 -41.5 -117.5t-113.5 -34.5q46 20 63 57.5t19 94.5z" />
    <glyph glyph-name="hyphen" unicode="-" horiz-adv-x="612" 
d="M567 626h-524v94h524v-94z" />
    <glyph glyph-name="period" unicode="." horiz-adv-x="253" 
d="M199 0h-146v146h146v-146z" />
    <glyph glyph-name="slash" unicode="/" horiz-adv-x="569" 
d="M183 274h-103l303 1079h104z" />
    <glyph glyph-name="zero" unicode="0" horiz-adv-x="1173" 
d="M1067 708q-1 -155 -35 -284t-90 -211.5t-128 -139t-152 -67t-159 4t-151 74.5t-127.5 144t-88 213t-32.5 282q1 155 35 284t90 211.5t128 139t152 67t159 -4t151 -74.5t127.5 -144t88 -213t32.5 -282zM252 731q8 -352 137 -552q89 -137 204 -153q114 -16 201 93
q122 153 131 471q1 44 0 90q-8 352 -137 555q-89 139 -204 157q-113 18 -201 -91q-122 -153 -131 -478q-1 -45 0 -92z" />
    <glyph glyph-name="one" unicode="1" horiz-adv-x="602" 
d="M363 83q0 -16 5.5 -28.5t18.5 -19.5t23.5 -11t30.5 -6t29.5 -2h30.5h5.5h4.5q5 0 5 -8t-5 -8h-415q-5 0 -5 8t5 8h10q30 0 46.5 1t41.5 6.5t37.5 20.5t12.5 39v1249q0 17 -8 26.5t-24 4.5l-109 -35q-3 -1 -5.5 1t-2 5.5t5.5 5.5l227 92q15 6 25 -2t10 -23v-1324z" />
    <glyph glyph-name="two" unicode="2" horiz-adv-x="1069" 
d="M841 0h-735q-15 0 -22 10t-2 25q32 96 73 178.5t80.5 141.5t102 128t110.5 115t135 129t148 144q47 47 76 100.5t37.5 103.5t3.5 99.5t-26.5 89t-52.5 72.5t-73.5 48.5t-90.5 18t-104 -18.5q-80 -29 -126 -116.5t-41 -178.5q48 -38 89 -82l6 -30q-45 53 -107 102t-119 70
q30 97 105.5 175t177.5 98q84 17 154 9t128.5 -31t99.5 -64.5t67.5 -90.5t32 -109.5t-6.5 -121.5t-48.5 -126t-93.5 -123t-140.5 -118t-157.5 -108t-148 -103t-132.5 -127.5t-90.5 -157.5q-6 -15 4 -23.5t27 -8.5h577q50 0 84.5 50.5t34.5 97.5q0 5 8 5t8 -5z" />
    <glyph glyph-name="three" unicode="3" horiz-adv-x="1062" 
d="M847 1434q21 -60 31.5 -104.5t8 -90t-9.5 -76.5t-34 -83t-50.5 -90t-73.5 -115q-27 -41 -41 -63q60 -50 102.5 -92.5t85 -98.5t67 -119t28.5 -132q5 -88 -28 -163.5t-100.5 -127t-166.5 -71t-225 4.5q-113 23 -198 112t-118 198q64 24 133.5 79t118.5 115l-7 -34
q-48 -53 -99 -93q-6 -104 46 -203t140 -131q122 -45 225.5 5t137.5 159q24 69 4 145t-59.5 144t-96.5 130.5t-105.5 105t-87.5 67.5q120 15 242 136q104 103 140 209q37 110 -30 144q-25 13 -63 13h-577q-17 0 -27 -8t-4 -23q13 -36 35 -76h-27q-40 84 -76 192q-5 15 2 25
t22 10h735z" />
    <glyph glyph-name="four" unicode="4" horiz-adv-x="1083" 
d="M128 626h580v665zM828 597v-514q0 -16 5.5 -28.5t18.5 -19.5t23.5 -11t30.5 -6t29.5 -2h30.5h10q5 0 5 -8t-5 -8h-416q-5 0 -5 8t5 8h10q30 0 46.5 1t41.5 6.5t37.5 20.5t12.5 39v514h-642l718 825q16 18 30 12.5t14 -27.5v-781h166l-15 -29h-151z" />
    <glyph glyph-name="five" unicode="5" horiz-adv-x="1132" 
d="M222 1436h724q15 0 22 -10t2 -25q-37 -111 -76 -193h-27q20 38 35 77q6 15 -4 23t-27 8h-640l-68 -434q76 55 172 81.5t191.5 23t187 -38.5t161.5 -95t113 -154t43 -208q0 -111 -44 -205.5t-117 -156t-166 -95.5t-192 -34q-132 0 -232 32t-186 108l208 202l12 -3
l-128 -142q38 -64 126 -116.5t164 -60.5q184 -15 304.5 111.5t123.5 338.5q2 112 -30.5 204t-88.5 152.5t-133 95t-162 37.5t-178 -26.5t-178 -91.5z" />
    <glyph glyph-name="six" unicode="6" horiz-adv-x="1208" 
d="M646 1433q94 9 194 -27t164 -104v-128q-86 116 -175.5 172.5t-168.5 54.5t-150.5 -51t-124.5 -136.5t-87 -210t-42 -264.5q58 85 144.5 134.5t178 59.5t184.5 -17.5t166.5 -85t122.5 -154.5t54 -217q-3 -199 -142 -330t-333 -129q-140 1 -246 57.5t-168 153.5t-90 220.5
t-21 265.5q5 105 27.5 204.5t67 192.5t105.5 164t148.5 118t191.5 57zM958 460q-8 263 -146 381q-103 87 -239 65q-127 -21 -215 -128q-103 -126 -95 -310q9 -210 137 -337q102 -101 233 -107q134 -6 223 92q109 119 102 344z" />
    <glyph glyph-name="seven" unicode="7" horiz-adv-x="970" 
d="M136 1434h735q15 0 22 -10t2 -25q-55 -167 -261 -726t-266 -673h-255q63 79 374.5 643.5t339.5 639.5q6 15 -4 23t-27 8h-577q-50 0 -84.5 -50.5t-34.5 -97.5q0 -5 -8 -5t-8 5z" />
    <glyph glyph-name="eight" unicode="8" horiz-adv-x="1214" 
d="M606 17q72 0 132.5 25.5t100.5 68t69 98.5t36 117.5t2 122.5t-32.5 117t-67 98.5t-102.5 68t-139 25.5t-139 -25.5t-102.5 -68t-66.5 -98.5t-32 -117.5t2.5 -122.5t36 -117t69 -98.5t101 -68t132.5 -25.5zM606 793q64 0 118 26.5t88.5 70t54.5 99t22 113t-14.5 113
t-50 99t-90 70t-128.5 26.5t-128 -26.5t-88 -70t-47.5 -99t-12 -113t23.5 -113t54 -99t85.5 -70t112.5 -26.5zM463 778q-161 24 -240 143q-70 106 -44 232q26 131 146 209q113 73 281 73q227 0 347 -129q91 -98 86 -229q-6 -128 -101 -214q-75 -68 -189 -85
q144 -22 240.5 -110t113 -198.5t-20.5 -217.5t-164 -179.5t-312 -72.5t-312 73.5t-163 181.5t-19.5 219t112.5 197.5t239 106.5z" />
    <glyph glyph-name="nine" unicode="9" horiz-adv-x="1208" 
d="M561 2q-94 -9 -194 27t-164 104v127q86 -116 175.5 -172.5t168.5 -54.5t150.5 51t124.5 136.5t87 210t42 264.5q-58 -85 -144.5 -134.5t-178 -59.5t-184.5 17t-167 85t-123 155t-54 217q3 199 142 330t333 129q140 -1 246 -57t168 -153.5t90.5 -220.5t21.5 -265
q-5 -105 -27.5 -204.5t-67 -192.5t-105.5 -164t-148.5 -118t-191.5 -57zM249 975q8 -263 147 -381q103 -88 238 -65q128 21 215 128q102 126 94 309q-9 210 -138 338q-101 100 -232 106q-134 6 -224 -92q-107 -119 -100 -343z" />
    <glyph glyph-name="colon" unicode=":" horiz-adv-x="286" 
d="M215 291h-145v146h145v-146zM70 902v146h145v-146h-145z" />
    <glyph glyph-name="semicolon" unicode=";" horiz-adv-x="313" 
d="M159 291h-72v146h145v-146q0 -145 -154 -152q46 20 62.5 57.5t18.5 94.5zM87 902v146h145v-146h-145z" />
    <glyph glyph-name="less" unicode="&#x3c;" horiz-adv-x="718" 
d="M74 774v83l562 275v-108l-425 -209l425 -208v-108z" />
    <glyph glyph-name="equal" unicode="=" horiz-adv-x="749" 
d="M57 759v94h634v-94h-634zM57 520v94h634v-94h-634z" />
    <glyph glyph-name="greater" unicode="&#x3e;" horiz-adv-x="718" 
d="M645 857v-83l-563 -275v108l426 208l-426 209v108z" />
    <glyph glyph-name="question" unicode="?" horiz-adv-x="876" 
d="M381 -23h-111l34 158h44zM384 686q27 29 69 63.5t72.5 61t61 63t47 87.5t17.5 117q1 82 -23.5 151.5t-77 115t-124.5 45.5q-94 1 -152 -83.5t-47 -220.5l-141 -44q-7 72 12.5 137t62 117t116.5 83t169 31t174.5 -51.5t124 -138t42.5 -186.5q-2 -60 -17 -111t-36 -85.5
t-56 -70.5t-63 -57.5t-72.5 -55t-70.5 -55.5q-49 -41 -78 -78.5t-44 -84t-20 -88.5t-8 -116q-33 80 -38.5 159.5t19.5 156t81 138.5z" />
    <glyph glyph-name="at" unicode="@" horiz-adv-x="1697" 
d="M534 573q0 -113 55.5 -176t140 -50.5t161.5 102.5q47 55 74.5 136.5t27.5 158.5q0 60 -19 109.5t-61.5 83t-103.5 33.5q-63 0 -117 -40t-87.5 -101.5t-52 -129t-18.5 -126.5zM100 642q0 155 62 296.5t166 244t246.5 163t297.5 60.5q140 0 261 -47t201.5 -124t125 -178.5
t43 -206t-56.5 -212.5t-162 -193q-142 -113 -334 -93q-45 -53 -124.5 -89t-150.5 -36q-88 0 -150.5 43t-91.5 111t-36.5 149.5t8 161.5t47.5 144q54 106 146.5 179.5t200.5 73.5q151 0 240 -146l169 123l-114 -532q-4 -19 -9.5 -41.5t-8.5 -34t-6 -26t-2.5 -16.5t2.5 -5
q95 11 182 82q100 83 150.5 183t51 195t-41 185.5t-116.5 158t-185.5 108t-238.5 40.5q-146 0 -281 -57.5t-233 -154t-156.5 -230t-58.5 -279.5q0 -198 84.5 -361t239.5 -259.5t349 -96.5q183 0 349 94.5t271.5 253t121.5 340.5l45 67q0 -155 -64.5 -301.5t-171 -255
t-252 -174.5t-299.5 -66q-155 0 -289 59.5t-227.5 161.5t-146.5 242t-53 296z" />
    <glyph glyph-name="A" unicode="A" horiz-adv-x="1320" 
d="M255 764v16h128l211 579q-25 34 -59 46.5t-96 12.5q-5 0 -5 8t5 8h260l468 -1334q28 -50 63.5 -67t108.5 -17q5 0 5 -8t-5 -8h-372q-5 0 -5 8t5 8h75q12 0 17.5 10t0.5 21l-449 1284l-197 -551h370v-16h-376l-243 -681q-8 -24 3 -38.5t40 -20t48.5 -7t51.5 -1.5h2
q5 0 5 -8t-5 -8h-327q-5 0 -5 8t5 8q27 0 43.5 1.5t39 7.5t38.5 20.5t27 37.5l247 681h-123z" />
    <glyph glyph-name="B" unicode="B" horiz-adv-x="1165" 
d="M418 1418q-24 0 -41.5 -2.5t-37 -9t-29.5 -21t-10 -35.5v-549h206q127 0 217.5 90.5t90.5 218.5t-90 218t-218 90h-88zM300 785v-702q0 -21 10 -35.5t29.5 -20.5t36.5 -8.5t42 -2.5h153q159 0 272 112.5t113 271.5t-113 272t-272 113h-271zM180 83v1267q0 24 -12.5 39
t-38 21t-42.5 7t-47 1h-8q-5 0 -5 8t5 8h577q133 0 228.5 -95t95.5 -229q0 -108 -62.5 -193t-162.5 -116h19q165 0 283 -118t118 -283t-118 -282.5t-283 -117.5h-695q-5 0 -5 8t5 8h10q30 0 46.5 1t41.5 6.5t37.5 20.5t12.5 39z" />
    <glyph glyph-name="C" unicode="C" horiz-adv-x="1019" 
d="M558 1434q122 0 219 -59t188 -177l-221 -318l-12 4l138 269q-37 94 -119 166.5t-157 84.5q-135 16 -236 -113.5t-134 -329t-22 -404t99 -358.5t229 -173q48 -5 100 4t110 35.5t115 82t102 134.5l37 -2q-39 -61 -77 -106t-91 -87.5t-121 -64.5t-149 -22q-95 0 -186 57
t-158.5 152.5t-109 229t-41.5 278.5q0 193 70 359.5t184.5 262t242.5 95.5z" />
    <glyph glyph-name="D" unicode="D" horiz-adv-x="1165" 
d="M32 0q-5 0 -5 8t5 8h10q30 0 46.5 1t41.5 6.5t37.5 20.5t12.5 39v1267q0 24 -12.5 39t-38 21t-42.5 7t-47 1h-8q-5 0 -5 8t5 8h437q253 0 444 -193q128 -128 174 -326t0 -396.5t-174 -326.5q-190 -192 -444 -192h-437zM300 1350v-1267q0 -61 96 -67q120 0 217 41.5
t160.5 111t105.5 163.5t59 194.5t15 208.5q-2 104 -23 200t-64.5 185t-106.5 154t-156.5 104t-206.5 39q-96 -6 -96 -67z" />
    <glyph glyph-name="E" unicode="E" horiz-adv-x="931" 
d="M180 1350q0 24 -12.5 39t-38 21t-42.5 7t-47 1h-8q-5 0 -5 8t5 8h811l49 -190l-15 -4l-62 117q-31 61 -94 61h-303q-24 0 -41.5 -2.5t-37 -9t-29.5 -21t-10 -35.5v-549h294q43 0 74 28.5t35 71.5l4 44h10v-303h-10l-4 44q-4 43 -35 71.5t-74 28.5h-294v-703
q0 -21 10 -35.5t29.5 -20.5t36.5 -8.5t42 -2.5h303q63 0 94 60l62 117l15 -4l-49 -189h-811q-5 0 -5 8t5 8h10q30 0 46.5 1t41.5 6.5t37.5 20.5t12.5 39v1267z" />
    <glyph glyph-name="F" unicode="F" horiz-adv-x="942" 
d="M180 1350q0 24 -12.5 39t-38 21t-42.5 7t-47 1h-8q-5 0 -5 8t5 8h863l49 -190l-15 -4l-62 117q-31 61 -94 61h-355q-24 0 -41.5 -2.5t-37 -9t-29.5 -21t-10 -35.5v-549h294q43 0 74 28.5t35 71.5l4 44h10v-303h-10l-4 44q-4 43 -35 71.5t-74 28.5h-294v-703
q0 -16 5.5 -28.5t18.5 -19.5t23.5 -11t30.5 -6t29.5 -2h30.5h5.5h4.5q5 0 5 -8t-5 -8h-416q-5 0 -5 8t5 8h10q30 0 46.5 1t41.5 6.5t37.5 20.5t12.5 39v1267z" />
    <glyph glyph-name="G" unicode="G" horiz-adv-x="1081" 
d="M571 1438q250 0 415 -218l-232 -339l-12 4l137 270q-37 94 -117.5 167.5t-155.5 85.5q-133 16 -233.5 -114t-134.5 -330t-25 -405t95 -359.5t226 -173.5q105 -13 215 80q98 81 135 188q44 125 -29 197q-66 65 -220 65l1 13h387v-309q-41 -63 -79 -106.5t-91.5 -82
t-124 -57t-159.5 -18.5q-105 0 -196.5 48.5t-159.5 138.5t-107.5 228t-39.5 306q0 164 43 302t114 228.5t161 140.5t187 50z" />
    <glyph glyph-name="H" unicode="H" horiz-adv-x="1280" 
d="M300 709v-626q0 -16 5.5 -28.5t18.5 -19.5t23.5 -11t30.5 -6t29.5 -2h30.5h5.5h4.5q5 0 5 -8t-5 -8h-416q-5 0 -5 8t5 8h10q30 0 46.5 1t41.5 6.5t37.5 20.5t12.5 39v1267q0 24 -12.5 39t-38 21t-42.5 7t-47 1h-8q-5 0 -5 8t5 8h416q5 0 5 -8t-5 -8h-8q-30 0 -47 -1
t-42.5 -7t-38 -21t-12.5 -39v-625h679v625q0 24 -12.5 39t-38 21t-42.5 7t-47 1h-8q-5 0 -5 8t5 8h416q5 0 5 -8t-5 -8h-8q-30 0 -47 -1t-42.5 -7t-38 -21t-12.5 -39v-1267q0 -16 5.5 -28.5t18.5 -19.5t23.5 -11t30.5 -6t29.5 -2h30.5h10q5 0 5 -8t-5 -8h-416q-5 0 -5 8t5 8
h10q30 0 46.5 1t41.5 6.5t37.5 20.5t12.5 39v626h-679z" />
    <glyph glyph-name="I" unicode="I" horiz-adv-x="481" 
d="M180 1350q0 24 -12.5 39t-38 21t-42.5 7t-47 1h-8q-5 0 -5 8t5 8h416q5 0 5 -8t-5 -8h-8q-30 0 -47 -1t-42.5 -7t-38 -21t-12.5 -39v-1267q0 -16 5.5 -28.5t18.5 -19.5t23.5 -11t30.5 -6t29.5 -2h30.5h5.5h4.5q5 0 5 -8t-5 -8h-416q-5 0 -5 8t5 8h10q30 0 46.5 1
t41.5 6.5t37.5 20.5t12.5 39v1267z" />
    <glyph glyph-name="J" unicode="J" horiz-adv-x="610" 
d="M319 1350q0 24 -12.5 39t-38 21t-42.5 7t-47 1h-8q-5 0 -5 8t5 8h416q5 0 5 -8t-5 -8h-8q-30 0 -47 -1t-42.5 -7t-38 -21t-12.5 -39v-1010q0 -139 -59.5 -237t-156.5 -103q-114 -7 -230 141q-7 9 -1 17q4 5 9 -1q111 -137 202 -113q60 16 88 104t28 189v1013z" />
    <glyph glyph-name="K" unicode="K" horiz-adv-x="1069" 
d="M180 1350q0 24 -12.5 39t-38 21t-42.5 7t-47 1h-8q-5 0 -5 8t5 8h416q5 0 5 -8t-5 -8h-8q-30 0 -47 -1t-42.5 -7t-38 -21t-12.5 -39v-829l537 829q9 22 1 35.5t-40 21t-57 9.5t-52 2q-5 0 -5 8t5 8h322q5 0 5 -8t-5 -8q-49 0 -85 -13.5t-63 -54.5l-411 -633
q35 17 68.5 17.5t62 -12.5t57 -39t52.5 -58.5t49 -76.5t45.5 -87.5t43.5 -95.5t42 -97t41.5 -96t41.5 -89q22 -44 46.5 -55.5t71.5 -11.5q5 0 5 -8t-5 -8h-23h-28t-27.5 1t-30.5 3.5t-29 6.5t-30 10t-26 15.5t-26 21t-20.5 27.5t-17.5 35q-39 104 -109 286
q-22 58 -39.5 99.5t-41.5 89t-47 72.5t-49 39t-54.5 0t-57.5 -54l-117 -164v-405q0 -16 5.5 -28.5t18.5 -19.5t23.5 -11t30.5 -6t29.5 -2h30.5h5.5h4.5q5 0 5 -8t-5 -8h-416q-5 0 -5 8t5 8h10q30 0 46.5 1t41.5 6.5t37.5 20.5t12.5 39v1267z" />
    <glyph glyph-name="L" unicode="L" horiz-adv-x="935" 
d="M300 83q0 -21 10 -35.5t29.5 -20.5t36.5 -8.5t42 -2.5h355q63 0 94 60l62 117l15 -4l-49 -189h-863q-5 0 -5 8t5 8h10q30 0 46.5 1t41.5 6.5t37.5 20.5t12.5 39v1267q0 24 -12.5 39t-38 21t-42.5 7t-47 1h-8q-5 0 -5 8t5 8h416q5 0 5 -8t-5 -8h-8q-30 0 -47 -1t-42.5 -7
t-38 -21t-12.5 -39v-1267z" />
    <glyph glyph-name="M" unicode="M" horiz-adv-x="1648" 
d="M180 1350q0 24 -12.5 39t-38 21t-42.5 7t-47 1h-8q-5 0 -5 8t5 8h213l360 -770l239 -511l504 1281h267q5 0 5 -8t-5 -8h-8q-30 0 -47 -1t-42.5 -7t-38 -21t-12.5 -39v-1267q0 -16 5.5 -28.5t18.5 -19.5t23.5 -11t30.5 -6t29.5 -2h30.5h10q5 0 5 -8t-5 -8h-415q-5 0 -5 8
t5 8h10q30 0 46.5 1t41.5 6.5t37.5 20.5t12.5 39v1294l-542 -1377h-22l-580 1239v-1156q0 -16 5.5 -28.5t18.5 -19.5t23.5 -11t30.5 -6t29.5 -2h30.5h5.5h4.5q5 0 5 -8t-5 -8h-320q-5 0 -5 8t5 8h10q30 0 46.5 1t41.5 6.5t37.5 20.5t12.5 39v1267z" />
    <glyph glyph-name="N" unicode="N" horiz-adv-x="1224" 
d="M276 1434l750 -1219v1135q0 24 -12.5 39t-38 21t-42.5 7t-47 1h-8q-5 0 -5 8t5 8h320q5 0 5 -8t-5 -8h-8q-30 0 -47 -1t-42.5 -7t-38 -21t-12.5 -39v-1350h-31l-821 1333v-1250q0 -16 5.5 -28.5t18.5 -19.5t23.5 -11t30.5 -6t29.5 -2h30.5h5.5h4.5q5 0 5 -8t-5 -8h-320
q-5 0 -5 8t5 8h10q30 0 46.5 1t41.5 6.5t37.5 20.5t12.5 39v1351h102z" />
    <glyph glyph-name="O" unicode="O" horiz-adv-x="1091" 
d="M581 1404q-131 16 -230 -113.5t-132.5 -328t-24.5 -402.5t94 -357.5t222 -172.5q131 -16 230 113.5t132.5 328t24.5 402.5t-94 357.5t-222 172.5zM63 717q0 196 63 360.5t174.5 260.5t245.5 96t245 -96t173.5 -260.5t62.5 -360.5t-63 -360.5t-174.5 -260.5t-245.5 -96
t-245 96t-173.5 260.5t-62.5 360.5z" />
    <glyph glyph-name="P" unicode="P" horiz-adv-x="960" 
d="M418 1418q-24 0 -41.5 -2.5t-37 -9t-29.5 -21t-10 -35.5v-653h206q73 0 132.5 31t96 81.5t56 115.5t19.5 132.5t-19.5 132.5t-56 115.5t-96 81.5t-132.5 31h-88zM180 83v1267q0 24 -12.5 39t-38 21t-42.5 7t-47 1h-8q-5 0 -5 8t5 8h577q118 0 202.5 -77.5t105.5 -188
t1.5 -221.5t-112.5 -188.5t-235 -77.5h-271v-598q0 -12 3 -22t10.5 -16.5t13.5 -11.5t19 -8t19 -5t22.5 -3t21 -1h21.5h18q5 0 5 -8t-5 -8h-416q-5 0 -5 8t5 8h10q30 0 46.5 1t41.5 6.5t37.5 20.5t12.5 39z" />
    <glyph glyph-name="Q" unicode="Q" horiz-adv-x="1075" 
d="M573 1404q-129 16 -226 -113.5t-129.5 -328t-24 -402.5t91.5 -357.5t218 -172.5q129 -16 226 113.5t129.5 328t24 402.5t-91.5 357.5t-218 172.5zM66 717q0 196 61.5 360.5t170.5 260.5t241 96t240.5 -96t170 -260.5t61.5 -360.5q0 -72 -12.5 -150.5t-37 -161.5t-65 -157
t-93 -131.5t-125.5 -89t-157 -27.5q196 -86 398 -27l-55 -99q-117 -36 -232 2.5t-186 136.5q-110 31 -196.5 131t-135 250t-48.5 323z" />
    <glyph glyph-name="R" unicode="R" horiz-adv-x="1095" 
d="M418 1418q-24 0 -41.5 -2.5t-37 -9t-29.5 -21t-10 -35.5v-653h206q73 0 132.5 31t96 81.5t56 115.5t19.5 132.5t-19.5 132.5t-56 115.5t-96 81.5t-132.5 31h-88zM180 83v1267q0 24 -12.5 39t-38 21t-42.5 7t-47 1h-8q-5 0 -5 8t5 8h577q65 0 121 -24.5t94 -66t66 -96
t36 -115t4.5 -121.5t-28.5 -117t-62 -101t-97 -74.5t-134 -35.5q44 -20 86 -68t79.5 -117t67.5 -134t68.5 -150t64.5 -135q22 -42 46.5 -53t71.5 -11q5 0 5 -7.5t-5 -7.5h-23.5h-27.5t-27.5 1t-30.5 3t-29 6t-30 10t-26.5 14.5t-25.5 19.5t-20.5 26.5t-17.5 33.5
q-94 235 -109 272q-5 13 -16 42t-17.5 45t-18.5 43.5t-22 43.5t-24.5 37.5t-29.5 34.5t-33.5 25.5t-40 18t-46.5 5.5h-178v-598q0 -12 3 -22t10.5 -16.5t13.5 -11.5t19 -8t19 -5t22.5 -3t21 -1h21.5h18q5 0 5 -8t-5 -8h-416q-5 0 -5 8t5 8h10q30 0 46.5 1t41.5 6.5
t37.5 20.5t12.5 39z" />
    <glyph glyph-name="S" unicode="S" horiz-adv-x="952" 
d="M462 1440q111 -4 206 -66t145 -150q-55 -33 -110 -93t-90 -121v31q36 55 76 99q-4 80 -70.5 164.5t-164.5 102.5q-61 11 -121 -4.5t-104 -49.5t-69 -84.5t-23.5 -105t41 -114t116.5 -108.5q46 -29 123.5 -72.5t134 -75t124.5 -80t112.5 -95t78.5 -112.5t42 -140
q16 -150 -105.5 -261.5t-325.5 -112.5q-111 -1 -216.5 49t-188.5 133q54 35 105.5 97.5t84.5 125.5v-34q-24 -41 -54 -80q0 -44 17.5 -90t50 -85.5t85 -65t115.5 -25.5q163 0 246.5 96.5t41.5 243.5q-16 56 -49 105.5t-72 85t-93.5 72t-99.5 60.5t-105.5 57t-97.5 56
q-82 51 -132 122t-64 143t6.5 143.5t70 125.5t136.5 86t197 27z" />
    <glyph glyph-name="T" unicode="T" horiz-adv-x="972" 
d="M932 1434l49 -190l-15 -4l-61 117q-31 61 -95 61h-146q-34 -1 -56.5 -4.5t-42.5 -19.5t-20 -44v-1267q0 -16 5.5 -28.5t18.5 -19.5t23.5 -11t30.5 -6t29.5 -2h30.5h10q5 0 5 -8t-5 -8h-415q-5 0 -5 8t5 8h10q30 0 46.5 1t41.5 6.5t37.5 20.5t12.5 39v1267q0 28 -20 44
t-42.5 19.5t-56.5 4.5h-146q-64 0 -95 -61l-61 -117l-15 4l49 190h893z" />
    <glyph glyph-name="U" unicode="U" horiz-adv-x="1255" 
d="M1064 527v823q0 24 -12.5 39t-38 21t-42.5 7t-47 1h-8q-5 0 -5 8t5 8h320q5 0 5 -8t-5 -8h-8q-30 0 -47 -1t-42.5 -7t-38 -21t-12.5 -39v-823q0 -78 -15 -152.5t-47 -143t-78.5 -119.5t-115 -81.5t-150.5 -30.5q-127 0 -227 46.5t-163 130.5t-96 196t-34 247v730
q0 24 -12.5 39t-38 21t-42.5 7t-47 1h-8q-5 0 -5 8t5 8h415q5 0 5 -8t-5 -8h-8q-30 0 -47 -1t-42.5 -7t-38 -21t-12.5 -39v-721q0 -86 9.5 -164t37 -160.5t70.5 -142t116 -98t168 -38.5q97 0 172 43.5t119.5 116.5t67 159.5t23.5 181.5z" />
    <glyph glyph-name="V" unicode="V" horiz-adv-x="1271" 
d="M727 169l395 1181q8 24 -2 39t-38 20.5t-48 7t-54 1.5q-5 0 -5 8t5 8h308q5 0 5 -8t-5 -8q-27 0 -42.5 -1.5t-39 -7t-38.5 -20.5t-23 -39l-449 -1350h-26l-524 1333q-28 50 -62 67.5t-103 17.5q-5 0 -5 8t5 8h308q5 0 5 -8t-5 -8h-23q-12 0 -17 -10t0 -22z" />
    <glyph glyph-name="W" unicode="W" horiz-adv-x="1830" 
d="M1286 169l394 1181q8 24 -2 39t-37.5 20.5t-47.5 7t-54 1.5q-5 0 -5 8t5 8h308q5 0 5 -8t-5 -8q-27 0 -42.5 -1.5t-39 -7t-38.5 -20.5t-23 -39l-449 -1350h-26l-289 734l-244 -734h-26l-524 1333q-28 50 -62 67.5t-103 17.5q-5 0 -5 8t5 8h308q5 0 5 -8t-5 -8h-23
q-12 0 -17 -10t0 -22l478 -1217l200 599l-222 565q-28 50 -62.5 67.5t-103.5 17.5q-5 0 -5 8t5 8h308q5 0 5 -8t-5 -8h-22q-12 0 -17 -10t0 -22z" />
    <glyph glyph-name="X" unicode="X" horiz-adv-x="1013" 
d="M-9 1418q-5 0 -5 8t5 8h372q5 0 5 -8t-5 -8h-76q-12 0 -17 -10.5t0 -21.5q46 -101 137 -303.5t136 -303.5q31 66 123 264t142 307q3 12 4.5 21.5t-7 16.5t-16 12t-22.5 8.5t-26.5 5.5t-28 2.5t-27 1t-23.5 0.5q-5 0 -5 8t5 8h320q5 0 5 -8t-5 -8q-26 0 -43 -1.5
t-39.5 -7.5t-38.5 -21t-27 -38l-278 -600q97 -216 291 -650q28 -50 63.5 -67t108.5 -17q5 0 5 -8t-5 -8h-372q-5 0 -5 8t5 8h75q12 0 17.5 10t0.5 21q-42 93 -125.5 279t-125.5 279q-41 -87 -121 -261t-121 -261q-11 -23 1 -37.5t41.5 -20.5t51.5 -7.5t52 -1.5q5 0 5 -8
t-5 -8h-320q-5 0 -5 8t5 8q27 0 43.5 1.5t39 7.5t38.5 20.5t27 37.5l255 551q-105 233 -313 699q-28 50 -64 67.5t-108 17.5z" />
    <glyph glyph-name="Y" unicode="Y" horiz-adv-x="976" 
d="M848 1350l-304 -650v-617q0 -16 5.5 -28.5t18.5 -19.5t23.5 -11t30.5 -6t29.5 -2h30.5h10q5 0 5 -8t-5 -8h-416q-5 0 -5 8t5 8h10q30 0 46.5 1t41.5 6.5t37.5 20.5t12.5 39v590l-274 660q-28 50 -63.5 67.5t-107.5 17.5q-5 0 -5 8t5 8h371q5 0 5 -8t-5 -8h-75
q-12 0 -17.5 -10t-0.5 -22l274 -657l290 621q5 9 5.5 17.5t-3.5 14.5t-9.5 11t-14.5 9t-18 6.5t-21 4t-22.5 3t-22.5 2t-20.5 0.5h-18.5q-5 0 -5 8t5 8h320q5 0 5 -8t-5 -8q-26 0 -43 -1.5t-39.5 -7.5t-38.5 -21t-27 -38z" />
    <glyph glyph-name="Y" unicode="&#x178;" horiz-adv-x="976" 
d="M848 1350l-304 -650v-617q0 -16 5.5 -28.5t18.5 -19.5t23.5 -11t30.5 -6t29.5 -2h30.5h10q5 0 5 -8t-5 -8h-416q-5 0 -5 8t5 8h10q30 0 46.5 1t41.5 6.5t37.5 20.5t12.5 39v590l-274 660q-28 50 -63.5 67.5t-107.5 17.5q-5 0 -5 8t5 8h371q5 0 5 -8t-5 -8h-75
q-12 0 -17.5 -10t-0.5 -22l274 -657l290 621q5 9 5.5 17.5t-3.5 14.5t-9.5 11t-14.5 9t-18 6.5t-21 4t-22.5 3t-22.5 2t-20.5 0.5h-18.5q-5 0 -5 8t5 8h320q5 0 5 -8t-5 -8q-26 0 -43 -1.5t-39.5 -7.5t-38.5 -21t-27 -38z" />
    <glyph glyph-name="Z" unicode="Z" horiz-adv-x="882" 
d="M874 1434l-711 -1387q-5 -10 -0.5 -20t16.5 -11h452q63 0 94 60l62 117l15 -4l-49 -189h-743l711 1386q6 10 1 20.5t-17 11.5h-476q-64 0 -95 -61l-61 -117l-15 4l49 190h767z" />
    <glyph glyph-name="bracketleft" unicode="[" horiz-adv-x="497" 
d="M404 1h-283v1418h283v-58h-155v-1302h155v-58z" />
    <glyph glyph-name="backslash" unicode="\" horiz-adv-x="567" 
d="M486 274h-102l-302 1079h103z" />
    <glyph glyph-name="bracketright" unicode="]" horiz-adv-x="497" 
d="M375 1419v-1418h-283v58h155v1302h-155v58h283z" />
    <glyph glyph-name="asciicircum" unicode="^" horiz-adv-x="743" 
d="M370 1273l-171 -425h-131l250 571h104l252 -571h-128z" />
    <glyph glyph-name="underscore" unicode="_" horiz-adv-x="935" 
d="M892 1h-849v92h849v-92z" />
    <glyph glyph-name="grave" unicode="`" horiz-adv-x="374" 
d="M223 1419l97 -200h-104l-165 200h172z" />
    <glyph glyph-name="a" unicode="a" horiz-adv-x="983" 
d="M720 186v518q-13 -48 -60 -82.5t-100 -51.5t-125 -42.5t-115 -50.5q-74 -44 -105 -117t-17.5 -141t66.5 -122t133 -64q83 -11 169 26t154 127zM720 68v95q-134 -163 -327 -163q-90 0 -162 28t-113.5 73.5t-62.5 101t-15.5 113t33.5 106.5q32 55 90 92t121.5 53.5
t133.5 31.5t128 25.5t103.5 34t60.5 59.5q42 100 -28 187t-186 84q-67 -2 -110.5 -31t-56 -69t-10 -79t18.5 -64l-164 -66q0 76 29.5 139.5t76.5 102.5t102 60.5t109 21.5q85 0 152.5 -31.5t109.5 -86t64 -124t22 -147.5v-532q0 -19 8 -32.5t17.5 -20.5t28.5 -10t30 -3.5
t34 -0.5h10q5 0 5 -8t-5 -8h-180q-28 0 -47.5 20t-19.5 48z" />
    <glyph glyph-name="b" unicode="b" horiz-adv-x="962" 
d="M268 819v-439q142 -281 275 -287q95 -5 162 130q68 138 72 332q4 208 -73 324q-53 77 -132 90q-68 10 -153 -26t-151 -124zM268 1407v-575q69 91 154 133.5t155 39.5q175 -8 260 -186q73 -156 54 -377q-17 -202 -101 -330q-87 -134 -205 -108q-156 34 -317 347v-283
q0 -28 -20 -48t-48 -20h-175q-5 0 -5 8t5 8h10q22 0 33 0.5t29 3.5t27 10t16.5 20.5t7.5 32.5v1249q0 17 -8 26.5t-23 4.5l-109 -35q-3 -1 -6 1t-2.5 5.5t5.5 5.5l228 91q15 6 25 -1.5t10 -22.5z" />
    <glyph glyph-name="c" unicode="c" horiz-adv-x="786" 
d="M493 1004q75 -1 127.5 -29.5t103.5 -89.5q-53 -24 -111.5 -79.5t-83.5 -107.5v31q39 62 113 122q-25 57 -52.5 90t-68.5 43q-116 28 -208 -113q-86 -134 -111 -344q-26 -221 37 -365q59 -135 178 -143q66 -4 125.5 48t103.5 146h114q-11 -34 -34 -68t-60.5 -68
t-96.5 -55.5t-129 -21.5q-107 0 -195 64.5t-138 177t-50 249.5q0 135 54 252.5t155.5 190t226.5 70.5z" />
    <glyph glyph-name="d" unicode="d" horiz-adv-x="978" 
d="M695 186v439q-147 289 -281 298q-96 7 -162 -129q-67 -138 -70 -334q-2 -212 75 -331q53 -81 134 -93q68 -10 153 26t151 124zM695 68v105q-69 -91 -154 -133.5t-155 -39.5q-175 9 -260 190q-74 158 -55 381q18 205 102 333q87 133 204 105q156 -36 318 -355v678
q0 17 -8 26.5t-23 4.5l-110 -35q-3 -1 -5.5 1t-2 5.5t5.5 5.5l227 91q15 6 25 -1.5t10 -22.5v-1324q0 -16 5.5 -28.5t18.5 -19.5t23.5 -11t30.5 -6t29.5 -2h30.5h10q5 0 5 -8t-5 -8h-200q-28 0 -47.5 20t-19.5 48z" />
    <glyph glyph-name="e" unicode="e" horiz-adv-x="815" 
d="M183 507l472 121q-13 146 -69.5 244.5t-134.5 104.5q-65 5 -118 -48t-83 -134.5t-46.5 -155.5t-20.5 -132zM61 502q0 136 48 252t131 183t180 67q60 0 112 -23t89 -59.5t67.5 -87t49 -101t30.5 -105.5l-586 -151q-3 -118 23.5 -222t76 -168t109.5 -68t114.5 50.5
t92.5 150.5q-54 -17 -114 -26v16q155 22 268 101q-20 -60 -48.5 -113t-69 -99t-96 -72.5t-118.5 -26.5q-97 0 -180 67t-131 183t-48 252z" />
    <glyph glyph-name="f" unicode="f" horiz-adv-x="509" 
d="M289 982v-899q0 -16 5.5 -28.5t18.5 -19.5t23.5 -11t30.5 -6t29.5 -2h30.5h5.5h4.5q5 0 5 -8t-5 -8h-415q-5 0 -5 8t5 8h10q30 0 46.5 1t41.5 6.5t37.5 20.5t12.5 39v899h-115l11 22h104q0 53 2 92t10 86.5t21.5 81.5t37.5 68t57.5 55t82.5 34t111 13q87 0 150 -56.5
t88 -144.5q-118 -56 -189 -183v29q25 39 45 63q50 120 1 206q-35 62 -100 69q-75 7 -130 -70q-64 -91 -67 -266q0 -3 -0.5 -38t-0.5 -39h221l-13 -22h-208z" />
    <glyph glyph-name="g" unicode="g" horiz-adv-x="878" 
d="M530 919l-293 -563q59 -98 160 -98q61 0 110 38.5t77 98.5t40 135.5t5.5 148t-32 137.5t-67.5 103zM514 933q-122 82 -218 -10q-80 -77 -106 -232q-28 -164 25 -292q4 -10 9 -19zM344 980q100 20 183 -18q54 104 102 157t117 56q101 5 176 -107q-110 -45 -176 -139l-4 22
q32 43 79 78q-24 49 -53.5 68.5t-58.5 13t-59.5 -31t-55.5 -56.5t-47 -71q91 -42 148 -137.5t57 -191.5q0 -84 -26.5 -154.5t-70.5 -117.5t-101.5 -77t-117.5 -37.5t-121 6.5t-111 50q-64 -124 -5 -152q25 -15 87 -11.5t115.5 14t127.5 21.5t124 11q58 0 105.5 -33.5
t68.5 -81t10 -104t-59 -97.5q-53 -48 -136.5 -62t-165 0t-137 30t-86.5 30l127 128q31 -22 65 -42.5t83 -44.5t92 -36t85 -9t67 28q35 32 33 76t-45 64q-41 20 -101.5 20.5t-113.5 -10t-123 -21.5t-117 -10q-57 1 -96 13.5t-58.5 34.5t-26 50.5t1 63.5t22.5 70t38 74
q-125 105 -125 309q0 132 81.5 236t201.5 128z" />
    <glyph glyph-name="h" unicode="h" horiz-adv-x="1038" 
d="M283 1407v-791q30 58 53 100t64 102t78 97.5t86.5 64.5t98.5 24q97 -5 156 -103t59 -237v-581q0 -16 5.5 -28.5t18.5 -19.5t23.5 -11t30.5 -6t29.5 -2h30.5h10q5 0 5 -8t-5 -8h-415q-5 0 -5 8t5 8h10q30 0 46.5 1t41.5 6.5t37.5 20.5t12.5 39v583q0 101 -28.5 189.5
t-88.5 104.5q-42 11 -90 -15t-86.5 -68.5t-78.5 -103.5t-62 -103t-42 -83v-504q0 -16 5.5 -28.5t18.5 -19.5t23.5 -11t30.5 -6t29.5 -2h30.5h5.5h4.5q5 0 5 -8t-5 -8h-415q-5 0 -5 8t5 8h10q30 0 46.5 1t41.5 6.5t37.5 20.5t12.5 39v1249q0 17 -8 26.5t-24 4.5l-109 -35
q-3 -1 -5.5 1t-2 5.5t5.5 5.5l227 92q15 6 25 -2t10 -23z" />
    <glyph glyph-name="i" unicode="i" horiz-adv-x="458" 
d="M171 1216q57 107 65 107t65 -107q-57 -107 -65 -107t-65 107zM295 977v-894q0 -24 12.5 -39t38 -20.5t42 -6.5t46.5 -1h5.5h4.5q5 0 5 -8t-5 -8h-416q-5 0 -5 8t5 8h10q30 0 46.5 1t41.5 6.5t37.5 20.5t12.5 39v819q0 17 -8 26.5t-23 4.5l-109 -35q-3 -1 -6 1t-2.5 5.5
t5.5 5.5l228 92q14 6 24 -2t10 -23z" />
    <glyph glyph-name="j" unicode="j" horiz-adv-x="391" 
d="M161 1216q57 107 64 107q8 0 65 -107q-57 -107 -65 -107q-7 0 -64 107zM166 -92v994q0 17 -8 26.5t-24 4.5l-109 -35q-3 -1 -5.5 1t-2 5.5t5.5 5.5l227 92q15 6 25 -2t10 -23v-1067q0 -139 -59 -236.5t-156 -102.5q-115 -7 -231 141q-8 10 0 17q4 4 9 -2
q111 -136 201 -113q60 16 88.5 104.5t28.5 189.5z" />
    <glyph glyph-name="k" unicode="k" horiz-adv-x="933" 
d="M281 621q0 -1 7.5 11.5t21 35.5t32.5 52t43.5 62t51 65t58 61t63 51t66.5 34.5t68 10.5q99 -5 163 -116q-67 -18 -127.5 -59t-94.5 -96v28q43 59 119 102q-10 36 -31.5 62.5t-49.5 34.5q-50 13 -112.5 -25t-117 -104t-95.5 -128t-65 -111q53 29 100 35t83.5 -5.5
t71.5 -44t60 -69t54.5 -93.5t50 -105t50.5 -115t52 -112q22 -44 46.5 -55.5t71.5 -11.5q5 0 5 -8t-5 -8h-351q-5 0 -5 8t5 8q38 0 63 5q35 7 41.5 29t-11.5 70q-4 12 -15 42q-12 36 -19.5 56t-22.5 61t-27 67t-30.5 64t-35.5 61.5t-38 51.5t-43 42t-46 24.5t-51 7t-54 -18.5
v-495q0 -16 5.5 -28.5t18.5 -19.5t23.5 -11t30.5 -6t29.5 -2h30.5h5.5h4.5q5 0 5 -8t-5 -8h-415q-5 0 -5 8t5 8h10q30 0 46.5 1t41.5 6.5t37.5 20.5t12.5 39v1249q0 17 -8 26.5t-24 4.5l-109 -35q-3 -1 -5.5 1t-2 5.5t5.5 5.5l227 92q15 6 25 -2t10 -23v-786z" />
    <glyph glyph-name="l" unicode="l" horiz-adv-x="444" 
d="M281 83q0 -16 5.5 -28.5t18.5 -19.5t23.5 -11t30.5 -6t29.5 -2h30.5h5.5h4.5q5 0 5 -8t-5 -8h-415q-5 0 -5 8t5 8h10q30 0 46.5 1t41.5 6.5t37.5 20.5t12.5 39v1249q0 17 -8 26.5t-24 4.5l-109 -35q-3 -1 -5.5 1t-2 5.5t5.5 5.5l227 92q15 6 25 -2t10 -23v-1324z" />
    <glyph glyph-name="m" unicode="m" horiz-adv-x="1644" 
d="M297 977v-361q24 48 43.5 82.5t50.5 85.5t61.5 86.5t66.5 69.5t76.5 50t81.5 14q51 -3 90.5 -30t62.5 -66.5t38 -91.5t20 -98t5 -93q28 56 52.5 99t64 100.5t76.5 94.5t85.5 62.5t96.5 22.5q97 -5 156 -103t59 -237v-581q0 -16 5.5 -28.5t18.5 -19.5t23.5 -11t30.5 -6
t29.5 -2h30.5h10q5 0 5 -8t-5 -8h-416q-5 0 -5 8t5 8h10q30 0 46.5 1t41.5 6.5t37.5 20.5t12.5 39v583q0 101 -28 189.5t-88 104.5q-41 11 -87 -13.5t-84 -65t-77 -98.5t-62 -100.5t-44 -85.5v-514q0 -24 12.5 -39t38 -21t42.5 -7t47 -1h8q5 0 5 -7.5t-5 -7.5h-416
q-5 0 -5 7.5t5 7.5h8q30 0 47 1t42.5 7t38 21t12.5 39v545q0 301 -116 332q-42 11 -90 -15t-86.5 -68.5t-78.5 -103.5t-62 -103t-42 -83v-504q0 -16 5.5 -28.5t18.5 -19.5t23.5 -11t30.5 -6t29.5 -2h30.5h5.5h4.5q5 0 5 -8t-5 -8h-416q-5 0 -5 8t5 8h10q30 0 46.5 1
t41.5 6.5t37.5 20.5t12.5 39v819q0 17 -8 26.5t-23 4.5l-109 -35q-3 -1 -6 1t-2.5 5.5t5.5 5.5l228 91q15 6 24.5 -1.5t9.5 -22.5z" />
    <glyph glyph-name="n" unicode="n" horiz-adv-x="1052" 
d="M297 977v-361q30 58 53 100t64 102t78 97.5t86.5 64.5t98.5 24q97 -5 156.5 -103t59.5 -237v-581q0 -16 5.5 -28.5t18.5 -19.5t23.5 -11t30.5 -6t29.5 -2h30.5h10q5 0 5 -8t-5 -8h-416q-5 0 -5 8t5 8h10q30 0 46.5 1t41.5 6.5t37.5 20.5t12.5 39v583q0 101 -28 189.5
t-88 104.5q-42 11 -90 -15t-86.5 -68.5t-78.5 -103.5t-62 -103t-42 -83v-504q0 -16 5.5 -28.5t18.5 -19.5t23.5 -11t30.5 -6t29.5 -2h30.5h5.5h4.5q5 0 5 -8t-5 -8h-416q-5 0 -5 8t5 8h10q30 0 46.5 1t41.5 6.5t37.5 20.5t12.5 39v819q0 17 -8 26.5t-23 4.5l-109 -35
q-3 -1 -6 1t-2.5 5.5t5.5 5.5l228 91q15 6 24.5 -1.5t9.5 -22.5z" />
    <glyph glyph-name="o" unicode="o" horiz-adv-x="858" 
d="M797 502q0 -136 -50.5 -252t-135 -183t-182.5 -67t-183 67t-136 183t-51 252t51 252t136 183t183 67t182.5 -67t135 -183t50.5 -252zM182 519q-9 -126 19 -240.5t81.5 -185t117.5 -74.5t124.5 58.5t101 171.5t49.5 236q13 192 -51.5 338.5t-162.5 153.5q-64 4 -125.5 -56
t-103 -168t-50.5 -234z" />
    <glyph glyph-name="p" unicode="p" horiz-adv-x="980" 
d="M285 819v-439q159 -315 297 -327q96 -8 159 130q65 141 64 346q-1 217 -79 341q-54 87 -137 99q-68 10 -153 -26t-151 -124zM250 1001q15 6 25 -1.5t10 -22.5v-145q69 91 154 133.5t155 39.5q175 -9 260 -190q74 -158 55 -381q-18 -205 -102 -333q-87 -133 -204 -105
q-156 36 -318 355v-698q0 -16 5.5 -28.5t18.5 -19.5t23.5 -11t30.5 -6t29.5 -2h30.5h5.5h4.5q5 0 5 -8t-5 -8h-415q-5 0 -5 8t5 8h10q30 0 46.5 1t41.5 6.5t37.5 20.5t12.5 39v1249q0 17 -8 26.5t-24 4.5l-109 -35q-3 -1 -5.5 1t-2 5.5t5.5 5.5z" />
    <glyph glyph-name="q" unicode="q" horiz-adv-x="892" 
d="M668 750q-23 39 -59 80.5t-80 77.5t-93.5 53.5t-90.5 5.5q-43 -13 -77.5 -81t-52.5 -162t-20 -204t14 -206t57 -168t102 -90q58 -17 127.5 12.5t172.5 116.5v565zM668 779v179l119 46v-1351q0 -16 5.5 -28.5t18.5 -19.5t23.5 -11t30.5 -6t29.5 -2h30.5h10q5 0 5 -8t-5 -8
h-416q-5 0 -5 8t5 8h10q30 0 47 1t42 6.5t37.5 20.5t12.5 39v519q-184 -179 -331 -172q-63 3 -115 48t-84 116t-50 160.5t-19 182.5t16 182.5t48.5 159t83 112t116.5 43.5q93 1 181 -65t154 -160z" />
    <glyph glyph-name="r" unicode="r" horiz-adv-x="839" 
d="M295 977v-361q30 58 53 100t64 102t78 97.5t86.5 64.5t98.5 24q100 -5 164 -115q-67 -18 -127.5 -59t-94.5 -97v28q44 60 118 102q-23 81 -80 97q-36 10 -74.5 -5.5t-74.5 -51t-68 -75.5t-61.5 -90t-47.5 -84t-34 -67v-504q0 -24 12.5 -39t38 -20.5t42 -6.5t46.5 -1h5.5
h4.5q5 0 5 -8t-5 -8h-416q-5 0 -5 8t5 8h10q30 0 46.5 1t41.5 6.5t37.5 20.5t12.5 39v819q0 17 -8 26.5t-23 4.5l-109 -35q-3 -1 -6 1t-2.5 5.5t5.5 5.5l228 91q15 6 24.5 -1.5t9.5 -22.5z" />
    <glyph glyph-name="s" unicode="s" horiz-adv-x="716" 
d="M352 1004q66 0 132 -28t107 -85q-156 -41 -226 -157v28q44 60 118 102q-48 99 -137 112q-50 7 -96.5 -8.5t-73 -48.5t-33 -74t23 -89t93.5 -89q31 -19 87 -50.5t94.5 -54t86 -57.5t77 -68t50 -79.5t20.5 -98.5q1 -105 -85 -181.5t-227 -77.5q-189 2 -268 125
q159 35 233 145l-1 -27q-48 -59 -123 -97q23 -54 63.5 -88.5t94.5 -35.5q109 1 159 66.5t26 155.5q-12 46 -39.5 84t-68 67.5t-77.5 51t-88 49t-81 46.5q-62 40 -99 91t-47 101.5t5.5 99.5t53 86.5t101.5 60.5t145 23z" />
    <glyph glyph-name="t" unicode="t" horiz-adv-x="589" 
d="M128 982h-103q195 38 223 271v-249h249l-6 -22h-243v-645q0 -101 28 -189t88 -104q91 -24 202 113q7 9 11 -2q2 -8 -3 -14q-116 -148 -230 -141q-97 5 -156.5 103t-59.5 237v642z" />
    <glyph glyph-name="u" unicode="u" horiz-adv-x="1040" 
d="M756 388q-30 -58 -53 -100t-64 -102t-78 -97.5t-86.5 -64.5t-98.5 -24q-97 5 -156.5 103t-59.5 237v562q0 17 -8 26.5t-23 4.5l-109 -35q-3 -1 -5.5 1t-2 5.5t5.5 5.5l227 92q15 6 25 -2t10 -23v-640q0 -101 28 -189t88 -104q36 -10 74.5 5.5t74.5 51t68 75.5t61.5 90
t47.5 84t34 67v485q0 17 -8 26.5t-24 4.5l-109 -35q-3 -1 -5.5 1t-2 5.5t5.5 5.5l227 92q15 6 25 -2t10 -23v-894q0 -16 5.5 -28.5t18.5 -19.5t23.5 -11t30.5 -6t29.5 -2h30.5h10q5 0 5 -8t-5 -8h-415q-5 0 -5 8t5 8h10q30 0 46.5 1t41.5 6.5t37.5 20.5t12.5 39v305z" />
    <glyph glyph-name="v" unicode="v" 
d="M861 931q-56 -155 -166.5 -465.5t-165.5 -465.5h-17q-61 153 -183.5 460t-183.5 461q-10 24 -25.5 38.5t-39 20t-39.5 7t-44 1.5q-5 0 -5 8t5 8h416q5 0 5 -8t-5 -8q-32 0 -52 -1.5t-51 -7t-42.5 -20.5t-2.5 -38q50 -127 152 -381.5t152 -381.5q46 129 137.5 386
t137.5 386q7 21 -0.5 34t-29.5 17.5t-36 5.5t-38 1h-7q-5 0 -5 8t5 8h255q5 0 5 -8t-5 -8h-15.5h-17t-14.5 -0.5t-15 -1.5t-13 -3t-13.5 -5t-11 -7.5t-11 -10t-8.5 -13t-8 -16.5z" />
    <glyph glyph-name="w" unicode="w" horiz-adv-x="1300" 
d="M669 538q-24 64 -69.5 191.5t-69.5 191.5q-9 23 -23 37.5t-35 20.5t-37 7.5t-43 1.5q-30 0 -49.5 -1.5t-48.5 -7t-40.5 -20.5t-2.5 -38q48 -127 145 -381.5t145 -381.5q21 64 63.5 190t64.5 190zM678 516q-29 -86 -87.5 -258t-87.5 -258h-16q-58 153 -174.5 460
t-174.5 461q-9 24 -24 38.5t-37.5 20t-37.5 7t-42 1.5q-5 0 -5 8t5 8h777q5 0 5 -8t-5 -8q-29 0 -47.5 -1.5t-46.5 -7t-38.5 -20.5t-2.5 -38q46 -127 138.5 -381.5t139.5 -381.5q42 129 126 386t126 386q3 9 3 16t-2 12.5t-6 10t-9.5 7.5t-12 5t-13.5 3.5t-14.5 2.5t-14.5 1
h-14h-13h-6q-5 0 -5 8t5 8h233q5 0 5 -8t-5 -8h-10q-23 0 -34.5 -1t-27.5 -5.5t-26.5 -17t-17.5 -33.5q-51 -155 -152 -465.5t-151 -465.5h-16q-32 86 -94 258z" />
    <glyph glyph-name="x" unicode="x" horiz-adv-x="772" 
d="M459 465l152 -382q10 -24 25.5 -38.5t39 -20t39.5 -7t44 -1.5q5 0 5 -8t-5 -8h-415q-5 0 -5 8t5 8q19 0 31 0.5t34 2t36 5t28.5 10t19.5 17t2 24.5l-171 428l-153 -429q-7 -21 0.5 -34t29.5 -17.5t36.5 -5.5t38.5 -1h7q5 0 5 -8t-5 -8h-255q-5 0 -5 8t5 8h15.5h16.5
t14.5 0.5t15.5 1.5t13 3t13 5t10.5 7.5t11 10t8.5 13t8 16.5l161 452l-157 396q-10 24 -25.5 38.5t-39 20t-39.5 7t-44 1.5q-5 0 -5 8t5 8h415q5 0 5 -8t-5 -8q-19 0 -31 -0.5t-34 -2t-36 -5t-28.5 -10t-19.5 -17t-2 -24.5l176 -442l158 443q7 21 -0.5 34t-29.5 17.5
t-36 5.5t-38 1h-7q-5 0 -5 8t5 8h255q5 0 5 -8t-5 -8h-15.5h-17t-14.5 -0.5t-15 -1.5t-13 -3t-13.5 -5t-11 -7.5t-11 -10t-8.5 -13t-8 -16.5z" />
    <glyph glyph-name="y" unicode="y" horiz-adv-x="866" 
d="M43 -258q66 5 118 37.5t116 110.5q-48 17 -128 30.5t-142 4.5q-82 -13 -101.5 -60t23.5 -87.5t114 -35.5zM525 341q-38 -104 -60.5 -161t-66 -138t-95.5 -144q145 -42 263 -90l-8 -78q-154 119 -265 155q-137 -172 -279 -181q-99 -7 -147.5 45.5t-20 113.5t120.5 76
q64 10 153.5 -2.5t166.5 -34.5q79 102 130 208l-144 428l-128 383q-10 24 -25.5 38.5t-39 20t-39.5 7t-44 1.5q-5 0 -5 8t5 8h415q5 0 5 -8t-5 -8q-32 0 -52 -1.5t-51 -7t-42.5 -20.5t-2.5 -38l215 -664l245 674q7 20 -0.5 33t-28.5 17.5t-35 5.5t-39 1h-8q-5 0 -5 8t5 8
h255q5 0 5 -8t-5 -8h-15.5h-17t-14.5 -0.5t-15 -1.5t-13 -3t-13.5 -5t-11 -7.5t-11 -10t-8.5 -13t-8 -16.5z" />
    <glyph glyph-name="z" unicode="z" horiz-adv-x="675" 
d="M496 921q11 27 -6 47.5t-47 20.5h-255q-44 -1 -73 -42t-38 -83q-2 -10 -9 -7q-6 2 -4 9l40 138h550q-80 -154 -238.5 -461t-237.5 -460q-11 -27 6 -47.5t47 -20.5h256q30 1 55 24.5t37.5 49.5t17.5 51q2 10 9 7q6 -2 4 -9l-40 -138h-550q79 153 238 460t238 461z" />
    <glyph glyph-name="braceleft" unicode="{" horiz-adv-x="587" 
d="M90 741q35 1 61.5 15t42 41t25 54t13.5 66.5t5 66.5t1 64v7.5v6v6.5q1 150 7 190q15 96 83 131q59 30 173 30v-10q-77 0 -112.5 -50t-38 -130.5t2.5 -166t-3 -172.5t-43 -134q-24 -31 -62 -54q39 -24 62 -53q35 -47 43 -134t3 -172.5t-2.5 -166t38 -130.5t112.5 -50v-10
q-43 0 -78 4.5t-61 11.5t-46 21.5t-33 27.5t-21.5 36.5t-13.5 42.5t-7 51t-2.5 56t-0.5 64v36q-1 136 -12 189q-29 135 -136 138v77z" />
    <glyph glyph-name="verticalbar" unicode="|" horiz-adv-x="350" 
d="M231 -15h-112v1368h112v-1368z" />
    <glyph glyph-name="braceright" unicode="}" horiz-adv-x="587" 
d="M497 741v-77q-35 -1 -61.5 -15t-42 -41t-25 -54t-13.5 -66.5t-5 -66.5t-1 -64v-7.5v-6v-6.5q-1 -150 -7 -190q-15 -96 -83 -131q-59 -30 -173 -30v10q65 0 101 36.5t43.5 93.5t7.5 131.5t-4.5 144.5t6.5 138.5t41 108.5q24 30 61 53q-36 22 -61 54q-30 40 -41 108.5
t-6.5 138.5t4.5 144.5t-7.5 131.5t-43.5 93.5t-101 36.5v10q43 0 78 -4.5t61 -11.5t46 -21.5t33 -27.5t21.5 -36.5t13.5 -42.5t7 -51t2.5 -56t0.5 -64v-36q1 -136 12 -189q29 -135 136 -138z" />
    <glyph glyph-name="asciitilde" unicode="~" horiz-adv-x="704" 
d="M57 594q29 97 68.5 140.5t82 40t89 -26.5t94 -49.5t91.5 -38.5t87.5 16t77.5 105q-20 -86 -47 -138t-57.5 -70t-65 -17t-71 17.5t-73.5 36.5t-75 36.5t-72.5 21.5t-68 -12.5t-60.5 -61.5z" />
    <glyph glyph-name="nonbreakingspace" unicode="&#xa0;" horiz-adv-x="628" 
 />
    <glyph glyph-name="exclamdown" unicode="&#xa1;" horiz-adv-x="393" 
d="M290 -105h-188l52 1152h84zM238 1178h-84v150h84v-150z" />
    <glyph glyph-name="cent" unicode="&#xa2;" horiz-adv-x="892" 
d="M330 548l168 575q-24 3 -38 3q-60 0 -115 -35q-54 -35 -81 -106q-26 -69 -26 -167q0 -99 24 -168q24 -70 68 -102zM653 960q-20 85 -73 129l-169 -578q24 -7 46 -7q80 0 137 54q56 53 70 150l135 -15q-26 -140 -119 -220q-94 -80 -221 -80q-36 0 -78 11l-88 -299l-85 24
l88 301q-89 43 -143 138q-55 95 -55 243q0 133 44 230t132 145t180 48q22 0 75 -5l86 293l84 -24l-85 -293q76 -33 115 -87t56 -138z" />
    <glyph glyph-name="sterling" unicode="&#xa3;" horiz-adv-x="1148" 
d="M362 765h362v-135h-324q31 -83 14.5 -173.5t-54.5 -164t-90 -128.5q66 22 135.5 22.5t126.5 -14t121.5 -30t121 -26.5t125 -3t133.5 40l32 -90q-131 -56 -209 -58t-210 41q-74 22 -129.5 32t-116 8t-118.5 -23.5t-121 -63.5l-63 157q129 71 182 200.5t14 273.5h-181v135
h143q-47 161 -47 242q0 177 118 279.5t297 102.5q164 0 262.5 -91t123.5 -258l-103 -16q-12 128 -94 205t-190 74q-94 -3 -160 -36t-98.5 -86t-43 -122.5t0.5 -143t40 -150.5z" />
    <glyph glyph-name="currency" unicode="&#xa4;" horiz-adv-x="915" 
d="M260 828q0 -83 57 -140q57 -58 139 -58t139 58q58 58 58 140q0 80 -57 139q-57 58 -140 58q-82 0 -139 -58q-57 -57 -57 -139zM135 828q0 93 55 179l-106 103l88 90l105 -105q81 54 180 54q101 0 180 -54l105 105l88 -90l-106 -103q55 -86 55 -179t-55 -179l106 -104
l-88 -91l-105 107q-79 -55 -180 -55q-100 0 -180 55l-105 -107l-88 91l106 104q-55 86 -55 179z" />
    <glyph glyph-name="yen" unicode="&#xa5;" horiz-adv-x="1159" 
d="M639 707l-3 -7v-64h319v-34h-319v-519q0 -24 12.5 -39t38 -21t42.5 -7t47 -1h8q5 0 5 -7.5t-5 -7.5h-416q-5 0 -5 7.5t5 7.5h8q30 0 47 1t42.5 7t38 21t12.5 39v519h-312v34h312v37l-14 34h-298v33h285l-246 593q-28 50 -64 67.5t-108 17.5q-5 0 -5 7.5t5 7.5h372
q5 0 5 -7.5t-5 -7.5h-76q-12 0 -17 -10t0 -22l268 -646h10l286 610q3 12 5 21.5t-7 16.5t-16.5 12t-22.5 8.5t-26.5 5.5t-28 2.5t-27 1t-23.5 0.5q-5 0 -5 7.5t5 7.5h320q5 0 5 -7.5t-5 -7.5q-26 0 -43 -1.5t-39.5 -7.5t-38.5 -21t-27 -38l-286 -610h301v-33h-316z" />
    <glyph glyph-name="brokenbar" unicode="&#xa6;" horiz-adv-x="327" 
d="M117 -105v754h94v-754h-94zM117 790v754h94v-754h-94z" />
    <glyph glyph-name="section" unicode="&#xa7;" horiz-adv-x="942" 
d="M697 455q45 77 16 178q-16 56 -50 102.5t-84.5 84t-95 64t-109 61t-98.5 55.5q-7 4 -33 23q-33 -31 -48 -71t-11.5 -84t37 -90.5t94.5 -85.5q17 -11 167 -95.5t215 -141.5zM212 1049q-50 46 -76.5 103t-29 112.5t20 108t65 91.5t111.5 61.5t154 18.5q94 -4 174 -56
t122 -126q-47 -27 -93 -77.5t-76 -102.5v26q27 43 64 83q-2 42 -26 89t-70 86.5t-102 49.5q-52 10 -102 -3t-87.5 -42t-58.5 -71.5t-20 -88t34.5 -96t98.5 -91.5q38 -24 104 -61t113.5 -63.5t105 -67t95 -80t66.5 -95t35 -117.5q14 -133 -96 -226q84 -90 96 -205
q13 -126 -89.5 -219.5t-274.5 -94.5q-94 0 -183 41.5t-158 110.5q45 29 88.5 82t71.5 106v-29q-20 -34 -46 -67q1 -82 62.5 -152.5t164.5 -70.5q138 0 208 81t35 204q-16 56 -50 102.5t-84.5 84t-95 64t-109 61t-98.5 55.5q-100 62 -142.5 154.5t-20.5 181.5t99 145z" />
    <glyph glyph-name="copyright" unicode="&#xa9;" horiz-adv-x="1478" 
d="M1162 1112q-83 83 -193 129.5t-231 46.5t-230.5 -46.5t-192.5 -129.5t-129 -192t-46 -231t46 -231t129 -192t192 -129t231 -46t232 46.5t192 128.5q83 83 129 192t46 231t-46 231t-129 192zM878 472q58 44 76 119l103 -31q-25 -103 -107 -167q-82 -63 -198 -63
q-147 0 -240 96q-92 95 -92 265q0 111 42 192q42 83 119 124q76 41 178 41q113 0 185 -53q74 -54 101 -146l-100 -26q-26 65 -74 97q-49 34 -116 34q-96 0 -159 -69t-63 -197q0 -129 59 -194q58 -66 153 -66q75 0 133 44zM286 1142q89 89 205.5 138t246.5 49
q131 0 247.5 -49t205.5 -138t138 -205.5t49 -247.5q0 -130 -49 -246.5t-138 -205.5t-206 -138.5t-247 -49.5t-246.5 49.5t-205.5 138.5t-138.5 205.5t-49.5 246.5t49.5 247t138.5 206z" />
    <glyph glyph-name="guillemotleft" unicode="&#xab;" horiz-adv-x="778" 
d="M699 662l-194 -331l194 -331h-110l-230 331l230 331h110zM414 662l-190 -331l189 -331h-106l-233 331l233 331h107z" />
    <glyph glyph-name="softhyphen" unicode="&#xad;" horiz-adv-x="0" 
 />
    <glyph glyph-name="registered" unicode="&#xae;" horiz-adv-x="1478" 
d="M562 727h134q96 0 130 28q35 29 35 75q0 29 -17 54q-17 24 -46 36q-27 11 -111 11h-125v-204zM1337 684q0 122 -46 231t-129 192q-82 82 -192 128.5t-232 46.5t-231 -46t-192 -129t-129 -192t-46 -231t46 -231t129 -192t192 -129t231 -46t232 46.5t192 128.5
q83 83 129 192t46 231zM286 1137q89 89 205.5 138t246.5 49q131 0 247.5 -49t205.5 -138t138 -205.5t49 -247.5t-49 -247.5t-138 -205.5t-205.5 -138t-247.5 -49q-130 0 -246.5 49t-205.5 138t-138.5 206t-49.5 247t49.5 247t138.5 206zM562 344h-110v680h234q121 0 174 -19
q55 -20 86 -66q32 -47 32 -99q0 -74 -54 -130q-53 -55 -141 -62q36 -15 57 -36q42 -42 101 -135l83 -133h-133l-61 107q-74 129 -115 159q-29 22 -88 22h-65v-288z" />
    <glyph glyph-name="plusminus" unicode="&#xb1;" horiz-adv-x="798" 
d="M446 146h-94v270h-270v94h270v270h94v-270h270v-94h-270v-270zM82 0v94h634v-94h-634z" />
    <glyph glyph-name="paragraph" unicode="&#xb6;" horiz-adv-x="727" 
d="M388 0h-91v1196q-103 6 -162 67q-59 62 -59 155q0 106 66 169t193 63h347v-95h-78v-1555h-94v1555h-122v-1555z" />
    <glyph glyph-name="periodcentered" unicode="&#xb7;" horiz-adv-x="253" 
d="M199 860h-146v146h146v-146z" />
    <glyph glyph-name="guillemotright" unicode="&#xbb;" horiz-adv-x="776" 
d="M269 331l-193 331h110l229 -331l-229 -331h-110zM550 331l-190 331h107l234 -331l-234 -331h-106z" />
    <glyph glyph-name="Agrave" unicode="&#xc0;" horiz-adv-x="1372" 
d="M624 1840q-11 -43 -13 -85.5t5.5 -86t11.5 -59.5t14 -50l-39 -16l-174 339zM255 764v16h128l211 579q-25 34 -59 46.5t-96 12.5q-5 0 -5 8t5 8h260q87 -222 260.5 -667t259.5 -667q28 -50 63.5 -67t108.5 -17q5 0 5 -8t-5 -8h-372q-5 0 -5 8t5 8h75q12 0 17.5 10t0.5 21
l-501 1284l-197 -551h370v-16h-376l-243 -681q-8 -24 3 -38.5t40 -20t48.5 -7t51.5 -1.5h2q5 0 5 -8t-5 -8h-327q-5 0 -5 8t5 8q27 0 43.5 1.5t39 7.5t38.5 20.5t27 37.5l247 681h-123z" />
    <glyph glyph-name="Aacute" unicode="&#xc1;" horiz-adv-x="1372" 
d="M598 1840q30 6 195 42q-57 -112 -173 -339l-39 16q48 164 17 281zM255 780h128l211 579q-25 34 -59 46.5t-96 12.5q-5 0 -5 8t5 8h260q87 -222 260.5 -667t259.5 -667q28 -50 63.5 -67t108.5 -17q5 0 5 -8t-5 -8h-372q-5 0 -5 8t5 8h75q12 0 17.5 10t0.5 21l-501 1284
l-197 -551h370v-16h-376l-243 -681q-8 -24 3 -38.5t40 -20t48.5 -7t51.5 -1.5h2q5 0 5 -8t-5 -8h-327q-5 0 -5 8t5 8q27 0 43.5 1.5t39 7.5t38.5 20.5t27 37.5l247 681h-123v16z" />
    <glyph glyph-name="Acircumflex" unicode="&#xc2;" horiz-adv-x="1372" 
d="M864 1552h-147q-3 106 -68 221q-65 -115 -68 -221h-147q4 11 14.5 32t62 94.5t127.5 157.5h22q76 -84 127 -155t64 -100zM255 764v16h128l211 579q-25 34 -59 46.5t-96 12.5q-5 0 -5 8t5 8h260q87 -222 260.5 -667t259.5 -667q28 -50 63.5 -67t108.5 -17q5 0 5 -8t-5 -8
h-372q-5 0 -5 8t5 8h75q12 0 17.5 10t0.5 21l-501 1284l-197 -551h370v-16h-376l-243 -681q-8 -24 3 -38.5t40 -20t48.5 -7t51.5 -1.5h2q5 0 5 -8t-5 -8h-327q-5 0 -5 8t5 8q27 0 43.5 1.5t39 7.5t38.5 20.5t27 37.5l247 681h-123z" />
    <glyph glyph-name="Atilde" unicode="&#xc3;" horiz-adv-x="1372" 
d="M405 1577q25 65 58.5 94t70 27t76 -17.5t80 -33t78 -25.5t75 10.5t66.5 70.5q-21 -73 -52.5 -109.5t-67.5 -40t-76 8.5t-82 30t-80.5 29.5t-77.5 2t-68 -46.5zM255 764v16h128l211 579q-25 34 -59 46.5t-96 12.5q-5 0 -5 8t5 8h260q87 -222 260.5 -667t259.5 -667
q28 -50 63.5 -67t108.5 -17q5 0 5 -8t-5 -8h-372q-5 0 -5 8t5 8h75q12 0 17.5 10t0.5 21l-501 1284l-197 -551h370v-16h-376l-243 -681q-8 -24 3 -38.5t40 -20t48.5 -7t51.5 -1.5h2q5 0 5 -8t-5 -8h-327q-5 0 -5 8t5 8q27 0 43.5 1.5t39 7.5t38.5 20.5t27 37.5l247 681h-123
z" />
    <glyph glyph-name="Adieresis" unicode="&#xc4;" horiz-adv-x="1372" 
d="M746 1552q-29 36 -86 107q29 35 86 107l86 -107zM628 1659l-85 -107q-29 36 -86 107q29 35 86 107zM255 780h128l211 579q-25 34 -59 46.5t-96 12.5q-5 0 -5 8t5 8h260q87 -222 260.5 -667t259.5 -667q28 -50 63.5 -67t108.5 -17q5 0 5 -8t-5 -8h-372q-5 0 -5 8t5 8h75
q12 0 17.5 10t0.5 21l-501 1284l-197 -551h370v-16h-376l-243 -681q-8 -24 3 -38.5t40 -20t48.5 -7t51.5 -1.5h2q5 0 5 -8t-5 -8h-327q-5 0 -5 8t5 8q27 0 43.5 1.5t39 7.5t38.5 20.5t27 37.5l247 681h-123v16z" />
    <glyph glyph-name="Aring" unicode="&#xc5;" horiz-adv-x="1372" 
d="M679 1615q-29 29 -69 29t-69 -29t-29 -69t29 -69t69 -29t69 29t29 69t-29 69zM255 780h128l211 579q-25 34 -59 46.5t-96 12.5q-5 0 -5 8t5 8h72q-1 1 -3.5 3t-3.5 3q-44 44 -44 106t44 106t106 44t106 -44t44 -106t-44 -106q-5 -5 -15 -13q87 -221 259.5 -663.5
t258.5 -663.5q28 -50 63.5 -67t108.5 -17q5 0 5 -8t-5 -8h-372q-5 0 -5 8t5 8q3 0 37 -0.5t38 -0.5q12 0 17.5 10t0.5 22l-501 1284l-197 -551h370v-16h-376l-243 -681q-8 -24 3 -38.5t40 -20t48.5 -7t51.5 -1.5h2q5 0 5 -8t-5 -8h-327q-5 0 -5 8t5 8q27 0 43.5 1.5t39 7.5
t38.5 20.5t27 37.5l247 681h-123v16z" />
    <glyph glyph-name="AE" unicode="&#xc6;" horiz-adv-x="1425" 
d="M1337 1434l49 -190l-15 -4l-62 117q-31 61 -94 61h-303q-24 0 -41.5 -2.5t-37 -9t-29.5 -21t-10 -35.5v-549h294q43 0 74 28.5t35 71.5l4 44h10v-303h-10l-4 44q-4 43 -35 71.5t-74 28.5h-294v-703q0 -21 10 -35.5t29.5 -20.5t36.5 -8.5t42 -2.5h303q63 0 94 60l62 117
l15 -4l-49 -189h-811q-5 0 -5 8t5 8h10q30 0 46.5 1t41.5 6.5t37.5 20.5t12.5 39v703h-258l-251 -703q-8 -24 3 -38.5t40 -20t48.5 -7t51.5 -1.5h2q5 0 5 -8t-5 -8h-327q-5 0 -5 8t5 8q27 0 43.5 1.5t39 7.5t38.5 20.5t27 37.5q134 369 248.5 684.5t214.5 591.5
q-25 34 -59 46.5t-96 12.5q-5 0 -5 8t5 8h898zM674 1350q0 40 -36 55l-54 -150l-162 -454h252v549z" />
    <glyph glyph-name="Ccedilla" unicode="&#xc7;" horiz-adv-x="1019" 
d="M496 6q-116 22 -215.5 121t-159.5 255.5t-60 334.5q0 145 41.5 278.5t109.5 229t159 152.5t187 57q122 0 219 -58.5t188 -176.5l-221 -319l-12 5l138 268q-37 94 -119 166.5t-157 84.5q-135 16 -236 -113.5t-134 -329t-22 -404t99 -358.5t229 -173q48 -5 100 4t110 35.5
t115 82t102 134.5l37 -2q-38 -60 -75.5 -104t-88.5 -86t-116.5 -65t-142.5 -25l-17 -53q48 -6 74 -30q25 -24 25 -54q0 -43 -42 -76t-125 -33h-84l6 73q25 -1 55 -1q55 0 77 15q17 12 17 28q0 9 -7 18q-7 8 -24 14q-18 6 -59 6z" />
    <glyph glyph-name="Egrave" unicode="&#xc8;" horiz-adv-x="931" 
d="M548 1846q-31 -117 17 -281l-39 -17l-173 340zM180 83v1267q0 24 -12.5 39t-38 21t-42.5 7t-47 1h-8q-5 0 -5 8t5 8h811l49 -190l-15 -4l-62 117q-31 61 -94 61h-303q-24 0 -41.5 -2.5t-37 -9t-29.5 -21t-10 -35.5v-549h294q43 0 74 28.5t35 71.5l4 44h10v-303h-10l-4 44
q-4 43 -35 71.5t-74 28.5h-294v-703q0 -21 10 -35.5t29.5 -20.5t36.5 -8.5t42 -2.5h303q63 0 94 60l62 117l15 -4l-49 -189h-811q-5 0 -5 8t5 8h10q30 0 46.5 1t41.5 6.5t37.5 20.5t12.5 39z" />
    <glyph glyph-name="Eacute" unicode="&#xc9;" horiz-adv-x="931" 
d="M371 1846q29 6 194 42q-57 -113 -173 -340l-39 17q8 28 10.5 37t10.5 46t9 62t-1 63t-11 73zM180 83v1267q0 24 -12.5 39t-38 21t-42.5 7t-47 1h-8q-5 0 -5 8t5 8h811l49 -190l-15 -4l-62 117q-31 61 -94 61h-303q-24 0 -41.5 -2.5t-37 -9t-29.5 -21t-10 -35.5v-549h294
q43 0 74 28.5t35 71.5l4 44h10v-303h-10l-4 44q-4 43 -35 71.5t-74 28.5h-294v-703q0 -21 10 -35.5t29.5 -20.5t36.5 -8.5t42 -2.5h303q63 0 94 60l62 117l15 -4l-49 -189h-811q-5 0 -5 8t5 8h10q30 0 46.5 1t41.5 6.5t37.5 20.5t12.5 39z" />
    <glyph glyph-name="Ecircumflex" unicode="&#xca;" horiz-adv-x="931" 
d="M674 1558h-147q-3 105 -68 220q-64 -114 -67 -220h-148q4 11 14.5 31.5t62 94t127.5 157.5h23q76 -84 126.5 -155t63.5 -100zM180 83v1267q0 24 -12.5 39t-38 21t-42.5 7t-47 1h-8q-5 0 -5 8t5 8h811l49 -190l-15 -4l-62 117q-31 61 -94 61h-303q-24 0 -41.5 -2.5t-37 -9
t-29.5 -21t-10 -35.5v-549h294q43 0 74 28.5t35 71.5l4 44h10v-303h-10l-4 44q-4 43 -35 71.5t-74 28.5h-294v-703q0 -21 10 -35.5t29.5 -20.5t36.5 -8.5t42 -2.5h303q63 0 94 60l62 117l15 -4l-49 -189h-811q-5 0 -5 8t5 8h10q30 0 46.5 1t41.5 6.5t37.5 20.5t12.5 39z" />
    <glyph glyph-name="Edieresis" unicode="&#xcb;" horiz-adv-x="931" 
d="M561 1558q-29 35 -86 106q29 36 86 108l86 -108zM443 1664l-85 -106q-29 35 -86 106q29 36 86 108zM180 83v1267q0 24 -12.5 39t-38 21t-42.5 7t-47 1h-8q-5 0 -5 8t5 8h811l49 -190l-15 -4l-62 117q-31 61 -94 61h-303q-24 0 -41.5 -2.5t-37 -9t-29.5 -21t-10 -35.5
v-549h294q43 0 74 28.5t35 71.5l4 44h10v-303h-10l-4 44q-4 43 -35 71.5t-74 28.5h-294v-703q0 -21 10 -35.5t29.5 -20.5t36.5 -8.5t42 -2.5h303q63 0 94 60l62 117l15 -4l-49 -189h-811q-5 0 -5 8t5 8h10q30 0 46.5 1t41.5 6.5t37.5 20.5t12.5 39z" />
    <glyph glyph-name="Igrave" unicode="&#xcc;" horiz-adv-x="477" 
d="M326 1846q-11 -43 -13 -85.5t5.5 -86t11.5 -59.5t14 -50l-39 -17l-173 340zM178 83v1267q0 24 -12.5 39t-38 21t-42.5 7t-47 1h-8q-5 0 -5 8t5 8h416q5 0 5 -8t-5 -8h-8q-30 0 -47 -1t-42.5 -7t-38 -21t-12.5 -39v-1267q0 -16 5.5 -28.5t18.5 -19.5t23.5 -11t30.5 -6
t29.5 -2h30.5h5.5h4.5q5 0 5 -8t-5 -8h-416q-5 0 -5 8t5 8h10q30 0 46.5 1t41.5 6.5t37.5 20.5t12.5 39z" />
    <glyph glyph-name="Iacute" unicode="&#xcd;" horiz-adv-x="477" 
d="M149 1846q30 6 195 42q-57 -113 -173 -340l-39 17q48 164 17 281zM178 83v1267q0 24 -12.5 39t-38 21t-42.5 7t-47 1h-8q-5 0 -5 8t5 8h416q5 0 5 -8t-5 -8h-8q-30 0 -47 -1t-42.5 -7t-38 -21t-12.5 -39v-1267q0 -16 5.5 -28.5t18.5 -19.5t23.5 -11t30.5 -6t29.5 -2h30.5
h5.5h4.5q5 0 5 -8t-5 -8h-416q-5 0 -5 8t5 8h10q30 0 46.5 1t41.5 6.5t37.5 20.5t12.5 39z" />
    <glyph glyph-name="Icircumflex" unicode="&#xce;" horiz-adv-x="479" 
d="M454 1558h-147q-3 105 -68 220q-64 -114 -67 -220h-147q4 11 14 31.5t61.5 94t127.5 157.5h23q76 -84 126.5 -155t63.5 -100zM180 83v1267q0 24 -12.5 39t-38 21t-42.5 7t-47 1h-8q-5 0 -5 8t5 8h415q5 0 5 -8t-5 -8h-8q-30 0 -47 -1t-42.5 -7t-38 -21t-12.5 -39v-1267
q0 -16 5.5 -28.5t18.5 -19.5t23.5 -11t30.5 -6t29.5 -2h30.5h5.5h4.5q5 0 5 -8t-5 -8h-415q-5 0 -5 8t5 8h10q30 0 46.5 1t41.5 6.5t37.5 20.5t12.5 39z" />
    <glyph glyph-name="Idieresis" unicode="&#xcf;" horiz-adv-x="477" 
d="M339 1558q-28 35 -85 106q28 36 85 108l86 -108zM222 1664l-86 -106q-29 35 -86 106q29 36 86 108zM178 83v1267q0 24 -12.5 39t-38 21t-42.5 7t-47 1h-8q-5 0 -5 8t5 8h416q5 0 5 -8t-5 -8h-8q-30 0 -47 -1t-42.5 -7t-38 -21t-12.5 -39v-1267q0 -16 5.5 -28.5
t18.5 -19.5t23.5 -11t30.5 -6t29.5 -2h30.5h5.5h4.5q5 0 5 -8t-5 -8h-416q-5 0 -5 8t5 8h10q30 0 46.5 1t41.5 6.5t37.5 20.5t12.5 39z" />
    <glyph glyph-name="Eth" unicode="&#xd0;" horiz-adv-x="1179" 
d="M41 688v58h153v604q0 24 -12.5 39t-38 21t-42.5 7t-47 1h-8q-5 0 -5 8t5 8h437q253 0 444 -193q128 -128 174 -326t0 -396.5t-174 -326.5q-190 -192 -444 -192h-437q-5 0 -5 7.5t5 7.5h8q30 0 47 1t42.5 7t38 21t12.5 39v605h-153zM314 688v-605q0 -61 96 -67
q120 0 217 41.5t160.5 111t105.5 163.5t59 194.5t15 208.5q-2 104 -23 200t-64.5 185t-106.5 154t-156.5 104t-206.5 39q-96 -6 -96 -67v-604h307v-58h-307z" />
    <glyph glyph-name="Ntilde" unicode="&#xd1;" horiz-adv-x="1224" 
d="M360 1583q25 65 58.5 94t70 26.5t76 -17.5t80 -33t78 -26t75 10.5t66.5 70.5q-21 -73 -52.5 -109.5t-67.5 -39.5t-76 8.5t-82 29.5t-80.5 29.5t-77.5 2.5t-68 -46zM276 1434l750 -1219v1135q0 24 -12.5 39t-38 21t-42.5 7t-47 1h-8q-5 0 -5 8t5 8h320q5 0 5 -8t-5 -8h-8
q-30 0 -47 -1t-42.5 -7t-38 -21t-12.5 -39v-1350h-31l-821 1333v-1250q0 -16 5.5 -28.5t18.5 -19.5t23.5 -11t30.5 -6t29.5 -2h30.5h5.5h4.5q5 0 5 -8t-5 -8h-320q-5 0 -5 8t5 8h10q30 0 46.5 1t41.5 6.5t37.5 20.5t12.5 39v1351h102z" />
    <glyph glyph-name="Ograve" unicode="&#xd2;" horiz-adv-x="1091" 
d="M581 1404q-131 16 -230 -113.5t-132.5 -328t-24.5 -402.5t94 -357.5t222 -172.5q131 -16 230 113.5t132.5 328t24.5 402.5t-94 357.5t-222 172.5zM439 1888l195 -42q-11 -43 -13 -85.5t5.5 -86t11.5 -59.5t14 -50l-40 -17zM63 717q0 196 63 360.5t174.5 260.5t245.5 96
t245 -96t173.5 -260.5t62.5 -360.5t-63 -360.5t-174.5 -260.5t-245.5 -96t-245 96t-173.5 260.5t-62.5 360.5z" />
    <glyph glyph-name="Oacute" unicode="&#xd3;" horiz-adv-x="1091" 
d="M581 1404q-131 16 -230 -113.5t-132.5 -328t-24.5 -402.5t94 -357.5t222 -172.5q131 -16 230 113.5t132.5 328t24.5 402.5t-94 357.5t-222 172.5zM457 1846q30 6 195 42q-58 -113 -174 -340l-39 17q8 28 10.5 37t10.5 46t9 62t-1 63t-11 73zM63 717q0 196 63 360.5
t174.5 260.5t245.5 96t245 -96t173.5 -260.5t62.5 -360.5t-63 -360.5t-174.5 -260.5t-245.5 -96t-245 96t-173.5 260.5t-62.5 360.5z" />
    <glyph glyph-name="Ocircumflex" unicode="&#xd4;" horiz-adv-x="1091" 
d="M581 1404q-131 16 -230 -113.5t-132.5 -328t-24.5 -402.5t94 -357.5t222 -172.5q131 -16 230 113.5t132.5 328t24.5 402.5t-94 357.5t-222 172.5zM760 1558h-147q-3 105 -68 220q-64 -114 -67 -220h-147q4 11 14 31.5t61.5 94t127.5 157.5h23q76 -84 126.5 -155
t63.5 -100zM63 717q0 196 63 360.5t174.5 260.5t245.5 96t245 -96t173.5 -260.5t62.5 -360.5t-63 -360.5t-174.5 -260.5t-245.5 -96t-245 96t-173.5 260.5t-62.5 360.5z" />
    <glyph glyph-name="Otilde" unicode="&#xd5;" horiz-adv-x="1091" 
d="M581 1404q-131 16 -230 -113.5t-132.5 -328t-24.5 -402.5t94 -357.5t222 -172.5q131 -16 230 113.5t132.5 328t24.5 402.5t-94 357.5t-222 172.5zM797 1708q-21 -73 -52.5 -109.5t-67.5 -39.5t-76 8.5t-82 29.5t-80.5 29.5t-77.5 2.5t-68 -46q25 65 58.5 94t70 26.5
t76 -17.5t80 -33t78 -26t75 10.5t66.5 70.5zM63 717q0 196 63 360.5t174.5 260.5t245.5 96t245 -96t173.5 -260.5t62.5 -360.5t-63 -360.5t-174.5 -260.5t-245.5 -96t-245 96t-173.5 260.5t-62.5 360.5z" />
    <glyph glyph-name="Odieresis" unicode="&#xd6;" horiz-adv-x="1091" 
d="M581 1404q-131 16 -230 -113.5t-132.5 -328t-24.5 -402.5t94 -357.5t222 -172.5q131 -16 230 113.5t132.5 328t24.5 402.5t-94 357.5t-222 172.5zM733 1664l-86 -106q-29 35 -86 106q29 36 86 108zM529 1664l-85 -106q-29 35 -86 106q29 36 86 108zM63 717
q0 196 63 360.5t174.5 260.5t245.5 96t245 -96t173.5 -260.5t62.5 -360.5t-63 -360.5t-174.5 -260.5t-245.5 -96t-245 96t-173.5 260.5t-62.5 360.5z" />
    <glyph glyph-name="multiply" unicode="&#xd7;" horiz-adv-x="663" 
d="M588 493l-66 -66l-191 191l-191 -191l-66 66l191 191l-191 191l66 66l191 -190l191 190l66 -66l-190 -191z" />
    <glyph glyph-name="Oslash" unicode="&#xd8;" horiz-adv-x="1118" 
d="M869 1105l-592 -848q86 -204 247 -227q80 -10 149.5 36.5t116.5 131t78.5 198t42 235.5t0 246.5t-41.5 227.5zM595 1404q-80 10 -149 -36.5t-116.5 -131t-79 -198t-41.5 -235.5t0.5 -246.5t41.5 -227.5l592 848q-86 204 -248 227zM78 717q0 196 63 360.5t174.5 260.5
t245.5 96q192 0 329 -190l98 141l51 -36l-113 -162q116 -203 116 -470q0 -196 -63 -360.5t-174.5 -260.5t-245.5 -96q-193 0 -329 189l-99 -141l-51 36l113 162q-115 201 -115 471z" />
    <glyph glyph-name="Ugrave" unicode="&#xd9;" horiz-adv-x="1257" 
d="M715 1846q-11 -43 -13 -85.5t5.5 -86t11.5 -59.5t14 -50l-39 -17l-174 340zM1066 527v823q0 24 -12.5 39t-38 21t-42.5 7t-47 1h-8q-5 0 -5 8t5 8h320q5 0 5 -8t-5 -8h-8q-30 0 -47 -1t-42.5 -7t-38 -21t-12.5 -39v-823q0 -78 -15 -152.5t-47 -143t-78.5 -119.5
t-115 -81.5t-150.5 -30.5q-127 0 -227 46.5t-163 130.5t-96 196t-34 247v730q0 24 -12.5 39t-38 21t-42.5 7t-47 1h-8q-5 0 -5 8t5 8h415q5 0 5 -8t-5 -8h-8q-30 0 -47 -1t-42.5 -7t-38 -21t-12.5 -39v-721q0 -86 9.5 -164t37 -160.5t70.5 -142t116 -98t168 -38.5
q97 0 172 43.5t119.5 116.5t67 159.5t23.5 181.5z" />
    <glyph glyph-name="Uacute" unicode="&#xda;" horiz-adv-x="1257" 
d="M538 1846q30 6 195 42q-57 -113 -173 -340l-40 17q8 28 10.5 37t10.5 46t9 62t-1 63t-11 73zM1066 527v823q0 24 -12.5 39t-38 21t-42.5 7t-47 1h-8q-5 0 -5 8t5 8h320q5 0 5 -8t-5 -8h-8q-30 0 -47 -1t-42.5 -7t-38 -21t-12.5 -39v-823q0 -78 -15 -152.5t-47 -143
t-78.5 -119.5t-115 -81.5t-150.5 -30.5q-127 0 -227 46.5t-163 130.5t-96 196t-34 247v730q0 24 -12.5 39t-38 21t-42.5 7t-47 1h-8q-5 0 -5 8t5 8h415q5 0 5 -8t-5 -8h-8q-30 0 -47 -1t-42.5 -7t-38 -21t-12.5 -39v-721q0 -86 9.5 -164t37 -160.5t70.5 -142t116 -98
t168 -38.5q97 0 172 43.5t119.5 116.5t67 159.5t23.5 181.5z" />
    <glyph glyph-name="Ucircumflex" unicode="&#xdb;" horiz-adv-x="1257" 
d="M842 1558h-148q-3 106 -67 220q-65 -115 -68 -220h-147q4 11 14 31.5t61.5 94t127.5 157.5h23q76 -84 127 -155t64 -100zM1066 527v823q0 24 -12.5 39t-38 21t-42.5 7t-47 1h-8q-5 0 -5 8t5 8h320q5 0 5 -8t-5 -8h-8q-30 0 -47 -1t-42.5 -7t-38 -21t-12.5 -39v-823
q0 -78 -15 -152.5t-47 -143t-78.5 -119.5t-115 -81.5t-150.5 -30.5q-127 0 -227 46.5t-163 130.5t-96 196t-34 247v730q0 24 -12.5 39t-38 21t-42.5 7t-47 1h-8q-5 0 -5 8t5 8h415q5 0 5 -8t-5 -8h-8q-30 0 -47 -1t-42.5 -7t-38 -21t-12.5 -39v-721q0 -86 9.5 -164
t37 -160.5t70.5 -142t116 -98t168 -38.5q97 0 172 43.5t119.5 116.5t67 159.5t23.5 181.5z" />
    <glyph glyph-name="Udieresis" unicode="&#xdc;" horiz-adv-x="1257" 
d="M728 1558q-28 35 -85 106q28 36 85 108l86 -108zM611 1664l-86 -106q-29 35 -86 106q29 36 86 108zM1066 527v823q0 24 -12.5 39t-38 21t-42.5 7t-47 1h-8q-5 0 -5 8t5 8h320q5 0 5 -8t-5 -8h-8q-30 0 -47 -1t-42.5 -7t-38 -21t-12.5 -39v-823q0 -78 -15 -152.5t-47 -143
t-78.5 -119.5t-115 -81.5t-150.5 -30.5q-127 0 -227 46.5t-163 130.5t-96 196t-34 247v730q0 24 -12.5 39t-38 21t-42.5 7t-47 1h-8q-5 0 -5 8t5 8h415q5 0 5 -8t-5 -8h-8q-30 0 -47 -1t-42.5 -7t-38 -21t-12.5 -39v-721q0 -86 9.5 -164t37 -160.5t70.5 -142t116 -98
t168 -38.5q97 0 172 43.5t119.5 116.5t67 159.5t23.5 181.5z" />
    <glyph glyph-name="Yacute" unicode="&#xdd;" horiz-adv-x="978" 
d="M401 1846q29 6 194 42q-58 -113 -173 -340l-39 17q8 28 10.5 37t10.5 46t9 62t-1 63t-11 73zM850 1351l-304 -651v-617q0 -16 5.5 -28.5t18.5 -19.5t23.5 -11t30.5 -6t29.5 -2h30.5h10q5 0 5 -8t-5 -8h-416q-5 0 -5 8t5 8h10q30 0 46.5 1t41.5 6.5t37.5 20.5t12.5 39v590
l-273 660q-28 50 -64 67.5t-108 17.5q-5 0 -5 8t5 8h371q5 0 5 -8t-5 -8h-75q-12 0 -17 -10t0 -22l273 -657l290 622q4 9 4.5 17.5t-3 14.5t-9 11t-15 8.5t-18 6.5t-21 4.5t-22 2.5t-22.5 1.5t-21 0.5h-18q-5 0 -5 8t5 8h320q5 0 5 -8t-5 -8q-27 0 -43.5 -1.5t-39 -7.5
t-38.5 -20.5t-27 -37.5z" />
    <glyph glyph-name="Thorn" unicode="&#xde;" horiz-adv-x="1071" 
d="M699 961h-401v-488h401q56 0 102.5 21t75.5 55.5t45 78t17 89.5t-14 89.5t-43.5 78t-76 55.5t-106.5 21zM178 83v1267q0 24 -12.5 39t-38 21t-42.5 7t-47 1h-8q-5 0 -5 8t5 8h416q5 0 5 -8t-5 -8h-8q-30 0 -47 -1t-42.5 -7t-38 -21t-12.5 -39v-285h401q85 0 153 -30
t108.5 -79t61.5 -111.5t19.5 -127.5t-25 -127.5t-65 -111.5t-107 -79t-145.5 -30h-401v-286q0 -16 5.5 -28.5t18.5 -19.5t23.5 -11t30.5 -6t29.5 -2h30.5h5.5h4.5q5 0 5 -8t-5 -8h-416q-5 0 -5 8t5 8h10q30 0 46.5 1t41.5 6.5t37.5 20.5t12.5 39z" />
    <glyph glyph-name="germandbls" unicode="&#xdf;" horiz-adv-x="1073" 
d="M543 775q0 47 26 103t56.5 100t52 102t14.5 109q-10 68 -78 108.5t-142 40.5q-60 0 -104.5 -19t-70.5 -48.5t-42 -75t-21.5 -90t-6.5 -101.5l-11 -980h-114v946q0 89 8.5 156t33 127.5t64.5 99t105.5 61t155.5 22.5q64 0 123.5 -16.5t110 -48.5t81 -85.5t30.5 -120.5
q0 -54 -22.5 -112.5t-49.5 -99.5t-49.5 -89t-22.5 -84t38 -77t86.5 -72.5t104 -70.5t78.5 -67q72 -91 59 -204t-96 -193q-67 -65 -156 -86t-172 -0.5t-156 78.5t-110 142l92 43q93 -155 228 -172q102 -14 180 52q74 62 73 150q0 67 -46 125q-22 28 -66.5 59.5t-87 58.5
t-84 59.5t-67 75.5t-25.5 94z" />
    <glyph glyph-name="agrave" unicode="&#xe0;" 
d="M720 186v518q-13 -48 -60 -82.5t-100 -51.5t-125 -42.5t-115 -50.5q-74 -44 -105 -117t-17.5 -141t66.5 -122t133 -64q83 -11 169 26t154 127zM400 1443l194 -42q-11 -43 -13 -86t5.5 -86t11.5 -60t14 -50l-39 -16zM720 68v95q-134 -163 -327 -163q-90 0 -162 28
t-113.5 73.5t-62.5 101t-15.5 113t33.5 106.5q32 55 90 92t121.5 53.5t133.5 31.5t128 25.5t103.5 34t60.5 59.5q42 100 -28 187t-186 84q-67 -2 -110.5 -31t-56 -69t-10 -79t18.5 -64l-164 -66q0 76 29.5 139.5t76.5 102.5t102 60.5t109 21.5q85 0 152.5 -31.5t109.5 -86
t64 -124t22 -147.5v-532q0 -19 8 -32.5t17.5 -20.5t28.5 -10t30 -3.5t34 -0.5h10q5 0 5 -8t-5 -8h-180q-28 0 -47.5 20t-19.5 48z" />
    <glyph glyph-name="aacute" unicode="&#xe1;" 
d="M720 186v518q-13 -48 -60 -82.5t-100 -51.5t-125 -42.5t-115 -50.5q-74 -44 -105 -117t-17.5 -141t66.5 -122t133 -64q83 -11 169 26t154 127zM417 1401q30 6 195 42q-58 -113 -173 -340l-40 16q10 33 14 50t11.5 60t5.5 86t-13 86zM720 68v95q-134 -163 -327 -163
q-90 0 -162 28t-113.5 73.5t-62.5 101t-15.5 113t33.5 106.5q32 55 90 92t121.5 53.5t133.5 31.5t128 25.5t103.5 34t60.5 59.5q42 100 -28 187t-186 84q-67 -2 -110.5 -31t-56 -69t-10 -79t18.5 -64l-164 -66q0 76 29.5 139.5t76.5 102.5t102 60.5t109 21.5
q85 0 152.5 -31.5t109.5 -86t64 -124t22 -147.5v-532q0 -19 8 -32.5t17.5 -20.5t28.5 -10t30 -3.5t34 -0.5h10q5 0 5 -8t-5 -8h-180q-28 0 -47.5 20t-19.5 48z" />
    <glyph glyph-name="acircumflex" unicode="&#xe2;" 
d="M720 186v518q-13 -48 -60 -82.5t-100 -51.5t-125 -42.5t-115 -50.5q-74 -44 -105 -117t-17.5 -141t66.5 -122t133 -64q83 -11 169 26t154 127zM573 1113q-3 106 -67 220q-65 -115 -68 -220h-147q4 11 14 31.5t61.5 94t127.5 157.5h23q76 -84 127 -155t64 -99l13 -29h-148
zM720 68v95q-134 -163 -327 -163q-90 0 -162 28t-113.5 73.5t-62.5 101t-15.5 113t33.5 106.5q32 55 90 92t121.5 53.5t133.5 31.5t128 25.5t103.5 34t60.5 59.5q42 100 -28 187t-186 84q-67 -2 -110.5 -31t-56 -69t-10 -79t18.5 -64l-164 -66q0 76 29.5 139.5t76.5 102.5
t102 60.5t109 21.5q85 0 152.5 -31.5t109.5 -86t64 -124t22 -147.5v-532q0 -19 8 -32.5t17.5 -20.5t28.5 -10t30 -3.5t34 -0.5h10q5 0 5 -8t-5 -8h-180q-28 0 -47.5 20t-19.5 48z" />
    <glyph glyph-name="atilde" unicode="&#xe3;" 
d="M720 186v518q-13 -48 -60 -82.5t-100 -51.5t-125 -42.5t-115 -50.5q-74 -44 -105 -117t-17.5 -141t66.5 -122t133 -64q83 -11 169 26t154 127zM758 1263q-21 -73 -52.5 -109.5t-67.5 -40t-76 8.5t-82 30t-80.5 29.5t-77.5 2t-68 -46.5q25 65 58.5 94t70 27t76 -17.5
t80 -33t78 -25.5t75 10.5t66.5 70.5zM720 68v95q-134 -163 -327 -163q-90 0 -162 28t-113.5 73.5t-62.5 101t-15.5 113t33.5 106.5q32 55 90 92t121.5 53.5t133.5 31.5t128 25.5t103.5 34t60.5 59.5q42 100 -28 187t-186 84q-67 -2 -110.5 -31t-56 -69t-10 -79t18.5 -64
l-164 -66q0 76 29.5 139.5t76.5 102.5t102 60.5t109 21.5q85 0 152.5 -31.5t109.5 -86t64 -124t22 -147.5v-532q0 -19 8 -32.5t17.5 -20.5t28.5 -10t30 -3.5t34 -0.5h10q5 0 5 -8t-5 -8h-180q-28 0 -47.5 20t-19.5 48z" />
    <glyph glyph-name="adieresis" unicode="&#xe4;" 
d="M720 186v518q-13 -48 -60 -82.5t-100 -51.5t-125 -42.5t-115 -50.5q-74 -44 -105 -117t-17.5 -141t66.5 -122t133 -64q83 -11 169 26t154 127zM693 1219l-86 -106q-28 35 -85 106q28 35 85 107zM490 1219l-86 -106q-29 35 -86 106q29 35 86 107zM720 68v95
q-134 -163 -327 -163q-90 0 -162 28t-113.5 73.5t-62.5 101t-15.5 113t33.5 106.5q32 55 90 92t121.5 53.5t133.5 31.5t128 25.5t103.5 34t60.5 59.5q42 100 -28 187t-186 84q-67 -2 -110.5 -31t-56 -69t-10 -79t18.5 -64l-164 -66q0 76 29.5 139.5t76.5 102.5t102 60.5
t109 21.5q85 0 152.5 -31.5t109.5 -86t64 -124t22 -147.5v-532q0 -19 8 -32.5t17.5 -20.5t28.5 -10t30 -3.5t34 -0.5h10q5 0 5 -8t-5 -8h-180q-28 0 -47.5 20t-19.5 48z" />
    <glyph glyph-name="aring" unicode="&#xe5;" 
d="M720 186v518q-13 -48 -60 -82.5t-100 -51.5t-125 -42.5t-115 -50.5q-74 -44 -105 -117t-17.5 -141t66.5 -122t133 -64q83 -11 169 26t154 127zM536 1292q-24 24 -57 24t-57 -24q-23 -23 -23 -57q0 -33 23 -56q24 -24 57 -24t57 24q23 23 23 56q0 32 -23 57zM392 1322
q36 36 87 36t87 -36t36 -87q0 -50 -36 -86t-87 -36t-87 36t-36 86q0 51 36 87zM720 68v95q-134 -163 -327 -163q-90 0 -162 28t-113.5 73.5t-62.5 101t-15.5 113t33.5 106.5q32 55 90 92t121.5 53.5t133.5 31.5t128 25.5t103.5 34t60.5 59.5q42 100 -28 187t-186 84
q-67 -2 -110.5 -31t-56 -69t-10 -79t18.5 -64l-164 -66q0 76 29.5 139.5t76.5 102.5t102 60.5t109 21.5q85 0 152.5 -31.5t109.5 -86t64 -124t22 -147.5v-532q0 -19 8 -32.5t17.5 -20.5t28.5 -10t30 -3.5t34 -0.5h10q5 0 5 -8t-5 -8h-180q-28 0 -47.5 20t-19.5 48z" />
    <glyph glyph-name="ae" unicode="&#xe6;" horiz-adv-x="1476" 
d="M720 186v518q-13 -48 -60 -82.5t-100 -51.5t-125 -42.5t-115 -50.5q-74 -44 -105 -117t-17.5 -141t66.5 -122t133 -64q83 -11 169 26t154 127zM844 507l472 121q-13 146 -69.5 244.5t-134.5 104.5q-53 4 -98.5 -31.5t-74.5 -90t-50.5 -123t-31.5 -125t-13 -100.5z
M776 237l-56 -74q-134 -163 -327 -163q-90 0 -162 28t-113.5 73.5t-62.5 101t-15.5 113t33.5 106.5q32 55 90 92t121.5 53.5t133.5 31.5t128 25.5t103.5 34t60.5 59.5q42 100 -28 187t-186 84q-67 -2 -110.5 -31t-56 -69t-10 -79t18.5 -64l-164 -66q0 76 29.5 139.5
t76.5 102.5t102 60.5t109 21.5q110 0 188 -52t119 -141q51 90 124.5 141.5t158.5 51.5q60 0 112 -23t89 -59.5t67 -87t48.5 -101t30.5 -105.5l-585 -151q-3 -118 23.5 -221.5t76 -167.5t109.5 -68q59 -4 113.5 50t92.5 150q-49 -15 -113 -25v15q153 22 267 101
q-20 -60 -48.5 -112.5t-68.5 -99t-95.5 -73t-118.5 -26.5q-95 0 -176 64.5t-129 172.5z" />
    <glyph glyph-name="ccedilla" unicode="&#xe7;" horiz-adv-x="786" 
d="M388 4q-144 23 -237.5 160t-93.5 327q0 135 54 252.5t155.5 190t226.5 70.5q75 -1 127.5 -29.5t103.5 -89.5q-53 -24 -111.5 -79.5t-83.5 -107.5v31q41 66 113 122q-25 57 -52.5 90t-68.5 43q-116 28 -208 -113q-86 -134 -111 -344q-26 -221 37 -365q59 -135 178 -143
q66 -4 125.5 48t103.5 146h114q-11 -34 -34 -68t-60.5 -68t-96.5 -55.5t-129 -21.5h-10l-6 -21q27 -3 41 -17t14 -30q0 -26 -23 -43q-25 -19 -71 -19h-47l3 41h31q33 0 44 8q9 6 9 16q0 6 -4 10q-4 5 -13 8q-10 3 -34 3z" />
    <glyph glyph-name="egrave" unicode="&#xe8;" horiz-adv-x="815" 
d="M183 507l472 121q-13 146 -69.5 244.5t-134.5 104.5q-53 4 -98.5 -31.5t-74.5 -90t-50.5 -123t-31.5 -125t-13 -100.5zM308 1443l195 -42q-11 -43 -13 -86t5.5 -86t11.5 -60t14 -50l-39 -16zM61 502q0 136 48 252t131 183t180 67q60 0 112 -23t89 -59.5t67.5 -87t49 -101
t30.5 -105.5l-586 -151q-3 -118 23.5 -222t76 -168t109.5 -68q59 -4 114 50.5t93 150.5q-48 -15 -114 -25v15q155 22 268 101q-20 -60 -48.5 -113t-69 -99t-96 -72.5t-118.5 -26.5q-97 0 -180 67t-131 183t-48 252z" />
    <glyph glyph-name="eacute" unicode="&#xe9;" horiz-adv-x="815" 
d="M183 507l472 121q-13 146 -69.5 244.5t-134.5 104.5q-65 5 -118 -48t-83 -134.5t-46.5 -155.5t-20.5 -132zM326 1401q30 6 195 42q-58 -113 -174 -340l-39 16q10 33 14 50t11.5 60t5.5 86t-13 86zM61 502q0 136 48 252t131 183t180 67q60 0 112 -23t89 -59.5t67.5 -87
t49 -101t30.5 -105.5l-586 -151q-3 -118 23.5 -222t76 -168t109.5 -68q59 -4 114 50.5t93 150.5q-48 -15 -114 -25v15q155 22 268 101q-20 -60 -48.5 -113t-69 -99t-96 -72.5t-118.5 -26.5q-97 0 -180 67t-131 183t-48 252z" />
    <glyph glyph-name="ecircumflex" unicode="&#xea;" horiz-adv-x="815" 
d="M183 507l472 121q-13 146 -69.5 244.5t-134.5 104.5q-65 5 -118 -48t-83 -134.5t-46.5 -155.5t-20.5 -132zM482 1113q-3 105 -68 220q-64 -114 -67 -220h-147q4 11 14 31.5t61.5 94t127.5 157.5h23q76 -84 126.5 -155t63.5 -99l13 -29h-147zM61 502q0 136 48 252t131 183
t180 67q60 0 112 -23t89 -59.5t67.5 -87t49 -101t30.5 -105.5l-586 -151q-3 -118 23.5 -222t76 -168t109.5 -68q59 -4 114 50.5t93 150.5q-48 -15 -114 -25v15q155 22 268 101q-20 -60 -48.5 -113t-69 -99t-96 -72.5t-118.5 -26.5q-97 0 -180 67t-131 183t-48 252z" />
    <glyph glyph-name="edieresis" unicode="&#xeb;" horiz-adv-x="815" 
d="M183 507l472 121q-13 146 -69.5 244.5t-134.5 104.5q-65 5 -118 -48t-83 -134.5t-46.5 -155.5t-20.5 -132zM602 1219l-86 -106q-29 35 -86 106q29 35 86 107zM399 1219l-86 -106q-29 35 -86 106q29 35 86 107zM61 502q0 136 48 252t131 183t180 67q60 0 112 -23t89 -59.5
t67.5 -87t49 -101t30.5 -105.5l-586 -151q-3 -118 23.5 -222t76 -168t109.5 -68q59 -4 114 50.5t93 150.5q-48 -15 -114 -25v15q155 22 268 101q-20 -60 -48.5 -113t-69 -99t-96 -72.5t-118.5 -26.5q-97 0 -180 67t-131 183t-48 252z" />
    <glyph glyph-name="igrave" unicode="&#xec;" horiz-adv-x="458" 
d="M292 1401q-11 -43 -13 -86t5.5 -86t11.5 -60t14 -50l-39 -16l-173 340zM296 977q0 -149 -0.5 -447t-0.5 -447q0 -24 12.5 -39t38 -20.5t42 -6.5t46.5 -1h5.5h4.5q5 0 5 -8t-5 -8h-416q-5 0 -5 8t5 8h10q30 0 46.5 1t41.5 6.5t37.5 20.5t12.5 39v819q0 17 -8 26.5t-23 4.5
l-109 -35q-3 -1 -6 1t-2.5 5.5t5.5 5.5l228 92q15 6 25 -2t10 -23z" />
    <glyph glyph-name="iacute" unicode="&#xed;" horiz-adv-x="458" 
d="M147 1401q30 6 195 42q-57 -113 -173 -340l-40 16q10 33 14 50t11.5 60t5.5 86t-13 86zM296 977q0 -149 -0.5 -447t-0.5 -447q0 -24 12.5 -39t38 -20.5t42 -6.5t46.5 -1h5.5h4.5q5 0 5 -8t-5 -8h-416q-5 0 -5 8t5 8h10q30 0 46.5 1t41.5 6.5t37.5 20.5t12.5 39v819
q0 17 -8 26.5t-23 4.5l-109 -35q-3 -1 -6 1t-2.5 5.5t5.5 5.5l228 92q15 6 25 -2t10 -23z" />
    <glyph glyph-name="icircumflex" unicode="&#xee;" horiz-adv-x="458" 
d="M303 1113q-3 105 -68 220q-64 -114 -67 -220h-148q4 11 14.5 31.5t62 94t127.5 157.5h23q76 -84 126.5 -155t63.5 -99l13 -29h-147zM295 977v-894q0 -16 5.5 -28.5t18.5 -19.5t23.5 -11t30.5 -6t29.5 -2h30.5h5.5h4.5q5 0 5 -8t-5 -8h-416q-5 0 -5 8t5 8h10q30 0 47 1
t42 6.5t37.5 20.5t12.5 39v819q0 17 -8 26.5t-24 4.5l-109 -35q-3 -1 -5.5 1t-2 5.5t5.5 5.5l227 92q15 6 25 -2t10 -23z" />
    <glyph glyph-name="idieresis" unicode="&#xef;" horiz-adv-x="458" 
d="M337 1113q-28 35 -85 106q28 35 85 107l86 -107zM220 1219l-86 -106q-29 35 -86 106q29 35 86 107zM295 977v-894q0 -24 12.5 -39t38 -20.5t42 -6.5t46.5 -1h5.5h4.5q5 0 5 -8t-5 -8h-416q-5 0 -5 8t5 8h10q30 0 46.5 1t41.5 6.5t37.5 20.5t12.5 39v819q0 17 -8 26.5
t-23 4.5l-109 -35q-3 -1 -6 1t-2.5 5.5t5.5 5.5l228 92q14 6 24 -2t10 -23z" />
    <glyph glyph-name="eth" unicode="&#xf0;" horiz-adv-x="1044" 
d="M187 425q-7 -229 113 -336q91 -83 217 -63q125 18 212 125q93 114 100 282q8 183 -101 302q-88 96 -209 106q-129 10 -219 -85q-106 -112 -113 -331zM974 644q5 -104 -10 -198t-52.5 -175.5t-94.5 -141.5t-141 -94t-188 -35q-117 0 -217 53.5t-160.5 151.5t-61.5 220
q5 111 50 200.5t113.5 143t154.5 78.5t171 16t164.5 -55t133.5 -125q-15 289 -137 464l-471 -246l-23 45l463 242q-52 59 -112.5 85.5t-127.5 19t-140.5 -59.5t-143.5 -147v118q59 63 151.5 96t179.5 25q145 -14 255 -105l203 106l23 -45l-187 -98q94 -96 146 -239t59 -300z
" />
    <glyph glyph-name="ntilde" unicode="&#xf1;" horiz-adv-x="1052" 
d="M283 1137q25 65 58.5 94t70 27t76 -17.5t80 -33t78 -25.5t75 10.5t66.5 70.5q-21 -73 -52.5 -109.5t-67.5 -40t-76 8.5t-82 30t-80.5 29.5t-77.5 2t-68 -46.5zM263 1001q15 6 24.5 -1.5t9.5 -22.5v-361q30 58 53 100t64 102t78 97.5t86.5 64.5t98.5 24q97 -5 156.5 -103
t59.5 -237v-581q0 -16 5.5 -28.5t18.5 -19.5t23.5 -11t30.5 -6t29.5 -2h30.5h10q5 0 5 -8t-5 -8h-416q-5 0 -5 8t5 8h10q30 0 46.5 1t41.5 6.5t37.5 20.5t12.5 39v583q0 101 -28 189.5t-88 104.5q-42 11 -90 -15t-86.5 -68.5t-78.5 -103.5t-62 -103t-42 -83v-504
q0 -16 5.5 -28.5t18.5 -19.5t23.5 -11t30.5 -6t29.5 -2h30.5h5.5h4.5q5 0 5 -8t-5 -8h-416q-5 0 -5 8t5 8h10q30 0 46.5 1t41.5 6.5t37.5 20.5t12.5 39v819q0 17 -8 26.5t-23 4.5l-109 -35q-3 -1 -6 1t-2.5 5.5t5.5 5.5z" />
    <glyph glyph-name="ograve" unicode="&#xf2;" horiz-adv-x="858" 
d="M182 519q-9 -126 19 -240.5t81.5 -185t117.5 -74.5t124.5 58.5t101 171.5t49.5 236q13 192 -51.5 338.5t-162.5 153.5q-64 4 -125.5 -56t-103 -168t-50.5 -234zM534 1119l-39 -16l-173 340l195 -42q-31 -118 17 -282zM429 1004q98 0 182.5 -67t135 -183t50.5 -252
t-50.5 -252t-135 -183t-182.5 -67t-183 67t-136 183t-51 252t51 252t136 183t183 67z" />
    <glyph glyph-name="oacute" unicode="&#xf3;" horiz-adv-x="858" 
d="M429 1004q98 0 182.5 -67t135 -183t50.5 -252t-50.5 -252t-135 -183t-182.5 -67t-183 67t-136 183t-51 252t51 252t136 183t183 67zM361 1103l-39 16q10 33 14 50t11.5 60t5.5 86t-13 86l194 42zM461 977q-64 4 -125.5 -56t-103 -168t-50.5 -234t19 -240.5t81.5 -185
t117.5 -74.5t124.5 58.5t101 171.5t49.5 236q13 192 -51.5 338.5t-162.5 153.5z" />
    <glyph glyph-name="ocircumflex" unicode="&#xf4;" horiz-adv-x="858" 
d="M182 519q-9 -126 19 -240.5t81.5 -185t117.5 -74.5t124.5 58.5t101 171.5t49.5 236q13 192 -51.5 338.5t-162.5 153.5q-64 4 -125.5 -56t-103 -168t-50.5 -234zM643 1113v-1h-147q-3 106 -68 221q-64 -113 -67 -221h-148q4 11 14.5 32t62 94.5t127.5 157.5h23
q76 -84 126.5 -155t63.5 -99zM429 1004q98 0 182.5 -67t135 -183t50.5 -252t-50.5 -252t-135 -183t-182.5 -67t-183 67t-136 183t-51 252t51 252t136 183t183 67z" />
    <glyph glyph-name="otilde" unicode="&#xf5;" horiz-adv-x="858" 
d="M182 519q-9 -126 19 -240.5t81.5 -185t117.5 -74.5t124.5 58.5t101 171.5t49.5 236q13 192 -51.5 338.5t-162.5 153.5q-64 4 -125.5 -56t-103 -168t-50.5 -234zM680 1263q-21 -73 -52.5 -109.5t-67.5 -40t-76 8.5t-82 30t-80.5 29.5t-77.5 2t-68 -46.5q25 65 58.5 94
t70 27t76 -17.5t80 -33t78 -25.5t75 10.5t66.5 70.5zM429 1004q98 0 182.5 -67t135 -183t50.5 -252t-50.5 -252t-135 -183t-182.5 -67t-183 67t-136 183t-51 252t51 252t136 183t183 67z" />
    <glyph glyph-name="odieresis" unicode="&#xf6;" horiz-adv-x="858" 
d="M182 519q-9 -126 19 -240.5t81.5 -185t117.5 -74.5t124.5 58.5t101 171.5t49.5 236q13 192 -51.5 338.5t-162.5 153.5q-64 4 -125.5 -56t-103 -168t-50.5 -234zM241 1219l86 107l85 -107l-85 -106zM444 1219l86 107l86 -107l-86 -106zM429 1004q98 0 182.5 -67t135 -183
t50.5 -252t-50.5 -252t-135 -183t-182.5 -67t-183 67t-136 183t-51 252t51 252t136 183t183 67z" />
    <glyph glyph-name="divide" unicode="&#xf7;" horiz-adv-x="749" 
d="M300 378v147h148v-147h-148zM300 801v147h148v-147h-148zM57 616v94h634v-94h-634z" />
    <glyph glyph-name="oslash" unicode="&#xf8;" horiz-adv-x="866" 
d="M638 798l-380 -659q63 -114 146 -120q64 -4 124.5 58.5t101 171.5t49.5 236q12 175 -41 313zM186 519q-12 -173 41 -313l380 659q-61 106 -142 112q-64 4 -125.5 -56t-103 -168t-50.5 -234zM63 502q0 136 51 252t136 183t183 67q112 0 205 -87l50 87l52 -30l-60 -103
q57 -71 89 -166.5t32 -202.5q0 -136 -50.5 -252t-135 -183t-182.5 -67q-110 0 -205 87l-51 -87l-52 30l60 103q-122 152 -122 369z" />
    <glyph glyph-name="ugrave" unicode="&#xf9;" horiz-adv-x="1042" 
d="M611 1401q-11 -43 -13 -86t5.5 -86t11.5 -60t14 -50l-39 -16l-174 340zM758 83v305q-30 -58 -53 -100t-64 -102t-78 -97.5t-86.5 -64.5t-98.5 -24q-97 5 -156 103t-59 237v562q0 17 -8 26.5t-24 4.5l-109 -35q-3 -1 -5.5 1t-2 5.5t5.5 5.5l227 92q15 6 25 -2t10 -23v-640
q0 -101 28 -189t88 -104q36 -10 74.5 5.5t74.5 51t68 75.5t61.5 90t47.5 84t34 67v485q0 17 -8 26.5t-24 4.5l-109 -35q-3 -1 -5.5 1t-2 5.5t5.5 5.5l227 92q15 6 25 -2t10 -23v-894q0 -16 5.5 -28.5t18.5 -19.5t23.5 -11t30.5 -6t29.5 -2h30.5h10q5 0 5 -8t-5 -8h-415
q-5 0 -5 8t5 8h10q30 0 46.5 1t41.5 6.5t37.5 20.5t12.5 39z" />
    <glyph glyph-name="uacute" unicode="&#xfa;" horiz-adv-x="1042" 
d="M434 1401q30 6 195 42q-58 -113 -174 -340l-39 16q10 33 14 50t11.5 60t5.5 86t-13 86zM758 83v305q-30 -58 -53 -100t-64 -102t-78 -97.5t-86.5 -64.5t-98.5 -24q-97 5 -156 103t-59 237v562q0 17 -8 26.5t-24 4.5l-109 -35q-3 -1 -5.5 1t-2 5.5t5.5 5.5l227 92
q15 6 25 -2t10 -23v-640q0 -101 28 -189t88 -104q36 -10 74.5 5.5t74.5 51t68 75.5t61.5 90t47.5 84t34 67v485q0 17 -8 26.5t-24 4.5l-109 -35q-3 -1 -5.5 1t-2 5.5t5.5 5.5l227 92q15 6 25 -2t10 -23v-894q0 -16 5.5 -28.5t18.5 -19.5t23.5 -11t30.5 -6t29.5 -2h30.5h10
q5 0 5 -8t-5 -8h-415q-5 0 -5 8t5 8h10q30 0 46.5 1t41.5 6.5t37.5 20.5t12.5 39z" />
    <glyph glyph-name="ucircumflex" unicode="&#xfb;" horiz-adv-x="1042" 
d="M590 1113q-3 105 -68 220q-64 -114 -67 -220h-147q4 11 14 31.5t61.5 94t127.5 157.5h23q76 -84 126.5 -155t63.5 -99l13 -29h-147zM758 83v305q-30 -58 -53 -100t-64 -102t-78 -97.5t-86.5 -64.5t-98.5 -24q-97 5 -156 103t-59 237v562q0 17 -8 26.5t-24 4.5l-109 -35
q-3 -1 -5.5 1t-2 5.5t5.5 5.5l227 92q15 6 25 -2t10 -23v-640q0 -101 28 -189t88 -104q36 -10 74.5 5.5t74.5 51t68 75.5t61.5 90t47.5 84t34 67v485q0 17 -8 26.5t-24 4.5l-109 -35q-3 -1 -5.5 1t-2 5.5t5.5 5.5l227 92q15 6 25 -2t10 -23v-894q0 -16 5.5 -28.5t18.5 -19.5
t23.5 -11t30.5 -6t29.5 -2h30.5h10q5 0 5 -8t-5 -8h-415q-5 0 -5 8t5 8h10q30 0 46.5 1t41.5 6.5t37.5 20.5t12.5 39z" />
    <glyph glyph-name="udieresis" unicode="&#xfc;" horiz-adv-x="1042" 
d="M624 1113q-29 35 -86 106q29 35 86 107l86 -107zM507 1219l-86 -106q-29 35 -86 106q29 35 86 107zM758 83v305q-30 -58 -53 -100t-64 -102t-78 -97.5t-86.5 -64.5t-98.5 -24q-97 5 -156 103t-59 237v562q0 17 -8 26.5t-24 4.5l-109 -35q-3 -1 -5.5 1t-2 5.5t5.5 5.5
l227 92q15 6 25 -2t10 -23v-640q0 -101 28 -189t88 -104q36 -10 74.5 5.5t74.5 51t68 75.5t61.5 90t47.5 84t34 67v485q0 17 -8 26.5t-24 4.5l-109 -35q-3 -1 -5.5 1t-2 5.5t5.5 5.5l227 92q15 6 25 -2t10 -23v-894q0 -16 5.5 -28.5t18.5 -19.5t23.5 -11t30.5 -6t29.5 -2
h30.5h10q5 0 5 -8t-5 -8h-415q-5 0 -5 8t5 8h10q30 0 46.5 1t41.5 6.5t37.5 20.5t12.5 39z" />
    <glyph glyph-name="yacute" unicode="&#xfd;" horiz-adv-x="870" 
d="M45 -259q66 5 118 37.5t116 110.5q-48 17 -127.5 30.5t-141.5 4.5q-82 -13 -101.5 -60t23 -87.5t113.5 -35.5zM418 1401q29 6 194 42q-57 -113 -173 -340l-39 16q10 33 14 50t11.5 60t5.5 86t-13 86zM528 341q-37 -102 -60.5 -160.5t-67 -139t-95.5 -143.5
q145 -42 263 -90l-8 -78q-154 119 -265 155q-136 -170 -279 -181q-99 -7 -147.5 45.5t-20 113.5t120.5 76q64 10 153.5 -2.5t166.5 -34.5q79 102 130 208l-144 428l-128 383q-10 24 -25.5 38.5t-39 20t-39.5 7t-44 1.5q-5 0 -5 8t5 8h415q5 0 5 -8t-5 -8q-32 0 -52 -1.5
t-51 -7t-42.5 -20.5t-2.5 -38l215 -664l245 673q7 21 -0.5 34t-29.5 17.5t-36 5.5t-38 1h-7q-5 0 -5 8t5 8h255q5 0 5 -8t-5 -8h-15.5h-17t-14.5 -0.5t-15 -1.5t-13 -3t-13.5 -5t-11 -7.5t-11 -10t-8.5 -13t-8 -16.5z" />
    <glyph glyph-name="thorn" unicode="&#xfe;" horiz-adv-x="919" 
d="M224 817v-438q159 -315 297 -327q96 -8 159 130q65 141 64 346q-1 217 -79 341q-54 87 -137 99q-67 10 -152.5 -26.5t-151.5 -124.5zM189 1416q15 6 25 -2t10 -23v-560q69 91 154 133.5t155 39.5q175 -9 260 -190q74 -158 55 -381q-18 -205 -102 -333q-87 -133 -204 -105
q-156 36 -318 355v-698q0 -16 5.5 -28.5t18.5 -19.5t23.5 -11t30.5 -6t29.5 -2h30.5h5.5h4.5q5 0 5 -8t-5 -8h-416q-5 0 -5 8t5 8h10q30 0 46.5 1t41.5 6.5t37.5 20.5t12.5 39v1664q0 17 -8 26.5t-23 4.5l-109 -35q-3 -1 -5.5 1.5t-2 6t5.5 5.5z" />
    <glyph glyph-name="ydieresis" unicode="&#xff;" horiz-adv-x="870" 
d="M45 -259q66 5 118 37.5t116 110.5q-48 17 -127.5 30.5t-141.5 4.5q-82 -13 -101.5 -60t23 -87.5t113.5 -35.5zM675 1219l-86 -106q-29 35 -86 106q29 35 86 107zM471 1219l-85 -106q-29 35 -86 106q29 35 86 107zM528 341q-37 -102 -60.5 -160.5t-67 -139t-95.5 -143.5
q145 -42 263 -90l-8 -78q-154 119 -265 155q-136 -170 -279 -181q-99 -7 -147.5 45.5t-20 113.5t120.5 76q64 10 153.5 -2.5t166.5 -34.5q79 102 130 208l-144 428l-128 383q-10 24 -25.5 38.5t-39 20t-39.5 7t-44 1.5q-5 0 -5 8t5 8h415q5 0 5 -8t-5 -8q-32 0 -52 -1.5
t-51 -7t-42.5 -20.5t-2.5 -38l215 -664l245 673q7 21 -0.5 34t-29.5 17.5t-36 5.5t-38 1h-7q-5 0 -5 8t5 8h255q5 0 5 -8t-5 -8h-15.5h-17t-14.5 -0.5t-15 -1.5t-13 -3t-13.5 -5t-11 -7.5t-11 -10t-8.5 -13t-8 -16.5z" />
    <glyph glyph-name="circumflex" unicode="&#x2c6;" horiz-adv-x="706" 
d="M352 950l-172 -212h-131l251 285h104l252 -285h-128z" />
    <glyph glyph-name="endash" unicode="&#x2013;" horiz-adv-x="634" 
d="M589 0h-544v94h544v-94z" />
    <glyph glyph-name="emdash" unicode="&#x2014;" horiz-adv-x="1153" 
d="M1107 0h-1062v94h1062v-94z" />
    <glyph glyph-name="quoteleft" unicode="&#x2018;" horiz-adv-x="284" 
d="M143 869h72v-146h-145v146q0 70 41 117t113 34q-46 -20 -62.5 -57t-18.5 -94z" />
    <glyph glyph-name="quoteright" unicode="&#x2019;" horiz-adv-x="284" 
d="M68 154v146h146v-146q0 -70 -41.5 -117.5t-113.5 -34.5q46 20 63 57.5t19 94.5h-73z" />
    <glyph glyph-name="quotesinglbase" unicode="&#x201a;" horiz-adv-x="284" 
d="M68 154v146h146v-146q0 -70 -41.5 -117.5t-113.5 -34.5q46 20 63 57.5t19 94.5h-73z" />
    <glyph glyph-name="quotedblleft" unicode="&#x201c;" horiz-adv-x="501" 
d="M359 1280h73v-146h-146v146q0 70 41 117.5t113 34.5q-46 -20 -62.5 -57.5t-18.5 -94.5zM143 1280h72v-146h-145v146q0 70 41 117.5t113 34.5q-46 -20 -62.5 -57.5t-18.5 -94.5z" />
    <glyph glyph-name="quotedblright" unicode="&#x201d;" horiz-adv-x="505" 
d="M145 1288h-73v146h146v-146q0 -70 -41.5 -117.5t-113.5 -34.5q46 20 63 57.5t19 94.5zM361 1288h-73v146h146v-146q0 -70 -41 -117.5t-113 -34.5q46 20 62.5 57.5t18.5 94.5z" />
    <glyph glyph-name="quotedblbase" unicode="&#x201e;" horiz-adv-x="471" 
d="M127 1h-73v146h146v-146q0 -70 -41.5 -117.5t-113.5 -34.5q46 20 63 57.5t19 94.5zM343 1h-73v146h146v-146q0 -70 -41.5 -117.5t-113.5 -34.5q46 20 63 57.5t19 94.5z" />
    <glyph glyph-name="dagger" unicode="&#x2020;" horiz-adv-x="890" 
d="M398 1104v330h94v-330h330v-94h-330v-1225h-94v1225h-330v94h330z" />
    <glyph glyph-name="daggerdbl" unicode="&#x2021;" horiz-adv-x="931" 
d="M418 1104v330h94v-330h331v-94h-331v-863h331v-94h-331v-268h-94v268h-330v94h330v863h-330v94h330z" />
    <glyph glyph-name="bullet" unicode="&#x2022;" horiz-adv-x="522" 
d="M72 610q0 78 55 133q56 56 134 56t134 -56q55 -55 55 -133q0 -79 -55 -134q-56 -56 -134 -56t-134 56q-55 55 -55 134z" />
    <glyph glyph-name="ellipsis" unicode="&#x2026;" horiz-adv-x="1253" 
d="M1199 0h-150v150h150v-150zM701 0h-150v150h150v-150zM203 0h-150v150h150v-150z" />
    <glyph glyph-name="guilsinglleft" unicode="&#x2039;" horiz-adv-x="505" 
d="M429 785l-227 -393l227 -392h-81l-270 392l270 393h81z" />
    <glyph glyph-name="guilsinglright" unicode="&#x203a;" horiz-adv-x="505" 
d="M303 392l-227 393h81l270 -393l-270 -392h-81z" />
    <glyph glyph-name="Euro" unicode="&#x20ac;" horiz-adv-x="1224" 
d="M814 1434q177 0 309 -164l-37 -71q-87 184 -238 205q-77 9 -144 -33.5t-114 -123.5t-79 -186t-45 -225h533l-45 -80h-495q-2 -52 -2 -79h497l-45 -79h-450q8 -148 43.5 -268t106.5 -203.5t168 -96.5q115 -14 202.5 81t136.5 264v-218q-131 -157 -304 -157
q-121 0 -223.5 78.5t-168 214.5t-83.5 305h-263l45 79h213q0 7 -0.5 20t-0.5 20t0.5 20t0.5 19h-213l45 80h173q18 169 84 305t169 214.5t224 78.5z" />
    <glyph glyph-name="trademark" unicode="&#x2122;" horiz-adv-x="925" 
d="M341 1434l15 -56l-4 -1l-19 34q-10 18 -28 18h-43q-35 0 -35 -20v-374q0 -20 44 -20q1 0 1 -2t-1 -2h-123q-2 0 -2 2t2 2q44 0 44 20v374q0 20 -35 20h-43q-18 0 -28 -18l-18 -34l-5 1l15 56h263zM444 1035v374q0 20 -43 20q-1 0 -1 2.5t1 2.5h62l107 -227l70 -151
l149 378h79q2 0 2 -2.5t-2 -2.5q-44 0 -44 -20v-374q0 -20 44 -20q2 0 2 -2t-2 -2h-123q-1 0 -1 2t1 2q44 0 44 20v382l-160 -406h-6l-172 365v-341q0 -20 44 -20q1 0 1 -2t-1 -2h-94q-1 0 -1 2t1 2q43 0 43 20z" />
    <glyph glyph-name="O.alt1" unicode="&#xf000;" horiz-adv-x="1091" 
d="M581 1404q-131 16 -230 -113.5t-132.5 -328t-24.5 -402.5t94 -357.5t222 -172.5q131 -16 230 113.5t132.5 328t24.5 402.5t-94 357.5t-222 172.5zM63 717q0 196 63 360.5t174.5 260.5t245.5 96t245 -96t173.5 -260.5t62.5 -360.5t-63 -360.5t-174.5 -260.5t-245.5 -96
t-245 96t-173.5 260.5t-62.5 360.5zM511 754l46 128l26 -131l67 -42l-71 -30l-45 -127l-26 131l-67 41z" />
    <glyph glyph-name="Q.alt1" unicode="&#xf001;" horiz-adv-x="1079" 
d="M577 1404q-129 16 -226 -113.5t-129.5 -328t-23.5 -402.5t92 -357.5t218 -172.5q129 -16 226 113.5t129.5 328t23.5 402.5t-92 357.5t-218 172.5zM508 754l46 128l26 -131l67 -42l-71 -30l-45 -127l-26 131l-67 41zM584 -102q-13 6 -53 26.5t-69 34t-77 29t-89.5 20
t-93.5 -2.5t-101 -30q120 96 260 77q-132 80 -211.5 260.5t-79.5 404.5q0 196 61.5 360.5t170.5 260.5t241 96t240.5 -96t170 -260.5t61.5 -360.5q0 -72 -12.5 -150.5t-37 -161.5t-65 -157t-93 -131.5t-125.5 -89t-157 -27.5q196 -86 398 -27l-55 -99q-149 -46 -284 24z" />
    <glyph glyph-name="K.alt1" unicode="&#xf003;" horiz-adv-x="1024" 
d="M180 1350q0 24 -12.5 39t-38 21t-42.5 7t-47 1h-8q-5 0 -5 8t5 8h416q5 0 5 -8t-5 -8h-8q-30 0 -47 -1t-42.5 -7t-38 -21t-12.5 -39v-829l537 829q9 22 1 35.5t-40 21t-57 9.5t-52 2q-5 0 -5 8t5 8h322q5 0 5 -8t-5 -8q-49 0 -85 -13.5t-63 -54.5l-411 -633q34 16 67 16
t61 -12t56.5 -37t51.5 -54.5t47 -69t42 -76t37.5 -80.5t32.5 -77t28.5 -70.5t23.5 -56.5q57 -131 140 -216t179 -122t210.5 -37t230 31.5t241.5 90.5q-172 -105 -336 -147.5t-306 -21t-257.5 114.5t-187.5 253q-22 48 -66 153q-97 234 -147 312q-93 145 -170 58
q-6 -8 -13 -17l-117 -164v-405q0 -16 5.5 -28.5t18.5 -19.5t23.5 -11t30.5 -6t29.5 -2h30.5h5.5h4.5q5 0 5 -8t-5 -8h-416q-5 0 -5 8t5 8h10q30 0 46.5 1t41.5 6.5t37.5 20.5t12.5 39v1267z" />
    <glyph glyph-name="l.alt1" unicode="&#xf01e;" horiz-adv-x="329" 
d="M103 219v1143q0 17 -8 26.5t-23 4.5l-109 -35q-3 -1 -6 1t-2.5 5.5t5.5 5.5l228 91q15 6 25 -1.5t10 -22.5v-1204q0 -87 2.5 -151.5t10 -124t19 -100t30 -73t43.5 -48t60 -21.5t78 2.5t99 29.5t121 53.5t146 79.5v-137q-165 -67 -300.5 -68.5t-230 59t-146.5 184.5
t-52 301z" />
    <glyph glyph-name="a.alt1" unicode="&#xf01f;" horiz-adv-x="929" 
d="M720 181v518q-13 -48 -60 -82.5t-100 -51.5t-125 -42.5t-115 -50.5q-74 -44 -105 -117t-17.5 -141t66.5 -122t133 -64q83 -11 169 26t154 127zM720 158q-134 -163 -327 -163q-90 0 -162 28t-113.5 73.5t-62.5 101t-15.5 113t33.5 106.5q32 55 90 92t121.5 53.5
t133.5 31.5t128 25.5t103.5 34t60.5 59.5q42 100 -28 187t-186 84q-67 -2 -110.5 -31t-56 -69t-10 -79t18.5 -64l-164 -66q0 76 29.5 139.5t76.5 102.5t102 60.5t109 21.5q85 0 152.5 -31.5t109.5 -86t64 -124t22 -147.5v-412q0 -96 3.5 -166.5t12 -134t24.5 -102.5
t39.5 -69.5t58 -39.5t78.5 -7t103 23.5t130 56t161 86.5v-137q-161 -66 -295 -68.5t-228 55t-148 175.5t-58 288z" />
    <glyph glyph-name="d.alt1" unicode="&#xf020;" horiz-adv-x="919" 
d="M695 190v438q-147 289 -281 298q-96 7 -162 -129q-67 -138 -70 -334q-2 -212 75 -331q53 -81 134 -93q67 -10 152.5 26.5t151.5 124.5zM695 176q-57 -76 -141 -127t-168 -46q-175 9 -260 190q-74 158 -55 381q18 205 102 333q87 133 204 105q156 -36 318 -355v678
q0 17 -8 26.5t-23 4.5l-110 -35q-3 -1 -5.5 1t-2 5.5t5.5 5.5l227 91q15 6 25 -1.5t10 -22.5v-1204q0 -96 3.5 -166.5t12 -134t24.5 -102.5t39.5 -69.5t58 -39.5t78.5 -7t103 23.5t130 56t161 86.5v-137q-163 -66 -297 -68t-228.5 56.5t-147.5 178.5t-56 293z" />
    <glyph glyph-name="u.alt1" unicode="&#xf021;" horiz-adv-x="983" 
d="M877 972v-774q0 -96 3.5 -166.5t12 -134t24.5 -102.5t39.5 -69.5t58 -39.5t78.5 -7t103 23.5t130 56t161 86.5v-137q-165 -67 -300.5 -68t-230 59.5t-146.5 184.5t-52 301v198q-20 -39 -34 -65t-41 -71.5t-49.5 -76.5t-54.5 -68t-62 -59t-66.5 -36t-72.5 -12
q-97 5 -156 103t-59 237v562q0 17 -8 26.5t-24 4.5l-109 -35q-3 -1 -5.5 1t-2 5.5t5.5 5.5l227 91q15 6 25 -1.5t10 -22.5v-640q0 -101 28 -189t88 -104q36 -10 74.5 5.5t74.5 51t68 75.5t61.5 90t47.5 84t34 67v485q0 17 -8 26.5t-24 4.5l-109 -35q-3 -1 -5.5 1t-2 5.5
t5.5 5.5l227 91q15 6 25 -1.5t10 -22.5z" />
    <glyph glyph-name="h.alt1" unicode="&#xf022;" horiz-adv-x="974" 
d="M283 1402v-791q30 58 53 100t64 102t78 97.5t86.5 64.5t98.5 24q97 -5 156 -103t59 -237v-461q0 -96 3.5 -166.5t12 -134t24.5 -102.5t39.5 -69.5t58 -39.5t78.5 -7t103 23.5t130 56t161 86.5v-137q-165 -67 -300.5 -68t-230 59.5t-146.5 184.5t-52 301v476
q0 101 -28.5 189.5t-88.5 104.5q-42 11 -90 -15t-86.5 -68.5t-78.5 -103.5t-62 -103t-42 -83v-504q0 -16 5.5 -28.5t18.5 -19.5t23.5 -11t30.5 -6t29.5 -2h30.5h5.5h4.5q5 0 5 -8t-5 -8h-415q-5 0 -5 8t5 8h10q30 0 46.5 1t41.5 6.5t37.5 20.5t12.5 39v1249q0 17 -8 26.5
t-24 4.5l-109 -35q-3 -1 -5.5 1t-2 5.5t5.5 5.5l227 92q15 6 25 -2t10 -23z" />
    <glyph glyph-name="m.alt1" unicode="&#xf023;" horiz-adv-x="1581" 
d="M298 978v-361q25 48 43.5 82t50 86t61.5 87t66.5 69t76.5 50t81 14q51 -3 90.5 -30t62.5 -66.5t38 -91.5t20 -98t5 -93q28 56 52.5 99t64 100.5t76.5 94.5t85.5 62.5t96.5 22.5q97 -5 156 -103t59 -237v-461q0 -96 3.5 -166.5t12 -134t24.5 -102.5t39.5 -69.5t58 -39.5
t78.5 -7t103 23.5t130 56t161 86.5v-137q-165 -67 -300.5 -68t-230 59.5t-146.5 184.5t-52 301v477q0 100 -28.5 188.5t-88.5 104.5q-41 11 -87 -13.5t-84 -65t-77 -98.5t-62 -100.5t-44 -85.5v-514q0 -16 5.5 -28.5t18.5 -19.5t23.5 -11t30.5 -6t29.5 -2h30.5h10q5 0 5 -8
t-5 -8h-416q-5 0 -5 8t5 8h10q30 0 46.5 1t41.5 6.5t37.5 20.5t12.5 39v545q0 301 -116 332q-42 11 -90 -15t-86.5 -68.5t-78.5 -103.5t-62 -103t-42 -83v-504q0 -16 5.5 -28.5t18.5 -19.5t23.5 -11t30.5 -6t29.5 -2h30.5h5.5h4.5q5 0 5 -8t-5 -8h-416q-5 0 -5 8t5 8h10
q30 0 46.5 1t41.5 6.5t37.5 20.5t12.5 39v819q0 17 -8 26.5t-23 4.5l-109 -35q-3 -1 -6 1t-2.5 5.5t5.5 5.5l228 91q15 6 25 -1.5t10 -22.5z" />
    <glyph glyph-name="n.alt1" unicode="&#xf024;" horiz-adv-x="991" 
d="M893 204q0 -96 3.5 -166.5t12 -134t24.5 -102.5t39.5 -69.5t58 -39.5t78.5 -7t103 23.5t130 56t161 86.5v-137q-165 -67 -300.5 -68t-230.5 59.5t-147 184.5t-52 301v477q0 101 -28 189t-88 104q-42 11 -90 -15t-86.5 -68.5t-78.5 -103.5t-62 -103t-42 -83v-504
q0 -16 5.5 -28.5t18.5 -19.5t23.5 -11t30.5 -6t29.5 -2h30.5h5.5h4.5q5 0 5 -8t-5 -8h-416q-5 0 -5 8t5 8h10q30 0 46.5 1t41.5 6.5t37.5 20.5t12.5 39v819q0 17 -8 26.5t-23 4.5l-109 -35q-3 -1 -6 1t-2.5 5.5t5.5 5.5l228 91q15 6 25 -1.5t10 -22.5v-361q30 59 53 100
t64 101.5t78 98t86 64.5t98 24q97 -5 156.5 -103t59.5 -237v-461z" />
    <glyph glyph-name="b.alt1" unicode="&#xf025;" horiz-adv-x="964" 
d="M269 818v-439q142 -281 275 -287q95 -5 162 130q68 138 72 332q4 208 -73 324q-53 77 -132 90q-68 10 -153 -26t-151 -124zM269 1008v-177q69 91 154 133.5t155 39.5q175 -8 260 -186q73 -156 54 -377q-17 -202 -101 -330q-87 -134 -205 -108q-156 34 -317 347v-283
q0 -28 -20 -48t-48 -20h-175q-5 0 -5 8t5 8h10q22 0 33 0.5t29 3.5t27 10t16.5 20.5t7.5 32.5v913q0 96 -3.5 166.5t-12 134t-24.5 102.5t-39.5 69.5t-58 39.5t-78.5 7t-103 -23.5t-130 -56t-161 -86.5v137q165 67 300.5 68t230.5 -59.5t147 -184.5t52 -301z" />
    <glyph glyph-name="k.alt1" unicode="&#xf026;" horiz-adv-x="937" 
d="M283 620q0 -1 7.5 11.5t21 35.5t32.5 52t43 62t51 65t58 61t62.5 51t66.5 34.5t68 10.5q100 -5 164 -115q-67 -18 -127.5 -59t-94.5 -97v28q44 60 118 102q-23 81 -80 97q-50 13 -112.5 -25t-117 -103.5t-96 -128t-64.5 -111.5q55 30 106 33.5t90.5 -13.5t77 -54.5
t64.5 -81t55.5 -100.5t47.5 -104.5t42.5 -102.5t38.5 -86q22 -44 46 -55.5t71 -11.5q5 0 5 -8t-5 -8h-350q-5 0 -5 8t5 8q38 0 63 5q35 7 41 29t-12 70q-4 12 -15 44q-78 224 -143 320q-106 158 -223 94v-495q0 -16 5.5 -28.5t18.5 -19.5t23.5 -11t30.5 -6t29.5 -2h30.5h5.5
h4.5q5 0 5 -8t-5 -8h-416q-5 0 -5 8t5 8h10q30 0 46.5 1t41.5 6.5t37.5 20.5t12.5 39v913q0 87 -2.5 151.5t-10 124t-19 100t-30 73t-43.5 48t-60 21.5t-78 -2.5t-99 -29.5t-121 -53.5t-146 -79.5v137q165 67 300.5 68t230 -59.5t146.5 -184.5t52 -301v-388z" />
    <glyph glyph-name="h.alt2" unicode="&#xf027;" horiz-adv-x="1038" 
d="M283 615q30 58 53 100t64 102t78 97.5t86.5 64.5t98.5 24q97 -5 156 -103t59 -237v-581q0 -16 5.5 -28.5t18.5 -19.5t23.5 -11t30.5 -6t29.5 -2h30.5h10q5 0 5 -8t-5 -8h-415q-5 0 -5 8t5 8h10q30 0 46.5 1t41.5 6.5t37.5 20.5t12.5 39v584q0 100 -28.5 188.5
t-88.5 104.5q-42 11 -90 -15t-86.5 -68.5t-78.5 -103.5t-62 -103t-42 -83v-504q0 -16 5.5 -28.5t18.5 -19.5t23.5 -11t30.5 -6t29.5 -2h30.5h5.5h4.5q5 0 5 -8t-5 -8h-416q-5 0 -5 8t5 8h10q30 0 46.5 1t41.5 6.5t37.5 20.5t12.5 39v913q0 87 -2.5 151.5t-10 124t-19 100
t-30 73t-43.5 48t-60 21.5t-78 -2.5t-99 -29.5t-121 -53.5t-146 -79.5v137q165 67 300.5 68t230 -59.5t146.5 -184.5t52 -301v-393z" />
    <glyph glyph-name="l.alt2" unicode="&#xf028;" horiz-adv-x="444" 
d="M281 82q0 -16 5.5 -28.5t18.5 -19.5t23.5 -11t30.5 -6t29.5 -2h30.5h5.5h4.5q5 0 5 -8t-5 -8h-416q-5 0 -5 8t5 8h10q30 0 46.5 1t41.5 6.5t37.5 20.5t12.5 39v913q0 87 -2.5 151.5t-10 124t-19 100t-30 73t-43.5 48t-60 21.5t-78 -2.5t-99 -29.5t-121 -53.5t-146 -79.5
v137q165 67 300.5 68t230 -59.5t146.5 -184.5t52 -301v-926z" />
    <glyph glyph-name="d.alt2" unicode="&#xf029;" horiz-adv-x="978" 
d="M695 185v439q-147 289 -281 298q-96 7 -162 -129q-67 -138 -70 -334q-2 -212 75 -331q53 -81 134 -93q68 -10 153 26t151 124zM695 67v105q-69 -91 -154 -133.5t-155 -39.5q-175 9 -260 190q-74 158 -55 381q18 205 102 333q87 133 204 105q156 -36 318 -355v355
q0 177 52 301t146.5 184.5t230 59.5t300.5 -68v-137q-90 52 -161 86.5t-130 56t-103 23.5t-78.5 -7t-58 -39.5t-39.5 -69.5t-24.5 -102.5t-12 -134t-3.5 -166.5v-913q0 -16 5.5 -28.5t18.5 -19.5t23.5 -11t30.5 -6t29.5 -2h30.5h10q5 0 5 -8t-5 -8h-200q-28 0 -47.5 20
t-19.5 48z" />
    <glyph glyph-name="o.alt1" unicode="&#xf02a;" horiz-adv-x="856" 
d="M665 671q5 -122 -23 -239t-84 -196.5t-125 -85.5q-33 -3 -66 11l-42 110v1q61 -57 121 -52q64 6 116 82q54 80 78 204t8 244q-28 99 -78.5 160.5t-110.5 65.5q-64 4 -125.5 -56t-103 -168t-50.5 -234q-13 -192 53.5 -342t164.5 -157q64 -4 124.5 58t101 171t49.5 236
q7 91 -8 187zM57 501q0 136 51 252t136 183t183 67t182.5 -67t135 -183t50.5 -252t-50.5 -252t-135 -183t-182.5 -67t-183 67t-136 183t-51 252z" />
    <glyph glyph-name="a.alt2" unicode="&#xf037;" 
d="M386 927q-28 -29 -43 -67t-14 -66t9 -48l-179 -74q18 85 58.5 151.5t92.5 104.5t107.5 57t110.5 19q85 0 146.5 -27t97 -77.5t51.5 -114t16 -143.5v-541q0 -85 128 -85q5 0 5 -8t-5 -8h-180q-28 0 -47.5 20t-19.5 48v18q0 35 -7 45.5t-27 -6.5q-122 -125 -293 -125
q-90 0 -162 28t-113.5 74t-62.5 101.5t-15.5 113t33.5 106.5q27 47 73.5 78.5t99.5 50t107.5 36t112.5 48t100 73.5q38 39 49.5 80.5t-3 73t-45.5 54.5t-78.5 25t-102.5 -15zM720 742q0 142 -86.5 204t-224.5 1q50 14 90 8.5t71.5 -21.5t49 -44t22 -60t-9 -69.5t-44.5 -72.5
q-40 -45 -102.5 -84t-112.5 -62t-97.5 -65.5t-66.5 -98.5q-38 -112 17 -221t171 -124q64 -8 132.5 13t128.5 74q44 39 53 63.5t9 84.5v13v461z" />
    <glyph glyph-name="c.alt1" unicode="&#xf038;" horiz-adv-x="817" 
d="M493 1004q97 -1 164 -51.5t129 -159.5h-120q-14 35 -22.5 55t-22.5 47t-27.5 42.5t-32 29t-40.5 18.5q-116 28 -208 -113q-86 -134 -111 -344q-26 -221 37 -365q58 -135 178 -143q66 -4 125.5 48t103.5 145h114q-11 -34 -34 -68t-60.5 -68t-96.5 -55.5t-129 -21.5
q-107 0 -195 65t-138 177.5t-50 249.5q0 135 54 252t155.5 189.5t226.5 70.5z" />
    <glyph glyph-name="s.alt1" unicode="&#xf039;" horiz-adv-x="772" 
d="M392 1004q109 0 187 -58.5t105 -171.5l-131 -2q-15 81 -57 137.5t-109 66.5q-50 7 -96.5 -8.5t-73 -48.5t-33 -74t23 -89t93.5 -89q31 -19 87 -50.5t94.5 -54t86 -57.5t77 -68t50 -79.5t20.5 -98.5q1 -105 -85 -181.5t-228 -77.5q-74 0 -147 24t-134 78t-81 128h169
q2 -27 17 -61.5t38.5 -68t60.5 -56t77 -22.5q109 1 159 66.5t26 155.5q-15 57 -58 104.5t-85 73t-111.5 63t-100.5 57.5q-62 40 -99 91t-47 101.5t5.5 99.5t53 86.5t101.5 60.5t145 23z" />
    <glyph glyph-name="t.alt1" unicode="&#xf03a;" horiz-adv-x="589" 
d="M128 982h-99l6 22q61 0 96.5 32t40.5 74.5t-7 83.5t-37 60h172q1 -45 -15 -84t-40 -64.5t-48.5 -45t-41.5 -34t-17 -22.5h367l-6 -22h-251v-644q0 -101 28 -189.5t88 -104.5q91 -24 202 113q7 8 10 -1q3 -7 -2 -14q-116 -149 -230 -142q-97 5 -156.5 103t-59.5 237v642z
" />
    </font>
</defs>
</svg>
