<?xml version="1.0" standalone="no"?>
<!DOCTYPE svg PUBLIC "-//W3C//DTD SVG 20010904//EN"
 "http://www.w3.org/TR/2001/REC-SVG-20010904/DTD/svg10.dtd">
<svg version="1.0" xmlns="http://www.w3.org/2000/svg"
 width="328.000000pt" height="328.000000pt" viewBox="0 0 328.000000 328.000000"
 preserveAspectRatio="xMidYMid meet">
<metadata>
Created by potrace 1.14, written by Peter Selinger 2001-2017
</metadata>
<g transform="translate(0.000000,328.000000) scale(0.100000,-0.100000)"
fill="#000000" stroke="none">
<path d="M3133 2823 c-27 -40 -40 -70 -62 -138 -46 -143 -140 -365 -156 -365
-5 0 1 19 25 75 52 120 71 179 66 201 -4 13 -10 24 -15 24 -13 0 -59 -101 -80
-178 -18 -65 -90 -226 -98 -218 -2 2 8 39 22 82 31 95 51 179 60 256 5 46 2
66 -14 103 -29 66 -46 55 -47 -31 -2 -67 -38 -265 -71 -389 -9 -33 -34 -95
-55 -138 -21 -43 -37 -81 -34 -85 13 -21 -91 -151 -187 -234 l-62 -53 76 86
c62 69 77 93 83 129 12 76 -8 74 -82 -10 -223 -252 -485 -448 -712 -533 -8 -3
-33 -13 -55 -22 -48 -20 -46 -18 80 75 110 83 311 272 375 354 50 66 76 136
60 165 -6 12 -15 21 -20 21 -5 0 -41 -44 -81 -97 -40 -54 -102 -127 -136 -161
-35 -35 -63 -67 -63 -71 0 -16 -145 -143 -215 -187 l-30 -19 25 35 c13 19 40
55 58 79 83 110 150 300 137 387 -9 65 -29 55 -50 -23 -21 -81 -136 -323 -195
-410 -38 -57 -138 -159 -206 -210 -18 -14 -60 -27 -119 -38 -49 -8 -101 -18
-114 -21 -20 -4 -17 2 24 51 26 30 75 77 109 104 83 67 374 356 410 408 21 31
27 49 22 68 -17 67 -51 39 -276 -225 -63 -74 -137 -157 -163 -185 l-49 -50 26
50 c35 68 103 255 122 335 19 81 31 280 17 280 -5 0 -15 17 -21 39 -15 47 -38
69 -54 53 -9 -9 -9 -24 0 -59 9 -34 10 -63 3 -98 -49 -253 -118 -442 -208
-576 -21 -30 -60 -88 -86 -127 -53 -80 -104 -116 -183 -131 -27 -5 -58 -13
-69 -16 -18 -6 -18 -5 -4 7 8 7 59 65 113 128 55 63 107 124 118 135 35 37
118 158 124 181 7 26 -1 44 -20 44 -6 0 -41 -42 -76 -92 -69 -100 -132 -180
-262 -327 l-83 -93 -102 -38 c-77 -28 -100 -33 -93 -21 24 44 160 193 293 322
146 141 212 228 190 250 -16 16 -177 -135 -280 -263 -142 -174 -138 -170 -109
-113 13 28 36 67 50 88 14 21 26 40 26 43 0 3 26 43 59 87 206 288 255 386
262 523 5 97 -14 91 -55 -17 -30 -81 -135 -283 -143 -275 -2 2 6 25 17 52 20
45 67 201 92 299 21 85 -13 240 -53 240 -11 0 -13 -15 -11 -70 2 -38 -2 -106
-8 -150 -16 -121 -122 -497 -136 -482 -2 2 0 28 5 58 34 195 37 469 6 469 -33
0 -38 -29 -39 -233 -2 -221 -3 -226 -73 -442 -62 -192 -110 -314 -138 -350
-38 -50 -83 -97 -108 -114 -153 -102 -172 -117 -263 -208 -88 -89 -172 -209
-157 -224 7 -7 29 16 71 73 33 46 83 105 110 132 l50 49 129 -32 c70 -18 161
-43 202 -57 82 -27 109 -29 146 -12 75 34 -24 76 -245 103 -69 9 -138 18 -155
22 l-30 6 25 9 c57 22 205 38 350 39 167 0 230 -12 335 -64 50 -25 181 -55
192 -44 14 15 -10 57 -44 79 -119 73 -285 106 -478 94 -81 -6 -238 -33 -290
-51 -16 -6 -17 -5 -5 4 23 17 164 58 280 82 58 12 128 26 155 31 59 12 427 4
483 -11 20 -6 75 -20 121 -31 46 -12 91 -26 100 -31 39 -21 232 -79 293 -88
82 -12 138 0 138 29 0 26 -35 48 -96 59 -27 5 -113 25 -189 44 -231 57 -381
72 -671 70 -205 -1 -261 -5 -303 -19 -29 -9 -54 -14 -57 -12 -6 6 116 48 139
48 10 0 25 4 35 10 9 5 89 26 177 45 152 33 170 35 355 36 196 0 329 -13 445
-46 134 -38 248 -50 456 -49 113 1 218 4 233 8 48 12 23 31 -45 34 -35 1 -77
7 -92 13 -17 7 -100 12 -205 13 -128 1 -195 6 -242 18 -36 10 -96 21 -135 26
l-70 8 130 8 c139 8 243 27 257 48 38 60 -50 87 -172 52 -65 -18 -184 -44
-188 -40 -3 4 50 26 166 71 91 36 93 36 135 21 98 -36 259 -43 393 -16 83 16
255 87 284 117 52 54 47 103 -8 65 -87 -62 -377 -127 -532 -120 l-65 3 69 18
c77 20 260 90 376 144 41 20 104 48 139 64 147 67 346 188 418 254 21 19 40
35 44 35 3 0 30 31 62 69 66 81 96 136 80 152 -7 7 -36 -17 -94 -79 -97 -103
-188 -167 -429 -301 -190 -106 -410 -215 -418 -207 -2 3 4 9 14 13 10 4 57 30
104 58 47 29 123 73 170 98 60 32 119 77 202 153 151 137 175 174 116 174 -16
0 4 24 80 95 113 107 152 171 155 251 2 49 -17 72 -30 37 -13 -35 -103 -158
-159 -218 -32 -33 -50 -49 -41 -35 10 14 27 43 38 65 19 35 20 38 4 25 -10 -8
7 33 38 91 31 58 70 139 87 179 30 74 70 216 70 251 0 27 -16 23 -37 -8z
m-218 -766 c-14 -35 -250 -235 -315 -266 -24 -12 18 29 209 201 80 73 117 95
106 65z m-180 -93 c-16 -14 -59 -53 -95 -87 -95 -91 -132 -119 -75 -58 48 51
185 171 195 171 3 -1 -8 -12 -25 -26z m-236 -97 c-124 -147 -259 -262 -394
-336 -67 -37 -67 -34 -2 13 135 95 198 149 311 268 69 72 127 136 127 142 1 6
3 3 6 -7 3 -12 -14 -40 -48 -80z m-333 -11 c-32 -55 -119 -150 -189 -208 -35
-28 -16 -5 56 71 59 62 117 130 130 151 12 21 23 37 26 35 2 -2 -8 -24 -23
-49z m-766 -78 c-29 -96 -34 -82 -7 21 12 45 23 75 25 66 2 -9 -6 -48 -18 -87z
m432 -75 c-22 -43 -49 -89 -61 -103 -12 -14 -3 7 19 47 22 40 40 77 40 82 0
15 35 71 38 62 2 -5 -15 -45 -36 -88z m-912 47 c-6 -11 -13 -20 -16 -20 -2 0
0 9 6 20 6 11 13 20 16 20 2 0 0 -9 -6 -20z m1590 17 c0 -2 -15 -16 -32 -33
l-33 -29 29 33 c28 30 36 37 36 29z m-70 -61 c0 -2 -8 -10 -17 -17 -16 -13
-17 -12 -4 4 13 16 21 21 21 13z m-410 -390 c0 -20 -74 -34 -205 -39 l-110 -5
80 19 c44 10 94 22 110 28 48 15 125 13 125 -3z m-458 -37 c-24 -11 -51 -18
-60 -16 -10 2 4 10 33 20 68 21 79 20 27 -4z m-1085 -455 c-3 -3 -12 -4 -19
-1 -8 3 -5 6 6 6 11 1 17 -2 13 -5z m58 -14 c13 -5 14 -9 5 -9 -8 0 -24 4 -35
9 -13 5 -14 9 -5 9 8 0 24 -4 35 -9z"/>
</g>
</svg>
