<svg width="83" height="153" viewBox="0 0 83 153" fill="none" xmlns="http://www.w3.org/2000/svg">
<path fill-rule="evenodd" clip-rule="evenodd" d="M10.532 79.8284C8.57934 77.8758 8.57934 74.71 10.532 72.7574L76.6464 6.64287C76.8417 6.44761 76.8417 6.13103 76.6464 5.93577V5.93577C76.4512 5.74051 76.1346 5.74051 75.9393 5.93577L6.28932 75.5858C5.8988 75.9763 5.8988 76.6095 6.28932 77V77L76.6464 147.357C76.8417 147.552 77.1583 147.552 77.3536 147.357V147.357C77.5488 147.162 77.5488 146.845 77.3536 146.65L10.532 79.8284Z" fill="black"/>
<path d="M73.1109 3.10734L6.99643 69.2218L14.0675 76.2929L80.182 10.1784L73.1109 3.10734ZM9.82486 79.1213L79.4749 9.4713L72.4038 2.40023L2.75379 72.0503L9.82486 79.1213ZM80.182 143.822L9.82486 73.4645L2.75379 80.5355L73.1109 150.893L80.182 143.822ZM6.99643 83.364L73.818 150.186L80.8891 143.114L14.0675 76.2929L6.99643 83.364ZM80.8891 150.893C83.037 148.745 83.037 145.262 80.8891 143.114L73.818 150.186C72.0607 148.428 72.0607 145.579 73.818 143.822L80.8891 150.893ZM2.75379 72.0503C0.410643 74.3934 0.410643 78.1924 2.75379 80.5355L9.82486 73.4645C11.387 75.0266 11.387 77.5592 9.82486 79.1213L2.75379 72.0503ZM80.182 2.40023C78.0341 0.252355 74.5517 0.252346 72.4038 2.40023L79.4749 9.4713C77.7175 11.2287 74.8683 11.2287 73.1109 9.4713L80.182 2.40023ZM6.99643 69.2218C3.09118 73.1271 3.09119 79.4587 6.99643 83.364L14.0675 76.2929L14.0675 76.2929L6.99643 69.2218ZM73.1109 150.893C75.2588 153.041 78.7412 153.041 80.8891 150.893L73.818 143.822C75.5754 142.064 78.4246 142.064 80.182 143.822L73.1109 150.893ZM80.182 10.1784C82.3299 8.03052 82.3299 4.54812 80.182 2.40023L73.1109 9.4713C71.3536 7.71394 71.3536 4.8647 73.1109 3.10734L80.182 10.1784Z" fill="black"/>
</svg>
