<svg width="79" height="149" viewBox="0 0 79 149" fill="none" xmlns="http://www.w3.org/2000/svg">
<path fill-rule="evenodd" clip-rule="evenodd" d="M8.53196 77.8284C6.57934 75.8758 6.57934 72.71 8.53196 70.7574L74.6464 4.64287C74.8417 4.44761 74.8417 4.13103 74.6464 3.93577V3.93577C74.4512 3.74051 74.1346 3.74051 73.9393 3.93577L4.28932 73.5858C3.8988 73.9763 3.8988 74.6095 4.28932 75V75L74.6464 145.357C74.8417 145.552 75.1583 145.552 75.3536 145.357V145.357C75.5488 145.162 75.5488 144.845 75.3536 144.65L8.53196 77.8284Z" fill="black"/>
<path d="M72.5251 2.52155L6.41064 68.636L10.6533 72.8787L76.7678 6.76419L72.5251 2.52155ZM6.41064 75.7071L76.0607 6.05709L71.818 1.81445L2.168 71.4645L6.41064 75.7071ZM76.7678 143.236L6.41064 72.8787L2.168 77.1213L72.5251 147.478L76.7678 143.236ZM6.41064 79.9497L73.2322 146.771L77.4749 142.529L10.6533 75.7071L6.41064 79.9497ZM77.4749 147.478C78.8417 146.112 78.8417 143.896 77.4749 142.529L73.2322 146.771C72.2559 145.795 72.2559 144.212 73.2322 143.236L77.4749 147.478ZM2.168 71.4645C0.605905 73.0266 0.605905 75.5592 2.168 77.1213L6.41064 72.8787C7.19169 73.6597 7.19169 74.9261 6.41064 75.7071L2.168 71.4645ZM76.7678 1.81445C75.4009 0.447615 73.1849 0.447609 71.818 1.81445L76.0607 6.05709C75.0843 7.0334 73.5014 7.0334 72.5251 6.05709L76.7678 1.81445ZM6.41064 68.636C3.28645 71.7602 3.28645 76.8256 6.41064 79.9497L10.6533 75.7071C9.87223 74.9261 9.87223 73.6597 10.6533 72.8787L6.41064 68.636ZM72.5251 147.478C73.892 148.845 76.108 148.845 77.4749 147.478L73.2322 143.236C74.2085 142.259 75.7915 142.259 76.7678 143.236L72.5251 147.478ZM76.7678 6.76419C78.1346 5.39736 78.1346 3.18128 76.7678 1.81445L72.5251 6.05709C71.5488 5.08078 71.5488 3.49786 72.5251 2.52155L76.7678 6.76419Z" fill="black"/>
</svg>
